<svg xmlns="http://www.w3.org/2000/svg" xmlns:xlink="http://www.w3.org/1999/xlink" width="1366.364" height="275.596" viewBox="0 0 1366.364 275.596">
  <defs>
    <clipPath id="clip-path">
      <rect id="Rectangle_29" data-name="Rectangle 29" width="1366.364" height="275.596" fill="none"/>
    </clipPath>
    <linearGradient id="linear-gradient" x1="0.5" y1="-0.178" x2="0.5" y2="1.183" gradientUnits="objectBoundingBox">
      <stop offset="0" stop-color="#e2e617"/>
      <stop offset="0.422" stop-color="#b2d111"/>
      <stop offset="0.999" stop-color="#289b36"/>
    </linearGradient>
    <linearGradient id="linear-gradient-2" x1="0.5" y1="-0.494" x2="0.5" y2="1.123" gradientUnits="objectBoundingBox">
      <stop offset="0" stop-color="#e2e617"/>
      <stop offset="0.422" stop-color="#b2d111"/>
      <stop offset="0.999" stop-color="#08190a"/>
    </linearGradient>
    <linearGradient id="linear-gradient-3" x1="0.5" y1="-0.455" x2="0.5" y2="1.006" xlink:href="#linear-gradient"/>
    <linearGradient id="linear-gradient-4" x1="0.5" y1="-0.359" x2="0.5" y2="1.006" xlink:href="#linear-gradient"/>
    <linearGradient id="linear-gradient-6" x1="2.238" y1="-2.411" x2="1.042" y2="-0.603" xlink:href="#linear-gradient"/>
    <linearGradient id="linear-gradient-7" x1="5.905" y1="22.158" x2="6.01" y2="24.352" gradientUnits="objectBoundingBox">
      <stop offset="0.389" stop-color="#72d81c"/>
      <stop offset="0.625" stop-color="#3aa023"/>
      <stop offset="1" stop-color="#50cc2c"/>
    </linearGradient>
    <linearGradient id="linear-gradient-8" x1="113.02" y1="46.183" x2="114.719" y2="48.54" xlink:href="#linear-gradient-7"/>
    <linearGradient id="linear-gradient-9" x1="45.613" y1="43.129" x2="46.297" y2="45.335" xlink:href="#linear-gradient-7"/>
    <linearGradient id="linear-gradient-10" x1="5.883" y1="24.666" x2="5.965" y2="25.929" xlink:href="#linear-gradient-7"/>
    <linearGradient id="linear-gradient-11" x1="36.521" y1="73.433" x2="37.067" y2="77.223" xlink:href="#linear-gradient-7"/>
    <linearGradient id="linear-gradient-12" x1="3.456" y1="10.49" x2="3.558" y2="12.799" xlink:href="#linear-gradient-7"/>
    <linearGradient id="linear-gradient-13" x1="70.16" y1="20.915" x2="72.023" y2="23.283" xlink:href="#linear-gradient-7"/>
    <linearGradient id="linear-gradient-14" x1="22.699" y1="20.228" x2="23.299" y2="22.547" xlink:href="#linear-gradient-7"/>
    <linearGradient id="linear-gradient-15" x1="3.435" y1="12.999" x2="3.514" y2="14.494" xlink:href="#linear-gradient-7"/>
    <linearGradient id="linear-gradient-16" x1="22.854" y1="30.006" x2="23.457" y2="33.478" xlink:href="#linear-gradient-7"/>
  </defs>
  <g id="Group_1800" data-name="Group 1800" transform="translate(-133.178 -63.025)">
    <g id="Group_1799" data-name="Group 1799" transform="translate(133.178 63.025)" clip-path="url(#clip-path)">
      <g id="Group_1783" data-name="Group 1783" transform="translate(6.478 27.409)">
        <path id="Path_924" data-name="Path 924" d="M134.047,212.381V340H1505.055V152.537C734.812-47.365,245.954,157.121,134.047,212.381Z" transform="translate(-134.047 -66.702)" stroke="rgba(0,0,0,0)" stroke-width="1" fill="url(#linear-gradient)"/>
      </g>
      <path id="Path_925" data-name="Path 925" d="M299.686,94.809s214.183-50.08,471.544-15.54,143.368,77.74-41.456,110.543c-184.809,32.825,362.731,132.068-50.08,139.917-412.833,7.849-716.831-36.283-326.462-91.551S-69.947,179.458,299.686,94.809Z" transform="translate(120.899 -36.601)" fill="url(#linear-gradient-2)" style="mix-blend-mode: screen;isolation: isolate"/>
      <g id="Group_1785" data-name="Group 1785" transform="translate(6.478 28.133)" opacity="0.5" style="mix-blend-mode: multiply;isolation: isolate">
        <path id="Path_926" data-name="Path 926" d="M275.238,273.054c41.464-60.463,286.042-88.182,153.6-111.206C256.113,142.268,418.6,101.02,582.672,69.209,344.5,101.766,190.8,168.176,134.047,196.2V323.82H441.689C330.208,316.985,254.264,303.651,275.238,273.054Z" transform="translate(-134.047 -51.246)" fill="url(#linear-gradient-3)"/>
        <path id="Path_927" data-name="Path 927" d="M824.845,151.91C606.339,95.2,410.484,71.048,239.449,66.8,440.007,101.92,834.333,183.178,386.126,212.6c-141.363,10.673,269.116,91.342,138.516,126.769h300.2Z" transform="translate(546.163 -66.799)" fill="url(#linear-gradient-4)"/>
        <path id="Path_928" data-name="Path 928" d="M824.845,151.91C606.339,95.2,410.484,71.048,239.449,66.8,440.007,101.92,834.333,183.178,386.126,212.6c-141.363,10.673,269.116,91.342,138.516,126.769h300.2Z" transform="translate(546.163 -66.799)" fill="url(#linear-gradient-4)"/>
        <g id="Group_1784" data-name="Group 1784" transform="translate(0 95.807)" style="mix-blend-mode: multiply;isolation: isolate">
          <path id="Path_929" data-name="Path 929" d="M396.6,104.808c-158.141,4.606-164.454-7.394-143.86-25.155-55.439,19.536-95.3,37.6-118.689,49.148V256.42h52.159C59.095,185.746,483.1,102.3,396.6,104.808Z" transform="translate(-134.047 -79.653)" fill="url(#linear-gradient-6)"/>
        </g>
      </g>
      <g id="Group_1787" data-name="Group 1787" transform="translate(1087.683 92.459)">
        <path id="Path_930" data-name="Path 930" d="M320.283,90.442c1.215-1.267,4.345-3.607,4.42-5.508.157-4.629-7.237-2.571-9.481-1.64a22.31,22.31,0,0,0-3.854,1.968,10.588,10.588,0,0,0,.1-1.6c-.082-3.824-1.811-8.042-6.224-5.672a9.244,9.244,0,0,0-4.42,7.081,10.32,10.32,0,0,0-4.256-2.892c-2.773-1.088-6.641-2.027-8.564.85-1.3,1.923.753,4.807,1.841,6.306.082.1.164.194.238.3-3.7-.149-7.148.812-8.214,3.868-1.625,4.584,3.3,6.052,8.475,6.1-2.773,1.617-4.561,3.809-3.175,6.447,1.834,3.5,8.281.827,10.606-.276a29.858,29.858,0,0,0,5.6-3.3c3.652,4.084,9.369,6.865,14.348,3.7,2.981-1.878,1.737-4.919-.656-7.528,1.1-.075,2.072-.171,2.787-.246,2.109-.2,7.126-.514,7.58-3.689C327.983,90.785,322.84,91.068,320.283,90.442Z" transform="translate(-280.328 -76.258)" fill="#009345" opacity="0.4" style="mix-blend-mode: multiply;isolation: isolate"/>
        <g id="Group_1786" data-name="Group 1786">
          <path id="Path_931" data-name="Path 931" d="M320.114,90.278c1.222-1.267,4.353-3.585,4.42-5.478.164-4.629-7.237-2.594-9.473-1.662A22.446,22.446,0,0,0,311.2,85.12a13.034,13.034,0,0,0,.1-1.6c-.089-3.839-1.819-8.035-6.231-5.672-2.594,1.394-3.98,4.144-4.428,7.066A10.354,10.354,0,0,0,296.412,82c-2.78-1.058-6.648-2.012-8.579.865-1.312,1.945.753,4.807,1.841,6.306.074.1.156.194.246.3-3.712-.134-7.155.82-8.221,3.861-1.61,4.6,3.317,6.075,8.474,6.112-2.75,1.625-4.561,3.794-3.19,6.462,1.848,3.481,8.3.8,10.621-.291a29.9,29.9,0,0,0,5.6-3.3c3.66,4.092,9.376,6.865,14.363,3.7,2.981-1.878,1.737-4.919-.648-7.535,1.081-.06,2.065-.164,2.773-.239,2.117-.209,7.126-.514,7.58-3.7C327.813,90.636,322.678,90.927,320.114,90.278Z" transform="translate(-281.388 -77.16)" fill="#ffffe3"/>
          <path id="Path_932" data-name="Path 932" d="M300.141,83.825c0,2.944-3.756,5.337-8.393,5.337s-8.407-2.393-8.407-5.337,3.771-5.337,8.407-5.337S300.141,80.888,300.141,83.825Z" transform="translate(-268.787 -68.59)" fill="#ae6cb2"/>
          <path id="Path_933" data-name="Path 933" d="M289.58,80.611c0,1.044-1.327,1.878-2.952,1.878s-2.951-.835-2.951-1.878S285,78.74,286.628,78.74,289.58,79.567,289.58,80.611Z" transform="translate(-266.619 -66.963)" fill="#f99fc5"/>
        </g>
      </g>
      <g id="Group_1789" data-name="Group 1789" transform="translate(254.561 162.276)">
        <path id="Path_934" data-name="Path 934" d="M209.37,108.82c1.573-1.632,5.613-4.644,5.7-7.1.2-5.985-9.332-3.332-12.231-2.124a28.522,28.522,0,0,0-4.986,2.542,14.111,14.111,0,0,0,.134-2.065c-.1-4.949-2.348-10.39-8.042-7.334-3.361,1.826-5.15,5.359-5.717,9.138a13.551,13.551,0,0,0-5.478-3.742c-3.585-1.379-8.579-2.616-11.076,1.118-1.677,2.5.976,6.216,2.378,8.132l.32.388c-4.793-.186-9.22,1.051-10.621,4.986-2.08,5.926,4.271,7.834,10.957,7.893-3.585,2.087-5.9,4.912-4.114,8.318,2.37,4.532,10.7,1.066,13.707-.365a38.1,38.1,0,0,0,7.245-4.248c4.7,5.277,12.089,8.862,18.522,4.785,3.854-2.445,2.243-6.373-.827-9.734,1.4-.089,2.661-.216,3.585-.313,2.728-.261,9.2-.663,9.779-4.778C219.313,109.259,212.672,109.625,209.37,108.82Z" transform="translate(-157.771 -90.506)" fill="#009345" opacity="0.4" style="mix-blend-mode: multiply;isolation: isolate"/>
        <g id="Group_1788" data-name="Group 1788">
          <path id="Path_935" data-name="Path 935" d="M209.151,108.611c1.58-1.61,5.62-4.644,5.709-7.088.2-5.97-9.339-3.332-12.231-2.139a30.124,30.124,0,0,0-4.979,2.557,15.089,15.089,0,0,0,.127-2.072c-.112-4.927-2.348-10.36-8.042-7.319-3.369,1.8-5.136,5.352-5.724,9.13a13.388,13.388,0,0,0-5.471-3.734c-3.585-1.4-8.594-2.639-11.076,1.1-1.677,2.5.976,6.216,2.385,8.147.089.134.209.246.313.388-4.8-.2-9.227,1.051-10.621,4.994-2.079,5.926,4.278,7.819,10.957,7.893-3.578,2.087-5.9,4.912-4.114,8.318,2.378,4.517,10.7,1.058,13.7-.365a38.147,38.147,0,0,0,7.237-4.248c4.726,5.262,12.1,8.847,18.544,4.778,3.846-2.437,2.229-6.365-.842-9.734,1.4-.082,2.668-.216,3.585-.306,2.743-.268,9.205-.671,9.787-4.793C219.1,109.065,212.46,109.438,209.151,108.611Z" transform="translate(-159.139 -91.669)" fill="#ffffe3"/>
          <path id="Path_936" data-name="Path 936" d="M183.359,100.286c0,3.8-4.852,6.887-10.852,6.887s-10.845-3.086-10.845-6.887,4.845-6.9,10.845-6.9S183.359,96.47,183.359,100.286Z" transform="translate(-142.858 -80.601)" fill="#ae6cb2"/>
          <path id="Path_937" data-name="Path 937" d="M169.712,96.117c0,1.342-1.7,2.422-3.816,2.422-2.094,0-3.8-1.081-3.8-2.422s1.707-2.407,3.8-2.407C168.013,93.71,169.712,94.783,169.712,96.117Z" transform="translate(-140.064 -78.497)" fill="#f99fc5"/>
        </g>
      </g>
      <g id="Group_1791" data-name="Group 1791" transform="translate(734.496 154.699)">
        <path id="Path_938" data-name="Path 938" d="M263.639,106.887c1.215-1.267,4.353-3.6,4.42-5.486.171-4.644-7.237-2.579-9.473-1.655a23.121,23.121,0,0,0-3.854,1.968,11.511,11.511,0,0,0,.1-1.588c-.089-3.831-1.819-8.042-6.231-5.68-2.609,1.4-3.98,4.137-4.427,7.073a10.652,10.652,0,0,0-4.248-2.907c-2.765-1.058-6.656-2.012-8.572.865-1.3,1.938.753,4.822,1.841,6.306.074.1.171.186.246.291-3.712-.134-7.148.827-8.221,3.876-1.617,4.584,3.3,6.067,8.482,6.112-2.758,1.617-4.569,3.794-3.183,6.432,1.834,3.5,8.281.812,10.614-.276a30.056,30.056,0,0,0,5.6-3.287c3.652,4.085,9.369,6.85,14.355,3.7,2.981-1.878,1.729-4.919-.641-7.543,1.073-.06,2.05-.157,2.773-.231,2.117-.2,7.133-.514,7.573-3.719C271.338,107.238,266.195,107.514,263.639,106.887Z" transform="translate(-223.683 -92.709)" fill="#009345" opacity="0.4" style="mix-blend-mode: multiply;isolation: isolate"/>
        <g id="Group_1790" data-name="Group 1790">
          <path id="Path_939" data-name="Path 939" d="M263.471,106.756c1.222-1.267,4.353-3.607,4.42-5.493.172-4.636-7.23-2.571-9.466-1.662a22.788,22.788,0,0,0-3.868,1.983,10.584,10.584,0,0,0,.112-1.6c-.089-3.824-1.818-8.042-6.231-5.672a9.236,9.236,0,0,0-4.42,7.066,10.492,10.492,0,0,0-4.241-2.9c-2.78-1.066-6.648-2.027-8.586.857-1.3,1.938.76,4.822,1.848,6.306.067.1.164.209.239.306-3.7-.157-7.14.812-8.221,3.868-1.61,4.584,3.317,6.052,8.482,6.112-2.758,1.625-4.561,3.794-3.183,6.447,1.841,3.5,8.281.805,10.621-.276a30.63,30.63,0,0,0,5.6-3.3c3.652,4.077,9.361,6.85,14.348,3.689,2.989-1.878,1.737-4.919-.641-7.528,1.073-.067,2.065-.171,2.78-.246,2.109-.209,7.118-.514,7.573-3.689C271.17,107.1,266.035,107.39,263.471,106.756Z" transform="translate(-224.745 -93.622)" fill="#ffffe3"/>
          <path id="Path_940" data-name="Path 940" d="M243.492,100.287c0,2.959-3.749,5.352-8.393,5.352s-8.4-2.393-8.4-5.352c0-2.937,3.757-5.337,8.4-5.337S243.492,97.35,243.492,100.287Z" transform="translate(-212.138 -85.05)" fill="#ae6cb2"/>
          <path id="Path_941" data-name="Path 941" d="M232.937,97.073c0,1.043-1.327,1.878-2.952,1.878s-2.951-.835-2.951-1.878c0-1.021,1.327-1.871,2.951-1.871S232.937,96.052,232.937,97.073Z" transform="translate(-209.976 -83.424)" fill="#f99fc5"/>
        </g>
      </g>
      <g id="Group_1792" data-name="Group 1792" transform="translate(284.037 46.23)" style="mix-blend-mode: multiply;isolation: isolate">
        <path id="Path_942" data-name="Path 942" d="M241.193,95.9a39.387,39.387,0,0,1,4.323,2.333,1.22,1.22,0,0,1,.291.335,21.471,21.471,0,0,1-3.935-.835c-.455-.335-.88-.648-1.245-.909-.812-.574-1.61-1.17-2.422-1.737,2.84-1.737,5.4-1.565,8.467-1.193a10.935,10.935,0,0,0-4.852-3.026,22.964,22.964,0,0,0-3.615-1.789.487.487,0,0,1,.224-.634c5.173-2.653,10.472-1.282,15.488.924a37.6,37.6,0,0,0-9.69-10.07c-1.088-1.349-2.214-2.661-3.242-4.062a.547.547,0,0,1,.239-.186c4.278-2.035,11.6,1.729,14.967,4.293a23.956,23.956,0,0,1,7.327,8.437c.358-2.355.619-4.7.82-7.133.32-3.868-1.148-7.155-1.289-10.89a.664.664,0,0,1,.157-.529,19.694,19.694,0,0,1,4.643,5.9,60.79,60.79,0,0,1,1.968,6.216,23.429,23.429,0,0,1,.79,4.778,38.3,38.3,0,0,1-2.549,9.563c.127-1.275.209-2.549.261-3.831a22.95,22.95,0,0,0,.611-7.371,32.175,32.175,0,0,0-3.645-11.605c.537,2.393,1.438,4.77,1.282,7.237-.238,4.256-.343,8.378-1.662,12.455-.35,1.111-1.856-.686-1.938-1.2-.783-5.143-4.532-8.691-8.631-11.411a20.925,20.925,0,0,0-7.312-2.892c-.194-.045-4.785-1.043-2.7.4a40.254,40.254,0,0,1,12.313,13.55c.261.492.239,1.6-.626,1.2-4.166-2-8.735-3.853-13.23-2.885a14.792,14.792,0,0,1,6.552,5.6c.388.574.179,1.409-.611,1.193C246.023,95.329,243.593,95.024,241.193,95.9Z" transform="translate(260.352 -69.227)" fill="#49892c"/>
        <path id="Path_943" data-name="Path 943" d="M285.852,100.1a35.9,35.9,0,0,1,5.1,3.57,24.024,24.024,0,0,1,3.384,4.569c-5.866-2.609-13.729-1.066-19.6,2.311a9.478,9.478,0,0,1,3.779-.224c4.375.783,8.013,2.855,11.635,5.322-.477-.231-.969-.4-1.453-.619a31.047,31.047,0,0,0-7.208-2.407c-4.435-.88-8.728-.514-13.125-.634a.694.694,0,0,1,.246-.551c5.463-4.837,14.162-7.662,21.593-6.3-1.155-.909-2.325-1.8-3.593-2.624-2.3-1.491-4.994-2.139-7.088-3.824-.477-.388-.775-1.148-.052-1.431,6.79-2.735,15.138-.41,20.273,4.681.075-2.445.194-4.852.365-7.282a22.43,22.43,0,0,1,1.774-3.936,2.462,2.462,0,0,1,.85.7,25.265,25.265,0,0,1,2.534,7.029c.32,1.394.313,3.183.574,4.793a23.334,23.334,0,0,1,6.559-5.5A21.655,21.655,0,0,1,322.635,98c-2.907,1.043-5.463,1.863-7.223,4.01a24.158,24.158,0,0,1,9.391-1.438,26.917,26.917,0,0,1,9.235,2.564,14.933,14.933,0,0,1,3.041,2.758,18.284,18.284,0,0,0-8.147-.238,23.435,23.435,0,0,0-5.173,1.1,13.111,13.111,0,0,0-2.444,1.133c-.1.045-.209.075-.291.119a28.4,28.4,0,0,0-6.656,3.63,20.66,20.66,0,0,1,8.072-6.5,19.173,19.173,0,0,1,9.078-1.356,29.2,29.2,0,0,0-9.317-1.513c-3.272-.015-5.657,1.729-8.594,2.564-.827.231-2.161-.663-1.841-1.573a9.782,9.782,0,0,1,1.908-3.384,26.7,26.7,0,0,0-7.021,6.44c-.619.783-1.849-.052-2.229-.678-1.409-2.318-1.662-5.232-2.072-8.094-.157,2.467-.239,4.957-.321,7.483-.03,1.051-1.8.171-2.08-.224a16.463,16.463,0,0,0-17.448-6.157C283.638,99.158,284.92,99.59,285.852,100.1Z" transform="translate(331.166 -47.471)" fill="#49892c"/>
        <path id="Path_944" data-name="Path 944" d="M188.787,102.373a36.85,36.85,0,0,1,5.091,3.563,24.066,24.066,0,0,1,3.384,4.6c-5.873-2.639-13.722-1.1-19.6,2.288a9.5,9.5,0,0,1,3.786-.216c4.368.8,8.005,2.847,11.627,5.322-.477-.224-.962-.417-1.453-.6a29.032,29.032,0,0,0-7.2-2.407c-4.435-.9-8.728-.522-13.133-.634a.694.694,0,0,1,.261-.574c5.471-4.837,14.147-7.677,21.585-6.276-1.163-.917-2.333-1.826-3.607-2.653-2.281-1.483-4.986-2.132-7.073-3.816-.462-.38-.775-1.133-.074-1.416,6.8-2.743,15.168-.417,20.3,4.658.082-2.437.171-4.83.373-7.267a19.884,19.884,0,0,1,1.767-3.95,2.869,2.869,0,0,1,.842.708,25.164,25.164,0,0,1,2.519,7.029c.336,1.386.321,3.175.6,4.807a23.16,23.16,0,0,1,6.559-5.508,21.594,21.594,0,0,1,10.226.246c-2.892,1.043-5.456,1.871-7.215,4.017a23.717,23.717,0,0,1,9.376-1.439,26.848,26.848,0,0,1,9.242,2.549,15.268,15.268,0,0,1,3.048,2.765,18.76,18.76,0,0,0-8.154-.239,23.954,23.954,0,0,0-5.158,1.111,12.51,12.51,0,0,0-2.452,1.125,3.218,3.218,0,0,0-.306.119,27.763,27.763,0,0,0-6.634,3.645,20.691,20.691,0,0,1,8.057-6.507,19.138,19.138,0,0,1,9.086-1.357,28.846,28.846,0,0,0-9.309-1.513c-3.279-.015-5.665,1.722-8.609,2.557-.82.238-2.154-.663-1.834-1.573a9.677,9.677,0,0,1,1.916-3.361,26.188,26.188,0,0,0-7.029,6.432c-.626.768-1.841-.06-2.229-.693-1.424-2.318-1.662-5.217-2.072-8.094-.164,2.467-.246,4.934-.328,7.483-.022,1.058-1.8.194-2.087-.224a16.5,16.5,0,0,0-17.434-6.157C186.574,101.434,187.856,101.859,188.787,102.373Z" transform="translate(-83.286 23.121)" fill="#49892c"/>
      </g>
      <g id="Group_1795" data-name="Group 1795" transform="translate(131.315 123.986)">
        <g id="Group_1793" data-name="Group 1793">
          <path id="Path_945" data-name="Path 945" d="M162.341,124.754s-12.06-12.38-27.25-5.121c5.911-18.112,27.943-10.07,27.943-10.07s-1.289-7.588-7.655-8.527c7.729-5.538,14.855,5.94,14.855,5.94s-.1-13.081,8.378-19.319c-.544,10.927,1.409,15.988,1.409,15.988a28.769,28.769,0,0,1,21.049-16.032c-9.056,10.629-7.409,16.234-7.409,16.234s4.107-11.508,19.774-12.38c-16.972,17.173-15.317,22.778-15.317,22.778s-10.249,1.908-17.262,6.417l3.593-4.487S177.911,116.369,162.341,124.754Z" transform="translate(-134.512 -87.031)" fill="url(#linear-gradient-7)"/>
          <path id="Path_946" data-name="Path 946" d="M162.842,125.824a.593.593,0,0,1-.41-.164c-.067-.082-7.178-7.222-17.083-7.222a21.908,21.908,0,0,0-9.518,2.221.56.56,0,0,1-.626-.082.585.585,0,0,1-.164-.611c3.309-10.137,11.531-12.254,17.844-12.254a35.162,35.162,0,0,1,9.839,1.491c-.589-2-2.378-6.41-6.917-7.088a.571.571,0,0,1-.492-.44.6.6,0,0,1,.216-.6,8.12,8.12,0,0,1,4.74-1.617c4.524,0,8.258,4.077,9.958,6.328.283-3.839,1.692-13.044,8.534-18.067a.566.566,0,0,1,.626-.06.6.6,0,0,1,.291.537,50.089,50.089,0,0,0,.991,14.363,29.6,29.6,0,0,1,20.8-15.011A.587.587,0,0,1,202,88.5c-5.508,6.462-6.969,11.024-7.3,13.5,2.1-3.458,7.565-9.958,19.2-10.6a.575.575,0,0,1,.44.984c-16.278,16.45-15.19,22.129-15.175,22.189a.55.55,0,0,1-.06.462.64.64,0,0,1-.388.276c-.089.015-10.234,1.938-17.054,6.335a.588.588,0,0,1-.738-.1.566.566,0,0,1-.022-.738l2.691-3.369c-2.639.5-9.175,2.221-20.49,8.3A.583.583,0,0,1,162.842,125.824Zm-17.493-8.557c9.324,0,16.07,5.843,17.6,7.282,15.235-8.162,21.712-8.445,21.973-8.46a.65.65,0,0,1,.537.328.555.555,0,0,1-.075.619l-1.67,2.124a61.209,61.209,0,0,1,14.3-4.889c.015-1.863,1.3-8.057,14.445-21.593-13.863,1.453-17.71,11.762-17.762,11.866a.57.57,0,0,1-.544.38.587.587,0,0,1-.537-.41c-.067-.239-1.506-5.568,6.477-15.518a28.516,28.516,0,0,0-19.036,15.369.543.543,0,0,1-.537.35.567.567,0,0,1-.529-.365c-.074-.2-1.848-4.9-1.506-14.952-7.155,6.246-7.17,17.963-7.17,18.082a.559.559,0,0,1-.41.544.566.566,0,0,1-.656-.239c-.045-.075-4.517-7.17-9.973-7.17a6.5,6.5,0,0,0-2.892.693c5.486,1.789,6.708,8.579,6.723,8.653a.557.557,0,0,1-.2.544.528.528,0,0,1-.567.089,34.785,34.785,0,0,0-10.45-1.729c-8.147,0-13.618,3.414-16.3,10.2A23.106,23.106,0,0,1,145.349,117.268Z" transform="translate(-135.013 -87.535)" fill="#009345"/>
        </g>
        <g id="Group_1794" data-name="Group 1794" transform="translate(0.579 0.582)" opacity="0.9" style="mix-blend-mode: multiply;isolation: isolate">
          <path id="Path_947" data-name="Path 947" d="M143.08,105.455c.8-1.356,1.148-1.945,1.3-2.191-.4-1.282-1.752-6.306-1.282-15.645-.276.2-.514.388-.753.589C140.568,92.479,139.226,98.986,143.08,105.455Z" transform="translate(-99.574 -87.574)" fill="url(#linear-gradient-8)"/>
          <path id="Path_948" data-name="Path 948" d="M143.691,106.657c.425-1.379.708-2.355.917-3.034-.194-1.14-.552-6.611,7.461-16.01-.291.06-.574.119-.865.186C146.121,90.572,140.307,96.177,143.691,106.657Z" transform="translate(-86.09 -87.613)" fill="url(#linear-gradient-9)"/>
          <path id="Path_949" data-name="Path 949" d="M196.217,108.963l-1.856-3.16-5.9,5.15,3.2-5.9c-10.263,1.8-15.965,6.559-15.965,6.559l2.914-7.953s-10.017,4.785-10.658,9.921a15.924,15.924,0,0,0-12-5.135l4.658,5.568c-9.63-4.986-18.768-2.75-24.529-.2a25.489,25.489,0,0,0-.991,2.489c15.19-7.26,27.25,5.121,27.25,5.121,15.57-8.385,22.107-8.579,22.107-8.579l-3.593,4.487c7.014-4.509,17.262-6.417,17.262-6.417s-1.655-5.6,15.317-22.778c-.313.03-.634.06-.947.075C199.906,94.085,196.217,108.963,196.217,108.963Z" transform="translate(-135.091 -84.277)" fill="url(#linear-gradient-10)"/>
          <path id="Path_950" data-name="Path 950" d="M138.73,89.337c-.3.179-.619.358-.917.574,5.381.8,7.118,6.343,7.543,8.027.447.246,1.528.909,4.2,2.482C148.814,93.265,143.373,90.44,138.73,89.337Z" transform="translate(-117.525 -76.487)" fill="url(#linear-gradient-11)"/>
        </g>
        <path id="Path_951" data-name="Path 951" d="M160.43,92.783c-7.93-4.234-19.185-3.19-24.872,4.219-.06.075-.052.4.075.246,6.3-7.275,16.316-7.222,24.567-3.689C160.445,93.678,160.691,92.91,160.43,92.783Z" transform="translate(-131.73 -69.677)" fill="#fff"/>
        <path id="Path_952" data-name="Path 952" d="M147.979,94c-2.176-2.929-5.821-5.307-9.585-4.666-.134.03-.224.447-.067.417,3.861-.365,6.812,2.258,9.421,4.733C147.92,94.644,148.076,94.137,147.979,94Z" transform="translate(-114.166 -76.583)" fill="#fff"/>
        <path id="Path_953" data-name="Path 953" d="M145.282,87.9a18.124,18.124,0,0,0-4.852,16.629c.119.462.5-.253.462-.492A19.7,19.7,0,0,1,145.335,88.2C145.4,88.121,145.454,87.748,145.282,87.9Z" transform="translate(-102.994 -85.392)" fill="#fff"/>
        <path id="Path_954" data-name="Path 954" d="M157.853,87.741a29.31,29.31,0,0,0-11.464,6.5c-2.4,2.176-5.307,5.441-5.061,8.944.03.328.291.052.306-.149.38-3.906,3.324-6.82,6.179-9.227a38.389,38.389,0,0,1,3.548-2.639c2-1.334,4.33-1.983,6.447-3.071C157.9,88.054,157.987,87.711,157.853,87.741Z" transform="translate(-94.352 -86.219)" fill="#fff"/>
      </g>
      <g id="Group_1798" data-name="Group 1798" transform="translate(238.822 35.358)">
        <g id="Group_1796" data-name="Group 1796">
          <path id="Path_955" data-name="Path 955" d="M201.3,136.983s-17.689-22.141-43.65-12.732c12.577-28.614,47.227-11.935,47.227-11.935S204,99.738,193.757,97.162c13.529-7.8,23.288,12.1,23.288,12.1s1.963-21.373,16.785-30.169c-2.644,17.748-.262,26.3-.262,26.3s11.041-20.848,36.914-22.734c-16.494,15.852-14.706,25.28-14.706,25.28s8.573-18.136,34.271-17c-30.451,25.261-28.682,34.669-28.682,34.669s-17.029,1.477-29.207,7.688l6.58-6.726S228.047,125.815,201.3,136.983Z" transform="translate(-156.903 -78.349)" fill="url(#linear-gradient-12)"/>
          <path id="Path_956" data-name="Path 956" d="M201.969,138.4a.777.777,0,0,1-.593-.272c-.107-.155-12.032-14.783-30.218-14.783a36.606,36.606,0,0,0-12.577,2.294.728.728,0,0,1-.8-.224.7.7,0,0,1-.146-.8C162.6,113.343,171.79,107.4,184.279,107.4a54.968,54.968,0,0,1,20.333,4.345c-.544-3.159-2.673-11.245-10.351-13.189a.735.735,0,0,1-.573-.612.747.747,0,0,1,.369-.758,13.284,13.284,0,0,1,6.7-1.915c8.174,0,14.151,8.349,16.513,12.314.962-5.822,4.578-21.179,16.844-28.488a.85.85,0,0,1,.807.039.749.749,0,0,1,.33.729c-1.905,12.771-1.176,20.78-.661,24.162,3.344-5.074,14.88-19.867,36.516-21.451a.733.733,0,0,1,.748.437.764.764,0,0,1-.175.846c-10.789,10.39-13.617,17.952-14.307,21.771a33.157,33.157,0,0,1,5.608-6.113c4.947-4.218,13.879-9.253,27.768-8.67a.82.82,0,0,1,.69.525.793.793,0,0,1-.233.826c-29.421,24.4-28.429,33.862-28.42,33.96a.851.851,0,0,1-.146.583.788.788,0,0,1-.535.282c-.165.019-17.029,1.536-28.915,7.61a.754.754,0,0,1-.953-.2.733.733,0,0,1,.078-.982l5.287-5.423c-3.966.262-14.987,1.837-35.34,10.312A.781.781,0,0,1,201.969,138.4Zm-30.811-16.562c17.1,0,28.838,12.412,31.034,14.91,22.977-9.525,33.96-10.283,36.778-10.283a4.759,4.759,0,0,1,.5.019.824.824,0,0,1,.651.486.723.723,0,0,1-.175.787l-3.742,3.859c10.186-4.208,22.112-5.7,25.086-6,.214-2.789,2.916-12.674,27.428-33.3h-.282c-23.191,0-31.228,16.436-31.306,16.6a.743.743,0,0,1-.787.418.721.721,0,0,1-.622-.6c-.087-.379-1.565-9.4,13.413-24.473C245.453,87.042,235,106.218,234.879,106.4a.7.7,0,0,1-.739.4.757.757,0,0,1-.641-.554c-.087-.321-2.235-8.378.029-24.979-13.112,8.981-15.046,28.526-15.055,28.74a.766.766,0,0,1-1.438.262c-.068-.146-6.736-13.491-16.28-13.491a11.123,11.123,0,0,0-4.345.923c8.952,3.586,9.875,15.1,9.894,15.24a.793.793,0,0,1-.33.661.714.714,0,0,1-.758.039c-.087-.039-10.021-4.743-20.936-4.743-11.42,0-19.653,4.967-24.532,14.735A37.879,37.879,0,0,1,171.158,121.837Z" transform="translate(-157.572 -79.017)" fill="#009345"/>
        </g>
        <g id="Group_1797" data-name="Group 1797" transform="translate(0.746 0.745)" opacity="0.9" style="mix-blend-mode: multiply;isolation: isolate">
          <path id="Path_957" data-name="Path 957" d="M167.643,108.194c1.545-2.1,2.206-2.974,2.508-3.382-.457-2.138-1.847-10.584.408-25.718-.467.282-.9.544-1.312.846C165.67,86.607,162.4,97.017,167.643,108.194Z" transform="translate(-94.378 -79.094)" fill="url(#linear-gradient-13)"/>
          <path id="Path_958" data-name="Path 958" d="M168.269,109.173c.9-2.187,1.536-3.722,1.983-4.821-.117-1.9.165-10.866,14.754-24.891-.476.039-.943.1-1.419.136C174.839,83.3,164.439,91.513,168.269,109.173Z" transform="translate(-72.173 -75.894)" fill="url(#linear-gradient-14)"/>
          <path id="Path_959" data-name="Path 959" d="M258.576,111.53l-2.517-5.443L245.6,113.513l6.2-9.088c-17.058,1.244-27.117,8.087-27.117,8.087l6.026-12.5s-17.116,6.211-19.011,14.472a25.951,25.951,0,0,0-18.729-10.293l6.706,9.826c-14.91-9.7-30.2-7.523-40-4.267a34.562,34.562,0,0,0-2.031,3.888c25.961-9.408,43.65,12.732,43.65,12.732,26.748-11.168,37.439-10.41,37.439-10.41l-6.58,6.726c12.178-6.211,29.207-7.688,29.207-7.688s-1.769-9.408,28.682-34.669c-.515-.019-1.04-.019-1.536-.019C267,87.863,258.576,111.53,258.576,111.53Z" transform="translate(-157.649 -68.483)" fill="url(#linear-gradient-15)"/>
          <path id="Path_960" data-name="Path 960" d="M162.958,80.872c-.525.243-1.05.486-1.594.787,8.66,2.177,10.614,11.488,11.012,14.307.69.515,2.362,1.74,6.473,4.772C178.791,88.91,170.374,83.428,162.958,80.872Z" transform="translate(-125.256 -63.591)" fill="url(#linear-gradient-16)"/>
        </g>
        <path id="Path_961" data-name="Path 961" d="M199.621,87.884c-12.256-8.223-30.8-8.3-41.249,2.857-.117.117-.165.651.078.418C169.86,80.312,186.227,82,199.105,89.128,199.5,89.342,200.029,88.137,199.621,87.884Z" transform="translate(-151.443 -52.946)" fill="#fff"/>
        <path id="Path_962" data-name="Path 962" d="M177.115,89.964c-3.091-5.112-8.641-9.583-14.89-9.136-.214.039-.457.661-.185.661,6.366.019,10.75,4.792,14.618,9.243C176.9,91.023,177.261,90.2,177.115,89.964Z" transform="translate(-119.666 -63.502)" fill="#fff"/>
        <path id="Path_963" data-name="Path 963" d="M174.907,79.431c-7.533,6.211-12.023,16.581-10.614,26.359.117.778.846-.35.816-.729a32.387,32.387,0,0,1,9.826-25.134C175.062,79.791,175.179,79.188,174.907,79.431Z" transform="translate(-101.216 -75.907)" fill="#fff"/>
        <path id="Path_964" data-name="Path 964" d="M195.14,79.568a48.148,48.148,0,0,0-19.73,8.757c-4.267,3.149-9.535,8.019-9.71,13.743-.02.564.476.155.534-.175,1.244-6.318,6.531-10.575,11.576-14.083a61.068,61.068,0,0,1,6.2-3.7c3.47-1.856,7.387-2.546,11.032-3.966C195.188,80.083,195.373,79.539,195.14,79.568Z" transform="translate(-86.712 -74.226)" fill="#fff"/>
      </g>
    </g>
  </g>
</svg>
