<svg xmlns="http://www.w3.org/2000/svg" xmlns:xlink="http://www.w3.org/1999/xlink" width="423.7" height="231.062" viewBox="0 0 423.7 231.062">
  <defs>
    <radialGradient id="radial-gradient" cx="0.447" cy="-0.119" r="1.311" gradientTransform="matrix(0.544, -0.001, 0, 1, 0.203, 0)" gradientUnits="objectBoundingBox">
      <stop offset="0" stop-color="#00dc40"/>
      <stop offset="0.725" stop-color="#009640"/>
      <stop offset="1" stop-color="#005c40"/>
    </radialGradient>
    <linearGradient id="linear-gradient" x1="0.264" y1="0.091" x2="0.773" y2="1.129" gradientUnits="objectBoundingBox">
      <stop offset="0.002" stop-color="#e1f3e2"/>
      <stop offset="0.152" stop-color="#e1f2d9"/>
      <stop offset="0.388" stop-color="#e1f2c3"/>
      <stop offset="0.678" stop-color="#e1f19f"/>
      <stop offset="0.997" stop-color="#e1f070"/>
    </linearGradient>
    <linearGradient id="linear-gradient-2" x1="0.305" y1="0.15" x2="0.779" y2="1.209" xlink:href="#linear-gradient"/>
    <linearGradient id="linear-gradient-3" x1="0.307" y1="0.148" x2="0.78" y2="1.207" xlink:href="#linear-gradient"/>
    <linearGradient id="linear-gradient-4" x1="0.32" y1="0.152" x2="0.794" y2="1.211" xlink:href="#linear-gradient"/>
  </defs>
  <g id="Group_1813" data-name="Group 1813" transform="translate(-151.118 -45.519)">
    <g id="Group_1806" data-name="Group 1806" transform="translate(151.118 45.519)">
      <path id="Path_973" data-name="Path 973" d="M402.723,249.892s-42.707,46.57-75.025-.9c-1.884,20.9-27.575,22.852-31.377,6.7,0,0-1.781,16.122-17.364,15.091-15.6-1-8.2-16.34-8.2-16.34s-13.269,18.4-33.465,15.617-17.644-19.173-17.644-19.173S210.723,267.768,198.7,267c-12-.758-9.194-13.549-9.194-13.549s-15.583,16.886-32.714-5.085,9.692-39.1,22.463-28.373c-13.3-32.448,14.013-62.883,49.56-45.007-11.774-12.77-8.975-30.919,12.5-26.339-18.927-12.5-19.623-52.986,11.228-65.361,30.865-12.354,47.492-2.88,56.051,9.945-1.44-20.9,10.914-25.664,20.893-11.9-2.4-35.131,38.905-50.372,44.154-17.589,7.638-6.191,29.9-10.47,31.349,10.893,16.135-8.552,58.412-4.314,53.689,31.779,0,0,41.785-8.566,30.414,30.38,25.636-15.207,81.7,23.691,53.232,71.21,0,0,36.093-3.822,30.421,30.366s-63.606,45.635-101.624,13.371C453.095,285.951,418.906,280.286,402.723,249.892Z" transform="translate(-150.437 -44.849)" fill="url(#radial-gradient)"/>
      <path id="Path_974" data-name="Path 974" d="M439.135,276.581c-13.979,0-27.329-9.214-35.9-24.7-3.774,3.795-20.975,19.91-40.611,19.91h0c-12.825,0-24.169-6.73-33.731-20.005-1.884,11.05-10.429,16.1-17.985,16.1a14.581,14.581,0,0,1-13.746-8.573c-1.4,4.744-5.617,13.7-17.582,12.927-4.641-.294-7.829-1.877-9.447-4.662-1.645-2.8-1.372-6.232-.751-8.846-4.484,4.71-14.245,13.071-27.227,13.071a30.114,30.114,0,0,1-4.286-.314c-6.9-.942-11.979-3.556-15.1-7.754a17.382,17.382,0,0,1-3.29-9.187c-3.024,4.662-10.163,13.944-19.3,13.944-.273,0-.546-.014-.833-.027-3.618-.232-6.327-1.522-8.081-3.843-2.068-2.73-2.259-6.232-2.143-8.464a20.829,20.829,0,0,1-12.968,4.969c-6.825,0-13.3-3.9-19.3-11.6-5.863-7.5-7.283-15.344-4-22.06A20.213,20.213,0,0,1,170.519,216.6a15.621,15.621,0,0,1,7.774,1.959c-4.389-12.45-3.208-24.995,3.345-34.755a32.229,32.229,0,0,1,27.295-14.245,44.883,44.883,0,0,1,17.733,3.911c-4.553-6.232-6.088-13.405-3.795-18.634,2.321-5.3,8.109-7.774,16.1-6.825-7.8-6.825-12.088-19.064-10.8-31.6,1.57-15.412,10.586-27.5,24.77-33.179,9.644-3.863,18.51-5.829,26.333-5.829,12.115,0,22.121,4.8,29.1,13.883-.089-6.791,1.385-12.108,4.232-15.146a8.087,8.087,0,0,1,6.02-2.717c3.522,0,7.255,2.177,10.668,6.177-.13-9.829,3.133-18.763,9.29-25.363,5.194-5.535,11.828-8.723,18.231-8.723,9.214,0,15.91,6.518,18.074,17.5a27.778,27.778,0,0,1,14.852-4.43c9.549,0,15.555,5.631,16.634,15.494a42.194,42.194,0,0,1,17.187-3.324c12.668,0,23.671,4.266,30.189,11.7,5.372,6.122,7.563,14.074,6.525,23.671a53.617,53.617,0,0,1,8.1-.614c6.689,0,15.7,1.358,20.626,7.931,3.877,5.167,4.559,12.716,2.027,22.456a27.08,27.08,0,0,1,11.951-2.56c15.972,0,33.929,11.235,42.7,26.722,8.354,14.75,7.911,31.643-1.235,47.73.478-.027,1.038-.027,1.706-.027,6.006,0,17.05,1.14,23.6,8.859,4.553,5.378,6.054,12.955,4.464,22.558-3.242,19.494-24.073,33.11-50.652,33.11h-.007a80.8,80.8,0,0,1-51.505-18.654C463.966,268.452,452.315,276.581,439.135,276.581ZM403.4,249.764l.109.014a.765.765,0,0,1,.6.416C412.372,265.729,425.47,275,439.135,275c12.818,0,24.162-8.156,31.97-22.968a.813.813,0,0,1,.546-.4.779.779,0,0,1,.662.177,79.284,79.284,0,0,0,51.232,18.913h.007c25.8,0,45.983-13.084,49.089-31.807,1.522-9.112.13-16.265-4.109-21.261-6.136-7.235-16.654-8.313-22.387-8.313-1.85,0-3.037.116-3.051.116a.788.788,0,0,1-.758-1.194c9.556-15.958,10.252-32.789,1.966-47.423-8.511-15.023-25.889-25.916-41.328-25.916a24.61,24.61,0,0,0-12.8,3.235.808.808,0,0,1-.887-.055.78.78,0,0,1-.266-.846c2.949-10.1,2.505-17.794-1.3-22.879-4.532-6.02-13.023-7.29-19.357-7.29a50.616,50.616,0,0,0-8.846.778.787.787,0,0,1-.7-.184.772.772,0,0,1-.246-.689c1.256-9.61-.764-17.514-6.02-23.486-6.129-6.989-16.961-11.166-29-11.166-6.737,0-13.119,1.338-17.514,3.665a.739.739,0,0,1-.751,0,.818.818,0,0,1-.4-.642c-.894-13.221-9.87-15.187-15.152-15.187a25.806,25.806,0,0,0-14.914,4.846.789.789,0,0,1-.778.13.769.769,0,0,1-.5-.614c-1.754-10.921-8.013-17.432-16.736-17.432-5.966,0-12.183,2.983-17.064,8.225-6.375,6.825-9.494,16.272-8.791,26.626a.8.8,0,0,1-.519.805.817.817,0,0,1-.908-.28C326.078,77.728,322.105,75,318.618,75a6.491,6.491,0,0,0-4.867,2.218c-2.9,3.112-4.211,9.016-3.686,16.634a.79.79,0,0,1-1.447.491C301.813,84.151,291.951,79,279.269,79c-7.624,0-16.286,1.911-25.746,5.706-13.61,5.454-22.285,17.07-23.78,31.882-1.358,13.269,3.74,26.162,12.689,32.073a.8.8,0,0,1,.28.969.777.777,0,0,1-.894.471c-8.757-1.87-15.2.13-17.494,5.372-2.4,5.44-.082,13.323,5.74,19.651a.793.793,0,0,1,.055,1.01.827.827,0,0,1-1,.232,44.926,44.926,0,0,0-20.183-5.208,30.681,30.681,0,0,0-25.984,13.521c-6.668,9.952-7.5,22.961-2.287,35.69a.787.787,0,0,1-1.235.9,13.609,13.609,0,0,0-8.907-3.092,18.643,18.643,0,0,0-16.258,9.992c-3,6.143-1.638,13.385,3.829,20.388,5.686,7.283,11.753,10.982,18.06,10.982,7.87,0,13.392-5.884,13.446-5.938a.814.814,0,0,1,.942-.177.825.825,0,0,1,.409.887c-.014.055-1.2,5.7,1.577,9.378,1.454,1.925,3.781,3,6.907,3.2,11.4.73,20.115-15.548,20.2-15.7a.8.8,0,0,1,1.488.505,16.307,16.307,0,0,0,2.935,11.112c2.853,3.836,7.576,6.225,14.033,7.119a29.07,29.07,0,0,0,4.054.287h.014c17.2,0,28.537-15.412,28.646-15.576a.793.793,0,0,1,1.358.805c-.034.068-3.263,6.907-.669,11.337,1.344,2.314,4.109,3.624,8.2,3.891.444.027.9.041,1.331.041a13.79,13.79,0,0,0,12.688-7.174,20.708,20.708,0,0,0,2.5-7.262.82.82,0,0,1,.737-.71.788.788,0,0,1,.819.621A13,13,0,0,0,310.9,266.3c7.317,0,15.651-5.221,16.688-16.709a.762.762,0,0,1,.587-.682.749.749,0,0,1,.853.321c9.48,13.917,20.783,20.975,33.581,20.975h.007c21.446,0,40.024-19.964,40.2-20.162A.769.769,0,0,1,403.4,249.764Z" transform="translate(-151.118 -45.519)" fill="#0f6d43"/>
    </g>
    <g id="Group_1807" data-name="Group 1807" transform="translate(151.915 46.304)" opacity="0.8" style="mix-blend-mode: multiply;isolation: isolate">
      <path id="Path_975" data-name="Path 975" d="M542.324,208.011c28.469-47.519-27.6-86.417-53.232-71.21,11.371-38.946-30.414-30.38-30.414-30.38,4.723-36.093-37.554-40.332-53.689-31.779-1.447-21.364-23.712-17.084-31.349-10.893-5.249-32.783-46.55-17.541-44.154,17.589-9.979-13.767-22.333-9-20.893,11.9-8.559-12.825-25.186-22.3-56.051-9.945-30.851,12.375-30.155,52.856-11.228,65.361-5.713-1.215-10.088-.826-13.235.642,7.829-.027,16.934,1.365,23.562,6.668-33.288-75.967,41.745-75.06,65.511-52.283-6.662-24.688,6.634-25.657,18.988-9.522-9.528-44.638,32.264-43.7,31.336-7.6,10.429-24.715,34.189-17.125,27.554,10.416,26.578-34.2,57.934-13.323,50.351,21.828,20.9-3.829,15.214,19.93,15.214,19.93,34.2,2.833,17.132,52.228-13.282,21.848,24.729,37.028-18.934,78.855-35.131,21.876-2.812,46.55-61.7,62.726-83.564,19.05-20.872,43.7-33.254,4.778-33.254,4.778-15.159,42.741-55.054,36.127-55.068,7.631-58.091,18.79-64.152-6.006-60.9-26.483-4.437,9.057-5.017,20.681-.143,32.571-12.771-10.723-39.6,6.416-22.463,28.373s32.714,5.085,32.714,5.085S186.7,266.246,198.7,267c12.026.764,20.954-16.122,20.954-16.122s-2.539,16.374,17.644,19.173,33.465-15.617,33.465-15.617-7.4,15.337,8.2,16.34c15.583,1.031,17.364-15.091,17.364-15.091,3.8,16.156,29.493,14.2,31.377-6.7,32.318,47.471,75.025.9,75.025.9,16.183,30.394,50.372,36.059,68.4,1.857,38.018,32.264,95.946,20.825,101.624-13.371S542.324,208.011,542.324,208.011Z" transform="translate(-151.234 -45.634)" fill="#68aa2f"/>
    </g>
    <g id="Group_1808" data-name="Group 1808" transform="translate(153.899 109.323)" style="mix-blend-mode: multiply;isolation: isolate">
      <path id="Path_976" data-name="Path 976" d="M540.631,154.225c28.469-47.519-27.6-86.417-53.232-71.21,4.812-16.463.123-24.435-6.887-28.148,4.45,11.856,1.993,24.8-1.665,35.752,28.5-10.457,43.724,25.616,20.934,39.888,36.107,12.32-14.2,62.706-30.38,20.92-1.884,31.336-32.25,67.456-56.03,19.023-18.982,25.671-56,49.423-83.585,2.908-1.891,12.354-14.217,36.1-29.438,7.617-1.891,11.4-18.026,27.554-13.3-3.788-17.084,19.951-56.023,29.486-63.634,1.938-13.3,17.111-25.636,25.657-24.708,1.918-16.886,16.92-35.138,13.781-47.184,7.829a29.771,29.771,0,0,0,3.57,5.713c17.132,21.971,32.714,5.085,32.714,5.085S185,212.46,197,213.218c12.026.764,20.954-16.122,20.954-16.122s-2.539,16.374,17.644,19.173,33.465-15.617,33.465-15.617-7.4,15.337,8.2,16.34c15.583,1.031,17.364-15.091,17.364-15.091,3.8,16.156,29.493,14.2,31.377-6.7,32.318,47.471,75.025.9,75.025.9,16.183,30.394,50.372,36.059,68.4,1.857,38.018,32.264,95.946,20.825,101.624-13.371S540.631,154.225,540.631,154.225Z" transform="translate(-151.525 -54.867)" fill="#68aa2f"/>
    </g>
    <g id="Group_1809" data-name="Group 1809" transform="translate(230.812 167.764)">
      <path id="Path_977" data-name="Path 977" d="M188.856,81.045c6.552-2.723,8.511-8.184,6.969-11.371-1.781-3.693-7.515-1.966-9.808-.068-1.085.887-2.7,4.027-3.611,5.14-.2-1.8-.116-5.706-.819-7.3-1.331-2.955-5.392-5.385-8.409-3.126-4.805,3.6-3.119,10.429.642,14.47-5.965,1.515-13.576,5.344-10.19,11.248,2.7,4.764,9.228,1.5,13.153-1.706a32.028,32.028,0,0,0-3.187,6.061c-1.932,4.423,3.474,7.59,7.133,5.836,5.767-2.757,3.4-9.044,3.536-13.016.355.273,9.126,8.238,12.552,3.392C202.186,83,193.408,81.611,188.856,81.045Z" transform="translate(-162.794 -63.429)" fill="url(#linear-gradient)"/>
      <path id="Path_978" data-name="Path 978" d="M175.524,70.666A5.448,5.448,0,1,1,170,65.329,5.438,5.438,0,0,1,175.524,70.666Z" transform="translate(-152.096 -52.368)" fill="#f6bd66"/>
      <path id="Path_979" data-name="Path 979" d="M171.142,68.694a3.2,3.2,0,1,1-3.256-3.126A3.192,3.192,0,0,1,171.142,68.694Z" transform="translate(-151.42 -50.976)" fill="#f8f272"/>
    </g>
    <g id="Group_1810" data-name="Group 1810" transform="translate(340.505 172.318)">
      <path id="Path_980" data-name="Path 980" d="M197.991,79.677c5.071.13,7.958-2.867,7.87-5.413-.1-2.921-4.341-3.46-6.382-2.894-.983.266-2.949,1.863-3.87,2.314.4-1.242,1.59-3.768,1.59-5-.007-2.314-1.945-5.092-4.587-4.5-4.191.976-5.064,5.931-3.795,9.651-4.341-.724-10.422-.451-9.924,4.4.389,3.9,5.59,3.658,9.092,2.723a22.867,22.867,0,0,0-3.85,3.01c-2.539,2.348.068,5.979,2.962,5.9,4.58-.116,4.853-4.928,6.109-7.474.143.273,3.563,8.04,7.221,5.856C206.141,84.83,200.81,81.383,197.991,79.677Z" transform="translate(-178.865 -64.096)" fill="url(#linear-gradient-2)"/>
      <path id="Path_981" data-name="Path 981" d="M187.773,70.954a3.9,3.9,0,1,1-2.061-5.105A3.889,3.889,0,0,1,187.773,70.954Z" transform="translate(-170.564 -55.681)" fill="#f6bd66"/>
      <path id="Path_982" data-name="Path 982" d="M184.809,68.841a2.288,2.288,0,1,1-1.208-3.01A2.3,2.3,0,0,1,184.809,68.841Z" transform="translate(-169.853 -55.028)" fill="#f8f272"/>
    </g>
    <g id="Group_1811" data-name="Group 1811" transform="translate(281.043 115.259)">
      <path id="Path_983" data-name="Path 983" d="M189.285,71.3c5.071.143,7.952-2.867,7.863-5.4-.089-2.935-4.341-3.474-6.382-2.894-.983.259-2.955,1.843-3.863,2.3.389-1.235,1.577-3.754,1.577-5.01,0-2.307-1.938-5.085-4.573-4.478-4.191.956-5.078,5.918-3.8,9.638-4.327-.737-10.416-.444-9.924,4.389.389,3.9,5.6,3.658,9.105,2.717a21.968,21.968,0,0,0-3.849,3.03c-2.553,2.327.061,5.979,2.955,5.884,4.58-.123,4.86-4.928,6.1-7.474.15.266,3.577,8.04,7.214,5.863C197.435,76.455,192.1,73.015,189.285,71.3Z" transform="translate(-170.153 -55.737)" fill="url(#linear-gradient-3)"/>
      <path id="Path_984" data-name="Path 984" d="M179.072,62.6A3.9,3.9,0,1,1,177,57.494,3.915,3.915,0,0,1,179.072,62.6Z" transform="translate(-161.85 -47.342)" fill="#f6bd66"/>
      <path id="Path_985" data-name="Path 985" d="M176.1,60.482a2.3,2.3,0,1,1-1.215-3.01A2.3,2.3,0,0,1,176.1,60.482Z" transform="translate(-161.14 -46.678)" fill="#f8f272"/>
    </g>
    <g id="Group_1812" data-name="Group 1812" transform="translate(367.957 83.45)">
      <path id="Path_986" data-name="Path 986" d="M208.3,71.749c6.723.184,10.559-3.8,10.45-7.167-.136-3.9-5.781-4.607-8.5-3.856-1.283.369-3.9,2.457-5.112,3.065.519-1.631,2.109-4.983,2.1-6.655-.007-3.065-2.6-6.757-6.088-5.945-5.569,1.27-6.737,7.856-5.03,12.8-5.754-.969-13.835-.594-13.194,5.829.532,5.194,7.447,4.873,12.088,3.611a30.388,30.388,0,0,0-5.112,4.013c-3.379,3.106.089,7.938,3.938,7.829,6.082-.171,6.437-6.552,8.1-9.917.211.348,4.737,10.655,9.59,7.767C219.1,78.594,212.033,74.008,208.3,71.749Z" transform="translate(-182.887 -51.076)" fill="url(#linear-gradient-4)"/>
      <path id="Path_987" data-name="Path 987" d="M194.717,60.188A5.178,5.178,0,1,1,191.98,53.4,5.172,5.172,0,0,1,194.717,60.188Z" transform="translate(-171.857 -39.925)" fill="#f6bd66"/>
      <path id="Path_988" data-name="Path 988" d="M190.78,57.372a3.039,3.039,0,1,1-1.618-3.986A3.05,3.05,0,0,1,190.78,57.372Z" transform="translate(-170.909 -39.047)" fill="#f8f272"/>
    </g>
    <path id="Path_989" data-name="Path 989" d="M228.741,64.291C218.933,47.432,194.02,49.643,180,59.076c-18.647,12.532-18.695,37.212-8.573,55.409.355.614,1.44-.846,1.188-1.392-4.607-10.033-7.228-21.125-5.522-32.175,1.467-9.508,8.122-16.681,16.32-21.084a38.744,38.744,0,0,1,22.756-4.013c8.4,1,14.566,5.57,20.538,11.18C227.546,67.779,229.225,65.11,228.741,64.291Z" transform="translate(79.004 36.542)" fill="#00dc40"/>
    <path id="Path_990" data-name="Path 990" d="M196.29,63.141c-2.307-8.491-14.19-17.282-20.879-8.211-.491.662-.048,1.44.594.676,6.129-7.371,15.767,4.252,18.135,9.692C194.6,66.39,196.508,63.974,196.29,63.141Z" transform="translate(140.299 32.504)" fill="#00dc40"/>
    <path id="Path_991" data-name="Path 991" d="M179.484,50.9c-.4.3-.881,1.911-.007,1.372,13.624-8.491,27.049,11.631,22.517,23.869-.621,1.686,1.351.662,1.747-.218C210.151,61.967,194.412,39.771,179.484,50.9Z" transform="translate(162.347 13.768)" fill="#00dc40"/>
    <path id="Path_992" data-name="Path 992" d="M205.148,71.206c-17.726-16.729-48.652-3.065-49.464,21-.061,2.054,2.259-.4,2.389-1.4C161.083,68.408,186.6,60.484,204,72.974,204.6,73.4,205.68,71.725,205.148,71.206Z" transform="translate(26.595 106.576)" fill="#00dc40"/>
    <path id="Path_993" data-name="Path 993" d="M216.1,56.553c-7.911-8.518-18.5-5.433-26.2,1.618-.375.369-.655,1.6.116.983,6.935-5.542,15.6-7.508,22.7-1.235,7.255,6.4,7.337,18.033,3.938,26.312-.805,1.979,1.14,1.495,1.74.123C222.24,75.616,223.093,64.108,216.1,56.553Z" transform="translate(223.789 34.219)" fill="#00dc40"/>
  </g>
</svg>
