<svg id="Group_1862" data-name="Group 1862" xmlns="http://www.w3.org/2000/svg" xmlns:xlink="http://www.w3.org/1999/xlink" width="438.465" height="239.114" viewBox="0 0 438.465 239.114">
  <defs>
    <radialGradient id="radial-gradient" cx="0.447" cy="-0.119" r="1.311" gradientTransform="matrix(0.544, -0.001, 0, 1, 0.203, 0)" gradientUnits="objectBoundingBox">
      <stop offset="0" stop-color="#a7d82b"/>
      <stop offset="0.725" stop-color="#91c41a"/>
      <stop offset="1" stop-color="#55920c"/>
    </radialGradient>
    <linearGradient id="linear-gradient" x1="0.264" y1="0.091" x2="0.773" y2="1.129" gradientUnits="objectBoundingBox">
      <stop offset="0.002" stop-color="#e1f3e2"/>
      <stop offset="0.152" stop-color="#e1f2d9"/>
      <stop offset="0.388" stop-color="#e1f2c3"/>
      <stop offset="0.678" stop-color="#e1f19f"/>
      <stop offset="0.997" stop-color="#e1f070"/>
    </linearGradient>
    <linearGradient id="linear-gradient-2" x1="0.305" y1="0.15" x2="0.779" y2="1.209" xlink:href="#linear-gradient"/>
    <linearGradient id="linear-gradient-3" x1="0.307" y1="0.148" x2="0.78" y2="1.207" xlink:href="#linear-gradient"/>
    <linearGradient id="linear-gradient-4" x1="0.32" y1="0.152" x2="0.794" y2="1.211" xlink:href="#linear-gradient"/>
  </defs>
  <g id="Group_1806" data-name="Group 1806" transform="translate(0 0)">
    <path id="Path_973" data-name="Path 973" d="M411.487,257.01s-44.2,48.193-77.64-.932c-1.95,21.628-28.536,23.648-32.47,6.929,0,0-1.843,16.684-17.969,15.617-16.14-1.038-8.483-16.91-8.483-16.91s-13.731,19.043-34.631,16.161-18.259-19.841-18.259-19.841-9.239,17.475-21.684,16.684c-12.417-.784-9.514-14.021-9.514-14.021s-16.126,17.475-33.854-5.262,10.03-40.459,23.245-29.362c-13.766-33.579,14.5-65.074,51.287-46.575-12.184-13.215-9.288-32,12.94-27.257C224.867,139.3,224.147,97.408,256.073,84.6c31.94-12.785,49.147-2.981,58,10.291-1.49-21.628,11.294-26.558,21.621-12.311-2.479-36.355,40.261-52.127,45.693-18.2,7.9-6.406,30.944-10.835,32.442,11.273,16.7-8.85,60.448-4.464,55.56,32.887,0,0,43.242-8.864,31.474,31.439,26.53-15.737,84.548,24.517,55.087,73.691,0,0,37.351-3.955,31.481,31.425s-65.823,47.225-105.166,13.837C463.614,294.326,428.234,288.463,411.487,257.01Z" transform="translate(-150.409 -44.822)" fill="url(#radial-gradient)"/>
    <path id="Path_974" data-name="Path 974" d="M449.171,284.633c-14.466,0-28.281-9.535-37.153-25.562-3.906,3.927-21.706,20.6-42.027,20.6h0c-13.272,0-25.011-6.964-34.907-20.7-1.949,11.435-10.793,16.662-18.612,16.662a15.089,15.089,0,0,1-14.226-8.871c-1.448,4.909-5.813,14.176-18.2,13.378-4.8-.3-8.1-1.942-9.776-4.824-1.7-2.9-1.42-6.449-.777-9.154-4.641,4.874-14.741,13.526-28.176,13.526a31.163,31.163,0,0,1-4.436-.325c-7.141-.975-12.4-3.68-15.631-8.024a17.987,17.987,0,0,1-3.4-9.507c-3.129,4.824-10.517,14.43-19.968,14.43-.283,0-.565-.014-.862-.028-3.744-.24-6.548-1.575-8.363-3.977-2.14-2.825-2.338-6.449-2.218-8.759a21.556,21.556,0,0,1-13.42,5.142c-7.063,0-13.766-4.04-19.975-12-6.067-7.763-7.537-15.878-4.139-22.829a20.918,20.918,0,0,1,18.287-11.252,16.165,16.165,0,0,1,8.045,2.027c-4.542-12.884-3.32-25.866,3.461-35.966a33.353,33.353,0,0,1,28.246-14.741,46.448,46.448,0,0,1,18.351,4.047c-4.711-6.449-6.3-13.872-3.927-19.283,2.4-5.488,8.391-8.045,16.662-7.063-8.073-7.063-12.509-19.728-11.181-32.7,1.625-15.949,10.955-28.458,25.633-34.335,9.98-4,19.155-6.032,27.25-6.032,12.537,0,22.892,4.965,30.111,14.367-.092-7.028,1.434-12.53,4.379-15.673a8.369,8.369,0,0,1,6.23-2.811c3.645,0,7.508,2.253,11.04,6.392-.134-10.171,3.242-19.417,9.613-26.247,5.375-5.728,12.241-9.027,18.866-9.027,9.535,0,16.464,6.745,18.7,18.11a28.746,28.746,0,0,1,15.37-4.584c9.882,0,16.1,5.827,17.213,16.034a43.664,43.664,0,0,1,17.785-3.44c13.11,0,24.5,4.415,31.241,12.106,5.559,6.336,7.826,14.565,6.753,24.5a55.484,55.484,0,0,1,8.384-.636c6.922,0,16.245,1.406,21.345,8.208,4.012,5.347,4.718,13.159,2.1,23.238a28.024,28.024,0,0,1,12.368-2.649c16.528,0,35.112,11.626,44.188,27.653,8.646,15.264,8.186,32.745-1.279,49.394.495-.028,1.074-.028,1.766-.028,6.216,0,17.644,1.18,24.418,9.168,4.711,5.566,6.265,13.406,4.619,23.344-3.355,20.173-24.912,34.264-52.417,34.264h-.007a83.619,83.619,0,0,1-53.3-19.3C474.868,276.221,462.811,284.633,449.171,284.633ZM412.2,256.882l.113.014a.792.792,0,0,1,.622.431C421.476,273.4,435.031,283,449.171,283c13.265,0,25-8.441,33.084-23.768a.841.841,0,0,1,.565-.417.806.806,0,0,1,.685.184,82.047,82.047,0,0,0,53.017,19.572h.007c26.7,0,47.586-13.54,50.8-32.915,1.575-9.43.134-16.832-4.252-22-6.35-7.487-17.234-8.6-23.168-8.6-1.914,0-3.143.12-3.157.12a.816.816,0,0,1-.784-1.236C565.857,197.423,566.578,180,558,164.861c-8.808-15.546-26.791-26.819-42.768-26.819a25.467,25.467,0,0,0-13.244,3.348.837.837,0,0,1-.918-.056.807.807,0,0,1-.276-.876c3.051-10.454,2.592-18.414-1.342-23.676-4.69-6.23-13.477-7.544-20.031-7.544a52.382,52.382,0,0,0-9.154.805.815.815,0,0,1-.727-.191.8.8,0,0,1-.254-.713c1.3-9.945-.791-18.124-6.23-24.3-6.343-7.233-17.552-11.556-30.012-11.556-6.972,0-13.576,1.384-18.125,3.793a.765.765,0,0,1-.777,0,.846.846,0,0,1-.417-.664c-.925-13.682-10.213-15.716-15.681-15.716-6.315,0-12.445,2.6-15.433,5.015a.817.817,0,0,1-.805.134.8.8,0,0,1-.516-.636c-1.815-11.3-8.292-18.04-17.319-18.04-6.174,0-12.608,3.087-17.658,8.511-6.6,7.063-9.825,16.839-9.1,27.554a.823.823,0,0,1-.537.833.846.846,0,0,1-.94-.29c-3.567-4.923-7.678-7.748-11.287-7.748a6.717,6.717,0,0,0-5.036,2.3c-3,3.221-4.358,9.331-3.814,17.213a.818.818,0,0,1-1.5.509c-7.042-10.546-17.249-15.878-30.372-15.878-7.89,0-16.853,1.978-26.643,5.9-14.084,5.644-23.062,17.665-24.609,32.993-1.405,13.731,3.871,27.074,13.131,33.19a.828.828,0,0,1,.29,1,.8.8,0,0,1-.925.487c-9.062-1.935-15.73.134-18.1,5.559-2.479,5.629-.085,13.788,5.94,20.335a.821.821,0,0,1,.056,1.045.856.856,0,0,1-1.038.24,46.492,46.492,0,0,0-20.886-5.389,31.75,31.75,0,0,0-26.89,13.992c-6.9,10.3-7.763,23.761-2.366,36.934a.815.815,0,0,1-1.278.932,14.084,14.084,0,0,0-9.218-3.2,19.293,19.293,0,0,0-16.825,10.341c-3.108,6.357-1.7,13.851,3.962,21.1C164.216,263.168,170.5,267,177.022,267c8.144,0,13.858-6.089,13.915-6.145a.842.842,0,0,1,.975-.184.853.853,0,0,1,.424.918c-.014.056-1.243,5.9,1.632,9.7,1.5,1.992,3.913,3.1,7.148,3.313,11.8.756,20.816-16.09,20.9-16.246a.823.823,0,0,1,1.54.523,16.876,16.876,0,0,0,3.037,11.5c2.952,3.97,7.84,6.442,14.522,7.367a30.086,30.086,0,0,0,4.2.3h.014c17.8,0,29.532-15.949,29.645-16.118a.82.82,0,0,1,1.406.833c-.035.071-3.376,7.148-.692,11.732,1.391,2.394,4.252,3.751,8.483,4.026.459.028.932.042,1.378.042a14.271,14.271,0,0,0,13.131-7.424,21.43,21.43,0,0,0,2.592-7.515.849.849,0,0,1,.763-.735.816.816,0,0,1,.848.643c1.5,6.35,6.844,10.461,13.6,10.461,7.572,0,16.2-5.4,17.27-17.291a.788.788,0,0,1,.608-.706.775.775,0,0,1,.883.332c9.811,14.4,21.508,21.706,34.751,21.706h.007c22.193,0,41.419-20.66,41.6-20.865A.8.8,0,0,1,412.2,256.882Z" transform="translate(-151.118 -45.519)" fill="#4c8f0a"/>
  </g>
  <g id="Group_1807" data-name="Group 1807" transform="translate(0.825 0.813)" opacity="0.8" style="mix-blend-mode: multiply;isolation: isolate">
    <path id="Path_975" data-name="Path 975" d="M555.953,213.67c29.461-49.175-28.557-89.429-55.087-73.691,11.767-40.3-31.474-31.439-31.474-31.439,4.888-37.351-38.862-41.737-55.56-32.887-1.5-22.108-24.538-17.679-32.442-11.273-5.432-33.925-48.172-18.153-45.693,18.2-10.327-14.247-23.111-9.316-21.621,12.311-8.857-13.272-26.064-23.076-58-10.291-31.926,12.806-31.206,54.7-11.619,67.638-5.912-1.257-10.44-.855-13.7.664,8.1-.028,17.524,1.413,24.383,6.9-34.448-78.615,43.2-77.675,67.794-54.1-6.894-25.548,6.866-26.551,19.65-9.853-9.86-46.194,33.388-45.226,32.428-7.869C385.8,62.4,410.392,70.256,403.526,98.757c27.5-35.394,59.953-13.788,52.106,22.589,21.628-3.963,15.744,20.625,15.744,20.625,35.387,2.931,17.729,54.048-13.745,22.61,25.59,38.318-19.594,81.6-36.355,22.638-2.91,48.172-63.845,64.912-86.476,19.714-21.6,45.226-34.413,4.944-34.413,4.944-15.687,44.23-56.973,37.386-56.987,7.9-60.116,19.445-66.388-6.216-63.026-27.406-4.591,9.373-5.192,21.4-.148,33.706-13.215-11.1-40.981,6.64-23.245,29.362s33.854,5.262,33.854,5.262-2.9,13.237,9.514,14.021c12.446.791,21.684-16.684,21.684-16.684s-2.627,16.945,18.259,19.841,34.631-16.161,34.631-16.161-7.657,15.871,8.483,16.91c16.126,1.067,17.969-15.617,17.969-15.617,3.934,16.719,30.521,14.7,32.47-6.929,33.445,49.125,77.64.932,77.64.932,16.747,31.453,52.127,37.315,70.781,1.921,39.343,33.388,99.289,21.55,105.166-13.837S555.953,213.67,555.953,213.67Z" transform="translate(-151.234 -45.634)" fill="#68aa2f"/>
  </g>
  <g id="Group_1808" data-name="Group 1808" transform="translate(2.878 66.028)" style="mix-blend-mode: multiply;isolation: isolate">
    <path id="Path_976" data-name="Path 976" d="M554.19,157.688C583.651,108.513,525.633,68.259,499.1,84c4.98-17.037.127-25.287-7.127-29.129,4.605,12.269,2.062,25.661-1.723,37,29.489-10.821,45.247,26.509,21.663,41.278,37.365,12.749-14.7,64.891-31.439,21.649-1.949,32.428-33.374,69.807-57.983,19.685-19.643,26.565-57.955,51.145-86.5,3.009-1.956,12.785-14.713,37.358-30.464,7.883-1.957,11.8-18.654,28.515-13.759-3.92-17.679,20.646-57.975,30.513-65.851,2.006-13.766,17.708-26.53,26.551-25.569,1.985-17.475,17.51-36.362,14.261-48.829,8.1a30.806,30.806,0,0,0,3.694,5.912c17.729,22.737,33.855,5.262,33.855,5.262s-2.9,13.237,9.514,14.021c12.446.791,21.684-16.684,21.684-16.684S217.645,219,238.531,221.893s34.631-16.161,34.631-16.161-7.657,15.871,8.483,16.91c16.126,1.067,17.969-15.617,17.969-15.617,3.934,16.719,30.521,14.7,32.47-6.929,33.445,49.125,77.64.932,77.64.932,16.747,31.453,52.127,37.315,70.781,1.921,39.343,33.388,99.289,21.55,105.166-13.837S554.19,157.688,554.19,157.688Z" transform="translate(-151.525 -54.867)" fill="#68aa2f"/>
  </g>
  <g id="Group_1809" data-name="Group 1809" transform="translate(82.472 126.505)">
    <path id="Path_977" data-name="Path 977" d="M189.764,81.659c6.781-2.818,8.808-8.469,7.212-11.768-1.844-3.821-7.777-2.034-10.15-.071-1.123.918-2.79,4.167-3.736,5.319-.212-1.865-.12-5.9-.848-7.558-1.377-3.058-5.58-5.573-8.7-3.235-4.973,3.729-3.228,10.793.664,14.974-6.173,1.568-14.049,5.531-10.546,11.64,2.8,4.93,9.55,1.554,13.611-1.766a33.144,33.144,0,0,0-3.3,6.272c-2,4.577,3.6,7.854,7.381,6.039,5.968-2.854,3.518-9.359,3.659-13.47.367.283,9.444,8.525,12.989,3.51C203.559,83.679,194.475,82.245,189.764,81.659Z" transform="translate(-162.794 -63.429)" fill="url(#linear-gradient)"/>
    <path id="Path_978" data-name="Path 978" d="M175.9,70.853a5.638,5.638,0,1,1-5.721-5.523A5.628,5.628,0,0,1,175.9,70.853Z" transform="translate(-151.66 -51.917)" fill="#f6bd66"/>
    <path id="Path_979" data-name="Path 979" d="M171.365,68.8A3.31,3.31,0,1,1,168,65.568,3.3,3.3,0,0,1,171.365,68.8Z" transform="translate(-150.956 -50.467)" fill="#f8f272"/>
  </g>
  <g id="Group_1810" data-name="Group 1810" transform="translate(196.844 99.849)">
    <path id="Path_980" data-name="Path 980" d="M198.658,80.219c5.248.134,8.236-2.967,8.144-5.6-.1-3.023-4.492-3.581-6.6-2.995-1.017.275-3.051,1.928-4,2.394.41-1.285,1.646-3.9,1.646-5.177-.007-2.394-2.013-5.269-4.747-4.662-4.337,1.01-5.241,6.138-3.927,9.988-4.492-.749-10.786-.466-10.27,4.549.4,4.04,5.785,3.786,9.408,2.818a23.66,23.66,0,0,0-3.984,3.115c-2.628,2.43.071,6.188,3.065,6.1,4.739-.12,5.022-5.1,6.322-7.734.148.283,3.687,8.321,7.473,6.06C207.091,85.552,201.575,81.985,198.658,80.219Z" transform="translate(-178.865 -64.096)" fill="url(#linear-gradient-2)"/>
    <path id="Path_981" data-name="Path 981" d="M188.033,71.143a4.032,4.032,0,1,1-2.133-5.283A4.024,4.024,0,0,1,188.033,71.143Z" transform="translate(-170.225 -55.337)" fill="#f6bd66"/>
    <path id="Path_982" data-name="Path 982" d="M184.962,68.952a2.367,2.367,0,1,1-1.25-3.115A2.383,2.383,0,0,1,184.962,68.952Z" transform="translate(-169.485 -54.658)" fill="#f8f272"/>
  </g>
  <g id="Group_1811" data-name="Group 1811" transform="translate(134.453 72.17)">
    <path id="Path_983" data-name="Path 983" d="M189.952,71.844c5.248.148,8.229-2.967,8.137-5.587-.092-3.037-4.492-3.6-6.6-2.995-1.017.268-3.058,1.907-4,2.38.4-1.278,1.632-3.885,1.632-5.184,0-2.387-2.006-5.262-4.732-4.634-4.337.989-5.255,6.124-3.934,9.973-4.478-.763-10.779-.459-10.27,4.542.4,4.04,5.792,3.786,9.422,2.811a22.734,22.734,0,0,0-3.984,3.136c-2.642,2.409.064,6.187,3.058,6.089,4.739-.127,5.029-5.1,6.315-7.734.155.275,3.7,8.321,7.466,6.067C198.386,77.177,192.869,73.617,189.952,71.844Z" transform="translate(-170.153 -55.737)" fill="url(#linear-gradient-3)"/>
    <path id="Path_984" data-name="Path 984" d="M179.333,62.788a4.037,4.037,0,1,1-2.14-5.283A4.051,4.051,0,0,1,179.333,62.788Z" transform="translate(-161.511 -46.999)" fill="#f6bd66"/>
    <path id="Path_985" data-name="Path 985" d="M176.256,60.593A2.375,2.375,0,1,1,175,57.479,2.379,2.379,0,0,1,176.256,60.593Z" transform="translate(-160.772 -46.308)" fill="#f8f272"/>
  </g>
  <g id="Group_1812" data-name="Group 1812" transform="translate(224.396 39.253)">
    <path id="Path_986" data-name="Path 986" d="M209.185,72.469c6.957.191,10.927-3.934,10.814-7.416-.141-4.04-5.983-4.768-8.8-3.991-1.328.381-4.04,2.543-5.29,3.171.537-1.688,2.183-5.156,2.176-6.887-.007-3.171-2.691-6.993-6.3-6.152-5.764,1.314-6.971,8.13-5.206,13.244-5.954-1-14.317-.615-13.653,6.032.551,5.375,7.706,5.043,12.509,3.737a31.448,31.448,0,0,0-5.29,4.153c-3.5,3.214.092,8.215,4.075,8.1,6.293-.177,6.661-6.781,8.377-10.263.219.36,4.9,11.026,9.924,8.038C220.366,79.553,213.049,74.807,209.185,72.469Z" transform="translate(-182.887 -51.076)" fill="url(#linear-gradient-4)"/>
    <path id="Path_987" data-name="Path 987" d="M195.063,60.439a5.358,5.358,0,1,1-2.832-7.021A5.352,5.352,0,0,1,195.063,60.439Z" transform="translate(-171.406 -39.47)" fill="#f6bd66"/>
    <path id="Path_988" data-name="Path 988" d="M190.983,57.519a3.145,3.145,0,1,1-1.674-4.125A3.156,3.156,0,0,1,190.983,57.519Z" transform="translate(-170.42 -38.556)" fill="#f8f272"/>
  </g>
  <path id="Path_989" data-name="Path 989" d="M230.973,64.726c-10.15-17.446-35.931-15.158-50.439-5.4-19.3,12.968-19.346,38.509-8.872,57.34.367.636,1.49-.876,1.229-1.441-4.768-10.383-7.48-21.861-5.714-33.3,1.519-9.839,8.405-17.263,16.888-21.819a40.094,40.094,0,0,1,23.549-4.153c8.695,1.031,15.073,5.764,21.254,11.57C229.737,68.336,231.475,65.574,230.973,64.726Z" transform="translate(-68.888 -7.485)" fill="#bae027"/>
  <path id="Path_990" data-name="Path 990" d="M197.025,63.561c-2.387-8.787-14.685-17.884-21.607-8.5-.509.685-.049,1.49.615.7,6.343-7.628,16.316,4.4,18.767,10.03C195.273,66.923,197.251,64.423,197.025,63.561Z" transform="translate(-5.09 -11.688)" fill="#bae027"/>
  <path id="Path_991" data-name="Path 991" d="M179.5,51.009c-.417.311-.911,1.978-.007,1.42,14.1-8.787,27.992,12.036,23.3,24.7-.643,1.745,1.4.685,1.808-.226C211.237,62.458,194.949,39.488,179.5,51.009Z" transform="translate(17.858 -31.189)" fill="#bae027"/>
  <path id="Path_992" data-name="Path 992" d="M206.872,71.464c-18.343-17.312-50.347-3.171-51.188,21.727-.064,2.126,2.338-.41,2.472-1.448,3.115-23.175,29.525-31.375,47.529-18.449C206.3,73.738,207.423,72,206.872,71.464Z" transform="translate(-123.437 65.409)" fill="#bae027"/>
  <path id="Path_993" data-name="Path 993" d="M217.029,56.732c-8.186-8.815-19.149-5.622-27.109,1.674-.388.381-.678,1.66.12,1.017,7.176-5.735,16.14-7.77,23.493-1.278,7.508,6.625,7.593,18.661,4.075,27.229-.833,2.048,1.18,1.547,1.8.127C223.379,76.46,224.262,64.552,217.029,56.732Z" transform="translate(81.809 -9.903)" fill="#bae027"/>
</svg>
