<svg xmlns="http://www.w3.org/2000/svg" xmlns:xlink="http://www.w3.org/1999/xlink" width="512.028" height="434" viewBox="0 0 512.028 434">
  <defs>
    <radialGradient id="radial-gradient" cx="0.306" cy="0.125" r="0.948" gradientTransform="translate(0.076) scale(0.847 1)" gradientUnits="objectBoundingBox">
      <stop offset="0" stop-color="#00dc40"/>
      <stop offset="0.725" stop-color="#009640"/>
      <stop offset="1" stop-color="#005c40"/>
    </radialGradient>
  </defs>
  <g id="Group_1805" data-name="Group 1805" transform="translate(-102.408 -11.203)">
    <g id="Group_1801" data-name="Group 1801" transform="translate(102.408 11.203)">
      <path id="Path_965" data-name="Path 965" d="M613.052,11.408c-39.669-1.248-90.568,9.963-95.442,74.4-17.061-6.29-41.3,11.669-35.913,31.426-19.757-16.162-75.44,15.27-68.257,54.778-31.433-8.068-85.3,26.94-64.656,94.3-32.318-15.27-43.93,11.831-41.932,34.814-32.965-23.985-70.921,5.987-73.914,31.95-17.979-21.968-31.969-6-33.961,8-10.984-31.976-39.947-15.988-48.94,2.98-21.5-14.953-48.255-2.773-47.5,25.86,149,3.5,319.8,24.405,510.513,73.9Z" transform="translate(-101.774 -10.568)" fill="url(#radial-gradient)"/>
      <path id="Path_966" data-name="Path 966" d="M613.686,445.2a.884.884,0,0,1-.187-.013C439.526,400.032,267.823,375.168,103.154,371.3a.755.755,0,0,1-.731-.724c-.259-10.059,2.741-18.6,8.7-24.709a27.828,27.828,0,0,1,20.151-8.353,34.631,34.631,0,0,1,19.1,6.071c6.795-13.551,19.951-20.856,29.079-20.856,6.206,0,14.54,2.877,19.944,16.214,2.075-8.573,8.262-16.815,16.854-16.815,5.5,0,11.152,3.3,16.815,9.827,3.239-19.11,24.108-39.727,48.61-39.727a43.718,43.718,0,0,1,24.955,7.991c-.776-12.7,2.5-24.3,8.87-31.252,7.558-8.243,18.923-9.478,32.732-3.4-9.84-33.721-.556-56.252,9.064-69.259,11.475-15.529,30.043-25.55,47.311-25.55a39.749,39.749,0,0,1,8.553.892c-2.392-15.542,4.752-28.026,11.275-35.835,11.314-13.564,29.4-23.035,43.962-23.035a23.5,23.5,0,0,1,12.768,3.329c-1.157-6.471.6-13.137,5.056-18.968,5.915-7.726,15.574-12.73,24.619-12.73a22.423,22.423,0,0,1,6.743,1.009c5.114-61.307,51.965-74.218,90.49-74.218,1.843,0,3.75.032,5.637.1a.745.745,0,0,1,.731.743v432.41a.754.754,0,0,1-.291.6A.778.778,0,0,1,613.686,445.2ZM103.91,369.828c164.275,3.911,335.513,28.711,509.026,73.655V12.774c-1.636-.045-3.265-.065-4.868-.065-38.092,0-84.458,12.794-89.074,73.791a.749.749,0,0,1-.343.575.788.788,0,0,1-.672.065,20.454,20.454,0,0,0-7.144-1.228c-8.592,0-17.792,4.765-23.416,12.141-4.622,6.045-6.181,13.008-4.37,19.621a.737.737,0,0,1-.31.821.746.746,0,0,1-.886-.045c-3.329-2.722-7.984-4.163-13.46-4.163-14.158,0-31.769,9.238-42.811,22.492-6.471,7.751-13.589,20.235-10.777,35.738a.717.717,0,0,1-.22.679.768.768,0,0,1-.7.181,37.31,37.31,0,0,0-9.284-1.131c-16.8,0-34.9,9.794-46.1,24.948-17.339,23.455-14.113,50.75-8.366,69.524a.728.728,0,0,1-.226.789.739.739,0,0,1-.808.11c-13.835-6.536-25.11-5.683-32.5,2.36-6.271,6.833-9.465,18.988-8.372,31.7a.739.739,0,0,1-.375.724.773.773,0,0,1-.815-.039,42.52,42.52,0,0,0-25.369-8.65c-19.763,0-44.751,17.507-47.362,40.083a.735.735,0,0,1-.524.634.751.751,0,0,1-.8-.246c-5.734-7.008-11.359-10.57-16.744-10.57-8.631,0-14.63,9.374-15.891,18.2a.748.748,0,0,1-.666.64.773.773,0,0,1-.789-.5c-3.976-11.6-10.712-17.733-19.453-17.733-11.417,0-23.261,10.583-28.11,20.8a.692.692,0,0,1-.478.407.8.8,0,0,1-.621-.1,33.283,33.283,0,0,0-18.968-6.3,26.368,26.368,0,0,0-19.085,7.894C106.664,352.573,103.819,360.493,103.91,369.828Z" transform="translate(-102.408 -11.203)" fill="#0f6d43"/>
    </g>
    <g id="Group_1803" data-name="Group 1803" transform="translate(103.157 11.954)" opacity="0.8" style="mix-blend-mode: multiply;isolation: isolate">
      <path id="Path_967" data-name="Path 967" d="M551.073,206.353c-1.19,27.3-21.483,13.867-21.483,13.867,8,37.943-34.943,41.945-52.935,36.947-14.979,83.909-86.9,53.937-93.891,28.97-14.979-49.955,36.96-74.923,56.943-74.923-42.953-35.952-1.125-86.56,33.961-60.932-3.271-22.88,22.317-48.461,45.947-26.959-8.993-10.99.989-33.967,17.973-12.982C526.6,77.377,532.6,40.41,580.533,23.44c12.775-4.525,23.558-4.8,32.519-2.754V11.408c-39.669-1.248-90.568,9.963-95.442,74.4-17.061-6.29-41.3,11.669-35.913,31.426-19.757-16.162-75.44,15.27-68.257,54.778-31.433-8.068-85.3,26.94-64.656,94.3-32.318-15.27-43.93,11.831-41.932,34.814-32.965-23.985-70.921,5.987-73.914,31.95-17.979-21.968-31.969-6-33.961,8-10.984-31.976-39.947-15.988-48.94,2.98-21.5-14.953-48.255-2.773-47.5,25.86,149,3.5,319.8,24.405,510.513,73.9V205.351C592.8,223.951,558.9,218.242,551.073,206.353Z" transform="translate(-102.524 -11.319)" fill="#68aa2f"/>
      <g id="Group_1802" data-name="Group 1802" transform="translate(0 213.918)" style="mix-blend-mode: multiply;isolation: isolate">
        <path id="Path_968" data-name="Path 968" d="M564.183,52.812c-2.069,47.395-63.874,50.485-78.3,41.208,7.215,26.778-7.208,36.062-21.625,35.027,35.021,27.812-45.319,103.013-85.506,52.534-29.875,22.666-78.284,12.361-85.506-6.174-42.074,18.7-133.372,25.976-160.273-18.5-16.369-1.28-30.993,10.893-30.431,32.176,149,3.5,319.8,24.405,510.513,73.9V44.408C598.849,55.8,578.684,66.712,564.183,52.812Z" transform="translate(-102.524 -44.408)" fill="#68aa2f"/>
      </g>
    </g>
    <g id="Group_1804" data-name="Group 1804" transform="translate(431.508 17.837)">
      <path id="Path_969" data-name="Path 969" d="M249.444,15.286c-21.018-9.419-45.365,4.6-59.937,19.382-14.779,14.986-26.791,39.96-16.874,60.583.853,1.771,3.724-2.3,3.252-3.756-6.594-20.248,1.733-40.2,15.956-54.907C206.575,21.37,227.153,13.644,248.093,17.7,248.875,17.853,250.271,15.655,249.444,15.286Z" transform="translate(-67.544 -12.229)" fill="#00dc40"/>
      <path id="Path_970" data-name="Path 970" d="M186.949,32.872c-4.112-6.407-12.562-11.2-17.992-3.711-3.9,5.359-2,14.766,1.875,19.589.756.944,2.347-1.371,1.9-2.2-2.308-4.332-4.092-9.665-3.019-14.617,1.888-8.728,12.736-.246,15.956,2.638C186.2,35.044,187.279,33.376,186.949,32.872Z" transform="translate(-79.552 59.467)" fill="#00dc40"/>
      <path id="Path_971" data-name="Path 971" d="M200.872,31.675C175.018,12.5,152.714,57.037,162.063,78.184c.511,1.164,2.476-1.48,2.159-2.47-6.937-21.134,9.982-57.493,35.79-42.708C200.484,33.285,201.331,32.011,200.872,31.675Z" transform="translate(-117.363 68.447)" fill="#00dc40"/>
      <path id="Path_972" data-name="Path 972" d="M192.5,40.248c-10.46-17.229-36.036-3.717-39.152,12.167-.336,1.752,1.965-.168,2.185-.983,2.217-7.842,8.256-12.943,15.955-15.1,7.519-2.108,14.165.672,19.66,5.709C191.709,42.569,192.834,40.791,192.5,40.248Z" transform="translate(-153.313 96.99)" fill="#00dc40"/>
    </g>
  </g>
</svg>
