<svg xmlns="http://www.w3.org/2000/svg" xmlns:xlink="http://www.w3.org/1999/xlink" width="1855.182" height="386.087" viewBox="0 0 1855.182 386.087">
  <defs>
    <clipPath id="clip-path">
      <rect id="Rectangle_29" data-name="Rectangle 29" width="1841.654" height="258.248" fill="none"/>
    </clipPath>
    <linearGradient id="linear-gradient" x1="0.5" y1="-0.178" x2="0.5" y2="1.183" gradientUnits="objectBoundingBox">
      <stop offset="0" stop-color="#e2e617"/>
      <stop offset="0.422" stop-color="#b2d111"/>
      <stop offset="0.999" stop-color="#289b36"/>
    </linearGradient>
    <linearGradient id="linear-gradient-2" x1="0.5" y1="-0.494" x2="0.5" y2="1.123" gradientUnits="objectBoundingBox">
      <stop offset="0" stop-color="#e2e617"/>
      <stop offset="0.422" stop-color="#b2d111"/>
      <stop offset="0.999" stop-color="#08190a"/>
    </linearGradient>
    <linearGradient id="linear-gradient-3" x1="0.5" y1="-0.455" x2="0.5" y2="1.006" xlink:href="#linear-gradient"/>
    <linearGradient id="linear-gradient-4" x1="0.5" y1="-0.359" x2="0.5" y2="1.006" xlink:href="#linear-gradient"/>
    <linearGradient id="linear-gradient-6" x1="2.238" y1="-2.411" x2="1.042" y2="-0.603" xlink:href="#linear-gradient"/>
    <linearGradient id="linear-gradient-7" x1="5.905" y1="22.158" x2="6.01" y2="24.352" gradientUnits="objectBoundingBox">
      <stop offset="0.389" stop-color="#72d81c"/>
      <stop offset="0.625" stop-color="#3aa023"/>
      <stop offset="1" stop-color="#50cc2c"/>
    </linearGradient>
    <linearGradient id="linear-gradient-8" x1="113.02" y1="46.183" x2="114.719" y2="48.54" xlink:href="#linear-gradient-7"/>
    <linearGradient id="linear-gradient-9" x1="45.613" y1="43.129" x2="46.297" y2="45.335" xlink:href="#linear-gradient-7"/>
    <linearGradient id="linear-gradient-10" x1="5.883" y1="24.666" x2="5.965" y2="25.929" xlink:href="#linear-gradient-7"/>
    <linearGradient id="linear-gradient-11" x1="36.521" y1="73.433" x2="37.067" y2="77.223" xlink:href="#linear-gradient-7"/>
    <linearGradient id="linear-gradient-12" x1="3.456" y1="10.49" x2="3.558" y2="12.799" xlink:href="#linear-gradient-7"/>
    <linearGradient id="linear-gradient-13" x1="70.16" y1="20.915" x2="72.023" y2="23.283" xlink:href="#linear-gradient-7"/>
    <linearGradient id="linear-gradient-14" x1="22.699" y1="20.228" x2="23.299" y2="22.547" xlink:href="#linear-gradient-7"/>
    <linearGradient id="linear-gradient-15" x1="3.435" y1="12.999" x2="3.514" y2="14.494" xlink:href="#linear-gradient-7"/>
    <linearGradient id="linear-gradient-16" x1="22.854" y1="30.006" x2="23.457" y2="33.478" xlink:href="#linear-gradient-7"/>
  </defs>
  <g id="Group_1814" data-name="Group 1814" transform="matrix(0.998, 0.07, -0.07, 0.998, -110.443, -72.161)">
    <g id="Group_1799" data-name="Group 1799" transform="translate(133.178 63.025)" clip-path="url(#clip-path)">
      <g id="Group_1783" data-name="Group 1783" transform="translate(6.07 25.684)">
        <path id="Path_924" data-name="Path 924" d="M134.047,203.211V322.8H1418.756V147.134C697-40.185,238.91,151.429,134.047,203.211Z" transform="translate(-134.047 -66.702)" stroke="rgba(0,0,0,0)" stroke-width="1" fill="url(#linear-gradient)"/>
      </g>
      <path id="Path_925" data-name="Path 925" d="M291.683,93.066S492.385,46.138,733.546,78.5,867.889,151.35,694.7,182.088c-173.176,30.759,339.9,123.755-46.928,131.11-386.847,7.354-671.71-34-305.913-85.788S-54.683,172.387,291.683,93.066Z" transform="translate(102.428 -38.522)" fill="url(#linear-gradient-2)" style="mix-blend-mode: screen;isolation: isolate"/>
      <g id="Group_1785" data-name="Group 1785" transform="translate(6.07 26.362)" opacity="0.5" style="mix-blend-mode: multiply;isolation: isolate">
        <path id="Path_926" data-name="Path 926" d="M266.351,260.223c38.854-56.657,268.037-82.631,143.933-104.206-161.855-18.348-9.6-57,144.149-86.808-223.177,30.508-367.207,92.738-420.386,119V307.793H422.325C317.86,301.389,246.7,288.894,266.351,260.223Z" transform="translate(-134.047 -52.377)" fill="url(#linear-gradient-3)"/>
        <path id="Path_927" data-name="Path 927" d="M788,146.553C583.245,93.409,399.718,70.78,239.449,66.8c187.934,32.91,557.439,109.053,137.444,136.627-132.465,10,252.176,85.593,129.8,118.789H788Z" transform="translate(496.712 -66.799)" fill="url(#linear-gradient-4)"/>
        <path id="Path_928" data-name="Path 928" d="M1286.584,248.744C1081.832,195.6,399.718,70.78,239.449,66.8c187.934,32.91,557.439,109.053,137.444,136.627-132.465,10,252.176,85.593,129.8,118.789H788Z" transform="translate(496.712 -66.799)" fill="url(#linear-gradient-4)"/>
        <g id="Group_1784" data-name="Group 1784" transform="translate(0 89.776)" style="mix-blend-mode: multiply;isolation: isolate">
          <path id="Path_929" data-name="Path 929" d="M380.07,103.225c-148.186,4.316-154.1-6.928-134.8-23.572-51.949,18.306-89.3,35.236-111.218,46.055V245.293h48.876C63.813,179.068,461.13,100.871,380.07,103.225Z" transform="translate(-134.047 -79.653)" fill="url(#linear-gradient-6)"/>
        </g>
      </g>
      <g id="Group_1787" data-name="Group 1787" transform="translate(1017.196 77.248)">
        <path id="Path_930" data-name="Path 930" d="M317.845,89.615c1.138-1.187,4.072-3.38,4.142-5.161.147-4.337-6.782-2.41-8.884-1.537a20.906,20.906,0,0,0-3.611,1.844,9.926,9.926,0,0,0,.091-1.5c-.077-3.583-1.7-7.536-5.832-5.315a8.662,8.662,0,0,0-4.142,6.635,9.67,9.67,0,0,0-3.988-2.71c-2.6-1.02-6.223-1.9-8.025.8-1.222,1.8.706,4.5,1.725,5.909.077.1.154.182.223.279-3.471-.14-6.7.761-7.7,3.625-1.522,4.3,3.094,5.671,7.941,5.713-2.6,1.516-4.274,3.569-2.975,6.041,1.718,3.283,7.759.775,9.939-.258A27.98,27.98,0,0,0,302,100.88c3.423,3.827,8.779,6.433,13.445,3.464,2.794-1.76,1.627-4.61-.615-7.054,1.027-.07,1.942-.161,2.612-.231,1.977-.189,6.677-.482,7.1-3.457C325.06,89.936,320.241,90.2,317.845,89.615Z" transform="translate(-280.405 -76.323)" fill="#009345" opacity="0.4" style="mix-blend-mode: multiply;isolation: isolate"/>
        <g id="Group_1786" data-name="Group 1786">
          <path id="Path_931" data-name="Path 931" d="M317.676,89.453c1.145-1.187,4.079-3.359,4.142-5.134.154-4.337-6.782-2.431-8.877-1.557a21.033,21.033,0,0,0-3.618,1.858,12.208,12.208,0,0,0,.1-1.5c-.084-3.6-1.7-7.529-5.839-5.315a8.718,8.718,0,0,0-4.149,6.621,9.7,9.7,0,0,0-3.967-2.724c-2.6-.992-6.23-1.886-8.039.81-1.229,1.823.706,4.5,1.725,5.909.07.1.147.182.23.279-3.478-.126-6.7.768-7.7,3.618-1.509,4.309,3.108,5.692,7.941,5.727-2.577,1.523-4.274,3.555-2.989,6.055,1.732,3.262,7.774.754,9.953-.272a28.014,28.014,0,0,0,5.245-3.094c3.429,3.834,8.786,6.433,13.459,3.471,2.794-1.76,1.627-4.61-.608-7.061,1.013-.056,1.935-.154,2.6-.224,1.984-.2,6.677-.482,7.1-3.471C324.891,89.788,320.079,90.06,317.676,89.453Z" transform="translate(-281.388 -77.16)" fill="#ffffe3"/>
          <path id="Path_932" data-name="Path 932" d="M299.084,83.489c0,2.759-3.52,5-7.864,5s-7.878-2.242-7.878-5,3.534-5,7.878-5S299.084,80.737,299.084,83.489Z" transform="translate(-269.703 -69.213)" fill="#ae6cb2"/>
          <path id="Path_933" data-name="Path 933" d="M289.209,80.493c0,.978-1.243,1.76-2.766,1.76s-2.766-.782-2.766-1.76,1.236-1.753,2.766-1.753S289.209,79.515,289.209,80.493Z" transform="translate(-267.692 -67.705)" fill="#f99fc5"/>
        </g>
      </g>
      <g id="Group_1789" data-name="Group 1789" transform="translate(181.322 200.062)">
        <path id="Path_934" data-name="Path 934" d="M206.222,107.751c1.474-1.53,5.259-4.351,5.343-6.656.189-5.608-8.744-3.122-11.461-1.991a26.727,26.727,0,0,0-4.673,2.382,13.225,13.225,0,0,0,.126-1.935c-.1-4.638-2.2-9.736-7.536-6.873-3.15,1.711-4.826,5.022-5.357,8.563a12.7,12.7,0,0,0-5.133-3.506c-3.359-1.292-8.039-2.451-10.379,1.048-1.571,2.34.915,5.825,2.228,7.62l.3.363c-4.491-.175-8.64.985-9.953,4.673-1.949,5.553,4,7.341,10.267,7.4-3.359,1.956-5.525,4.6-3.855,7.795,2.221,4.246,10.022,1,12.844-.342a35.705,35.705,0,0,0,6.789-3.981c4.407,4.945,11.329,8.3,17.356,4.484,3.611-2.291,2.1-5.972-.775-9.122,1.313-.084,2.493-.2,3.359-.293,2.556-.244,8.619-.622,9.163-4.477C215.539,108.163,209.316,108.506,206.222,107.751Z" transform="translate(-157.871 -90.591)" fill="#009345" opacity="0.4" style="mix-blend-mode: multiply;isolation: isolate"/>
        <g id="Group_1788" data-name="Group 1788">
          <path id="Path_935" data-name="Path 935" d="M206,107.544c1.481-1.509,5.266-4.351,5.35-6.642.189-5.594-8.751-3.122-11.461-2a28.228,28.228,0,0,0-4.665,2.4,14.138,14.138,0,0,0,.119-1.942c-.1-4.617-2.2-9.708-7.536-6.859-3.157,1.69-4.812,5.015-5.364,8.556a12.546,12.546,0,0,0-5.126-3.5c-3.359-1.313-8.053-2.473-10.379,1.027-1.571,2.34.915,5.825,2.235,7.634.084.126.2.23.293.363-4.5-.189-8.647.985-9.953,4.679-1.949,5.553,4.009,7.327,10.267,7.4-3.352,1.956-5.525,4.6-3.855,7.795,2.228,4.232,10.023.992,12.837-.342a35.746,35.746,0,0,0,6.782-3.981c4.428,4.931,11.343,8.29,17.377,4.477,3.6-2.284,2.088-5.965-.789-9.122,1.313-.077,2.5-.2,3.359-.286,2.57-.251,8.626-.629,9.171-4.491C215.327,107.97,209.1,108.32,206,107.544Z" transform="translate(-159.139 -91.669)" fill="#ffffe3"/>
          <path id="Path_936" data-name="Path 936" d="M181.993,99.851c0,3.562-4.547,6.454-10.169,6.454s-10.162-2.892-10.162-6.454,4.54-6.467,10.162-6.467S181.993,96.275,181.993,99.851Z" transform="translate(-144.042 -81.406)" fill="#ae6cb2"/>
          <path id="Path_937" data-name="Path 937" d="M169.233,95.966c0,1.257-1.592,2.27-3.576,2.27-1.963,0-3.562-1.013-3.562-2.27s1.6-2.256,3.562-2.256C167.641,93.71,169.233,94.716,169.233,95.966Z" transform="translate(-141.451 -79.455)" fill="#f99fc5"/>
        </g>
      </g>
      <g id="Group_1791" data-name="Group 1791" transform="translate(639.536 213.701)">
        <path id="Path_938" data-name="Path 938" d="M261.2,106.061c1.138-1.187,4.079-3.373,4.142-5.14.161-4.351-6.782-2.417-8.877-1.551a21.665,21.665,0,0,0-3.611,1.844,10.788,10.788,0,0,0,.1-1.488c-.084-3.59-1.7-7.536-5.839-5.322a8.681,8.681,0,0,0-4.149,6.628,9.981,9.981,0,0,0-3.981-2.724c-2.591-.992-6.237-1.886-8.032.81-1.222,1.816.706,4.519,1.725,5.909.07.1.161.175.23.272-3.478-.126-6.7.775-7.7,3.632-1.516,4.3,3.094,5.685,7.948,5.727-2.584,1.516-4.281,3.555-2.982,6.027,1.718,3.283,7.76.761,9.946-.258a28.164,28.164,0,0,0,5.245-3.08c3.422,3.827,8.779,6.419,13.452,3.464,2.794-1.76,1.62-4.61-.6-7.068,1.006-.056,1.921-.147,2.6-.216,1.984-.189,6.684-.482,7.1-3.485C268.416,106.39,263.6,106.648,261.2,106.061Z" transform="translate(-223.76 -92.776)" fill="#009345" opacity="0.4" style="mix-blend-mode: multiply;isolation: isolate"/>
        <g id="Group_1790" data-name="Group 1790">
          <path id="Path_939" data-name="Path 939" d="M261.033,105.93c1.145-1.187,4.079-3.38,4.142-5.147.161-4.344-6.775-2.41-8.87-1.557a21.353,21.353,0,0,0-3.625,1.858,9.918,9.918,0,0,0,.1-1.5c-.084-3.583-1.7-7.536-5.839-5.315a8.655,8.655,0,0,0-4.142,6.621,9.832,9.832,0,0,0-3.974-2.717c-2.605-1-6.23-1.9-8.046.8-1.222,1.816.712,4.519,1.732,5.909.063.1.154.2.224.286-3.471-.147-6.691.761-7.7,3.625-1.509,4.3,3.108,5.671,7.948,5.727-2.584,1.523-4.274,3.555-2.982,6.041,1.725,3.276,7.759.754,9.953-.258a28.7,28.7,0,0,0,5.245-3.094c3.422,3.82,8.772,6.419,13.445,3.457,2.8-1.76,1.627-4.61-.6-7.054,1.006-.063,1.935-.161,2.605-.231,1.977-.2,6.67-.482,7.1-3.457C268.248,106.251,263.436,106.523,261.033,105.93Z" transform="translate(-224.745 -93.622)" fill="#ffffe3"/>
          <path id="Path_940" data-name="Path 940" d="M242.435,99.951c0,2.773-3.513,5.015-7.864,5.015s-7.871-2.242-7.871-5.015c0-2.752,3.52-5,7.871-5S242.435,97.2,242.435,99.951Z" transform="translate(-213.054 -85.673)" fill="#ae6cb2"/>
          <path id="Path_941" data-name="Path 941" d="M232.566,96.955c0,.978-1.243,1.76-2.766,1.76s-2.766-.782-2.766-1.76c0-.957,1.243-1.753,2.766-1.753S232.566,96,232.566,96.955Z" transform="translate(-211.05 -84.165)" fill="#f99fc5"/>
        </g>
      </g>
      <g id="Group_1792" data-name="Group 1792" transform="translate(266.158 43.32)" style="mix-blend-mode: multiply;isolation: isolate">
        <path id="Path_942" data-name="Path 942" d="M241,94.217a36.908,36.908,0,0,1,4.051,2.186,1.143,1.143,0,0,1,.272.314,20.119,20.119,0,0,1-3.688-.782c-.426-.314-.824-.608-1.166-.852-.761-.538-1.509-1.1-2.27-1.627,2.661-1.627,5.057-1.467,7.934-1.117A10.246,10.246,0,0,0,241.59,89.5a21.519,21.519,0,0,0-3.387-1.676.456.456,0,0,1,.21-.594c4.847-2.486,9.813-1.2,14.513.866a35.235,35.235,0,0,0-9.08-9.436c-1.02-1.264-2.074-2.493-3.038-3.806a.512.512,0,0,1,.224-.175c4.009-1.907,10.874,1.62,14.024,4.023a22.448,22.448,0,0,1,6.866,7.906c.335-2.207.58-4.407.768-6.684.3-3.625-1.076-6.7-1.208-10.2a.622.622,0,0,1,.147-.5,18.455,18.455,0,0,1,4.351,5.525,56.973,56.973,0,0,1,1.844,5.825,21.955,21.955,0,0,1,.74,4.477,35.886,35.886,0,0,1-2.389,8.961c.119-1.194.2-2.389.244-3.59a21.5,21.5,0,0,0,.573-6.907,30.15,30.15,0,0,0-3.415-10.875c.5,2.242,1.348,4.47,1.2,6.782-.223,3.988-.321,7.85-1.557,11.671-.328,1.041-1.739-.643-1.816-1.124-.733-4.819-4.246-8.144-8.088-10.693a19.608,19.608,0,0,0-6.852-2.71c-.182-.042-4.484-.978-2.528.37a37.72,37.72,0,0,1,11.538,12.7c.245.461.224,1.5-.587,1.124-3.9-1.879-8.186-3.611-12.4-2.7A13.861,13.861,0,0,1,248.63,93.3c.363.538.168,1.32-.573,1.117C245.529,93.686,243.252,93.4,241,94.217Z" transform="translate(238.927 -55.889)" fill="#49892c"/>
        <path id="Path_944" data-name="Path 944" d="M187.686,101.782a34.529,34.529,0,0,1,4.77,3.338,22.55,22.55,0,0,1,3.171,4.309c-5.5-2.472-12.858-1.027-18.369,2.144a8.9,8.9,0,0,1,3.548-.2c4.093.747,7.5,2.668,10.9,4.987-.447-.21-.9-.391-1.362-.566a27.2,27.2,0,0,0-6.747-2.256c-4.156-.845-8.179-.489-12.307-.594a.65.65,0,0,1,.245-.538c5.126-4.533,13.256-7.194,20.227-5.881-1.09-.859-2.186-1.711-3.38-2.486-2.137-1.39-4.673-2-6.628-3.576-.433-.356-.726-1.062-.07-1.327,6.377-2.57,14.213-.391,19.025,4.365.077-2.284.161-4.526.349-6.81a18.632,18.632,0,0,1,1.655-3.7,2.688,2.688,0,0,1,.789.664,23.581,23.581,0,0,1,2.361,6.586c.314,1.3.3,2.975.559,4.5a21.7,21.7,0,0,1,6.146-5.161,20.235,20.235,0,0,1,9.582.231c-2.71.978-5.112,1.753-6.761,3.765a22.224,22.224,0,0,1,8.786-1.348,25.158,25.158,0,0,1,8.661,2.389,14.306,14.306,0,0,1,2.856,2.591,17.579,17.579,0,0,0-7.641-.224,22.447,22.447,0,0,0-4.833,1.041,11.723,11.723,0,0,0-2.3,1.055,3.015,3.015,0,0,0-.286.112,26.015,26.015,0,0,0-6.216,3.415,19.389,19.389,0,0,1,7.55-6.1,17.934,17.934,0,0,1,8.514-1.271,27.03,27.03,0,0,0-8.723-1.418c-3.073-.014-5.308,1.613-8.067,2.4-.768.223-2.019-.622-1.718-1.474a9.068,9.068,0,0,1,1.795-3.15,24.54,24.54,0,0,0-6.586,6.027c-.587.719-1.725-.056-2.088-.65-1.334-2.172-1.558-4.889-1.942-7.585-.154,2.312-.231,4.624-.307,7.012-.021.992-1.683.182-1.956-.21a15.461,15.461,0,0,0-16.336-5.769C185.611,100.9,186.813,101.3,187.686,101.782Z" transform="translate(-171.286 72.972)" fill="#49892c"/>
      </g>
      <g id="Group_1795" data-name="Group 1795" transform="translate(58.393 152.061)">
        <g id="Group_1793" data-name="Group 1793">
          <path id="Path_945" data-name="Path 945" d="M160.626,122.416s-11.3-11.6-25.535-4.8c5.539-16.972,26.184-9.436,26.184-9.436s-1.208-7.11-7.173-7.99c7.243-5.189,13.92,5.566,13.92,5.566s-.091-12.257,7.85-18.1c-.51,10.239,1.32,14.981,1.32,14.981a26.958,26.958,0,0,1,19.724-15.023c-8.486,9.96-6.942,15.212-6.942,15.212s3.848-10.784,18.529-11.6c-15.9,16.092-14.353,21.344-14.353,21.344s-9.6,1.788-16.176,6.014l3.366-4.2S175.216,114.559,160.626,122.416Z" transform="translate(-134.549 -87.067)" fill="url(#linear-gradient-7)"/>
          <path id="Path_946" data-name="Path 946" d="M161.09,123.414a.556.556,0,0,1-.384-.154c-.063-.077-6.726-6.768-16.008-6.768a20.529,20.529,0,0,0-8.919,2.081.525.525,0,0,1-.587-.077.548.548,0,0,1-.154-.573c3.1-9.5,10.8-11.482,16.72-11.482a32.948,32.948,0,0,1,9.219,1.4c-.552-1.872-2.228-6.007-6.482-6.642a.535.535,0,0,1-.461-.412.558.558,0,0,1,.2-.566,7.609,7.609,0,0,1,4.442-1.516c4.24,0,7.739,3.82,9.331,5.93.265-3.6,1.585-12.223,8-16.93a.53.53,0,0,1,.587-.056.56.56,0,0,1,.272.5,46.936,46.936,0,0,0,.929,13.459A27.732,27.732,0,0,1,197.29,87.543a.55.55,0,0,1,.5.9c-5.161,6.055-6.53,10.33-6.838,12.649,1.97-3.241,7.089-9.331,17.992-9.932a.539.539,0,0,1,.412.922c-15.254,15.414-14.234,20.736-14.22,20.792a.516.516,0,0,1-.056.433.6.6,0,0,1-.363.258c-.084.014-9.589,1.816-15.98,5.937a.551.551,0,0,1-.691-.091.531.531,0,0,1-.021-.691l2.521-3.157c-2.473.468-8.6,2.081-19.2,7.781A.546.546,0,0,1,161.09,123.414ZM144.7,115.4c8.737,0,15.058,5.476,16.49,6.824,14.276-7.648,20.345-7.913,20.59-7.927a.609.609,0,0,1,.5.307.52.52,0,0,1-.07.58l-1.565,1.991a57.356,57.356,0,0,1,13.4-4.582c.014-1.746,1.215-7.55,13.536-20.234-12.991,1.362-16.595,11.021-16.644,11.119a.534.534,0,0,1-.51.356.55.55,0,0,1-.5-.384c-.063-.224-1.411-5.217,6.069-14.541a26.721,26.721,0,0,0-17.838,14.4.509.509,0,0,1-.5.328.531.531,0,0,1-.5-.342c-.07-.189-1.732-4.589-1.411-14.011-6.7,5.853-6.719,16.832-6.719,16.944a.524.524,0,0,1-.384.51.53.53,0,0,1-.615-.224c-.042-.07-4.233-6.719-9.345-6.719a6.086,6.086,0,0,0-2.71.65c5.14,1.676,6.286,8.039,6.3,8.109a.522.522,0,0,1-.188.51.5.5,0,0,1-.531.084,32.6,32.6,0,0,0-9.792-1.62c-7.634,0-12.76,3.2-15.275,9.555A21.651,21.651,0,0,1,144.7,115.4Z" transform="translate(-135.013 -87.535)" fill="#009345"/>
        </g>
        <g id="Group_1794" data-name="Group 1794" transform="translate(0.542 0.546)" opacity="0.9" style="mix-blend-mode: multiply;isolation: isolate">
          <path id="Path_947" data-name="Path 947" d="M142.923,104.332c.747-1.271,1.076-1.823,1.215-2.053-.37-1.2-1.641-5.909-1.2-14.66-.258.189-.482.363-.705.552C140.57,92.173,139.312,98.27,142.923,104.332Z" transform="translate(-102.156 -87.577)" fill="url(#linear-gradient-8)"/>
          <path id="Path_948" data-name="Path 948" d="M143.628,105.458c.4-1.292.664-2.207.859-2.843-.182-1.069-.517-6.2,6.991-15-.272.056-.538.112-.81.175C145.9,90.386,140.457,95.638,143.628,105.458Z" transform="translate(-89.653 -87.613)" fill="url(#linear-gradient-9)"/>
          <path id="Path_949" data-name="Path 949" d="M192.369,107.651l-1.739-2.961-5.532,4.826,3-5.532c-9.617,1.683-14.96,6.146-14.96,6.146l2.731-7.452s-9.387,4.484-9.988,9.3a14.922,14.922,0,0,0-11.245-4.812l4.365,5.217c-9.024-4.672-17.587-2.577-22.985-.189a23.885,23.885,0,0,0-.929,2.333c14.234-6.8,25.535,4.8,25.535,4.8,14.59-7.857,20.716-8.039,20.716-8.039l-3.366,4.2c6.572-4.225,16.176-6.014,16.176-6.014S192.6,104.222,208.5,88.13c-.293.028-.594.056-.887.07C195.827,93.711,192.369,107.651,192.369,107.651Z" transform="translate(-135.091 -84.519)" fill="url(#linear-gradient-10)"/>
          <path id="Path_950" data-name="Path 950" d="M138.672,89.337c-.279.168-.58.335-.859.538,5.043.747,6.67,5.944,7.068,7.522.419.23,1.432.852,3.939,2.326C148.122,93.018,143.023,90.371,138.672,89.337Z" transform="translate(-118.802 -77.296)" fill="url(#linear-gradient-11)"/>
        </g>
        <path id="Path_951" data-name="Path 951" d="M158.863,92.627c-7.431-3.967-17.978-2.989-23.307,3.953-.056.07-.049.37.07.231,5.9-6.817,15.289-6.768,23.02-3.457C158.877,93.465,159.107,92.746,158.863,92.627Z" transform="translate(-131.969 -70.975)" fill="#fff"/>
        <path id="Path_952" data-name="Path 952" d="M147.366,93.7c-2.039-2.745-5.455-4.973-8.982-4.372-.126.028-.21.419-.063.391,3.618-.342,6.384,2.116,8.828,4.435C147.31,94.3,147.457,93.828,147.366,93.7Z" transform="translate(-115.681 -77.38)" fill="#fff"/>
        <path id="Path_953" data-name="Path 953" d="M144.948,87.9a16.983,16.983,0,0,0-4.547,15.582c.112.433.468-.237.433-.461A18.457,18.457,0,0,1,145,88.175C145.06,88.105,145.109,87.756,144.948,87.9Z" transform="translate(-105.322 -85.548)" fill="#fff"/>
        <path id="Path_954" data-name="Path 954" d="M156.812,87.74a27.465,27.465,0,0,0-10.742,6.09c-2.249,2.039-4.973,5.1-4.742,8.381.028.307.272.049.286-.14.356-3.66,3.115-6.391,5.79-8.647a35.971,35.971,0,0,1,3.325-2.472c1.879-1.25,4.058-1.858,6.041-2.878C156.854,88.034,156.938,87.713,156.812,87.74Z" transform="translate(-97.308 -86.315)" fill="#fff"/>
      </g>
      <g id="Group_1798" data-name="Group 1798" transform="translate(170.377 111.699)">
        <g id="Group_1796" data-name="Group 1796">
          <path id="Path_955" data-name="Path 955" d="M189.016,120.693s-12.711-15.91-31.367-9.149c9.038-20.562,33.937-8.577,33.937-8.577s-.629-9.038-7.99-10.889c9.722-5.608,16.734,8.7,16.734,8.7s1.411-15.359,12.062-21.679c-1.9,12.753-.189,18.9-.189,18.9A33.852,33.852,0,0,1,238.73,81.657c-11.852,11.391-10.567,18.166-10.567,18.166s6.16-13.033,24.627-12.216c-21.882,18.152-20.611,24.913-20.611,24.913s-12.237,1.062-20.988,5.525l4.728-4.833S208.236,112.668,189.016,120.693Z" transform="translate(-157.113 -78.559)" fill="url(#linear-gradient-12)"/>
          <path id="Path_956" data-name="Path 956" d="M189.475,121.689a.559.559,0,0,1-.426-.2c-.077-.112-8.646-10.623-21.714-10.623a26.3,26.3,0,0,0-9.038,1.648.523.523,0,0,1-.573-.161.5.5,0,0,1-.1-.573c3.562-8.1,10.169-12.369,19.144-12.369a39.5,39.5,0,0,1,14.611,3.122c-.391-2.27-1.921-8.081-7.438-9.478a.528.528,0,0,1-.412-.44.537.537,0,0,1,.265-.545A9.546,9.546,0,0,1,188.6,90.7c5.874,0,10.169,6,11.866,8.849.691-4.184,3.29-15.219,12.1-20.471a.61.61,0,0,1,.58.028.538.538,0,0,1,.237.524c-1.369,9.177-.845,14.932-.475,17.363a34.709,34.709,0,0,1,26.24-15.414.526.526,0,0,1,.538.314.549.549,0,0,1-.126.608c-7.753,7.466-9.785,12.9-10.281,15.645a23.826,23.826,0,0,1,4.03-4.393c3.555-3.031,9.974-6.649,19.954-6.23a.589.589,0,0,1,.5.377.57.57,0,0,1-.168.594c-21.141,17.531-20.429,24.333-20.422,24.4a.612.612,0,0,1-.1.419.566.566,0,0,1-.384.2c-.119.014-12.237,1.1-20.778,5.469a.542.542,0,0,1-.685-.147.527.527,0,0,1,.056-.705l3.8-3.9c-2.85.189-10.77,1.32-25.4,7.41A.561.561,0,0,1,189.475,121.689Zm-22.14-11.9c12.285,0,20.722,8.919,22.3,10.714,16.511-6.845,24.4-7.389,26.429-7.389a3.419,3.419,0,0,1,.356.014.592.592,0,0,1,.468.349.52.52,0,0,1-.126.566l-2.689,2.773A71.384,71.384,0,0,1,232.1,112.5c.154-2,2.1-9.108,19.71-23.928h-.2c-16.665,0-22.44,11.811-22.5,11.929a.534.534,0,0,1-.566.3.518.518,0,0,1-.447-.433c-.063-.272-1.124-6.754,9.638-17.586A33.761,33.761,0,0,0,213.124,98.7a.506.506,0,0,1-.531.286.544.544,0,0,1-.461-.4c-.063-.23-1.606-6.02.021-17.95-9.422,6.453-10.812,20.5-10.819,20.653a.551.551,0,0,1-1.034.189c-.049-.1-4.84-9.694-11.7-9.694a7.993,7.993,0,0,0-3.122.664c6.433,2.577,7.1,10.854,7.11,10.951a.57.57,0,0,1-.237.475.513.513,0,0,1-.545.028,39.673,39.673,0,0,0-15.044-3.408c-8.207,0-14.122,3.569-17.628,10.588A27.219,27.219,0,0,1,167.335,109.788Z" transform="translate(-157.572 -79.017)" fill="#009345"/>
        </g>
        <g id="Group_1797" data-name="Group 1797" transform="translate(0.536 0.535)" opacity="0.9" style="mix-blend-mode: multiply;isolation: isolate">
          <path id="Path_957" data-name="Path 957" d="M166.873,100.005c1.11-1.509,1.585-2.137,1.8-2.431-.328-1.537-1.327-7.606.293-18.48-.335.2-.65.391-.943.608C165.455,84.493,163.108,91.973,166.873,100.005Z" transform="translate(-114.225 -79.094)" fill="url(#linear-gradient-13)"/>
          <path id="Path_958" data-name="Path 958" d="M168.039,100.812c.65-1.571,1.1-2.675,1.425-3.464-.084-1.362.119-7.808,10.6-17.887-.342.028-.677.07-1.02.1C172.76,82.22,165.287,88.122,168.039,100.812Z" transform="translate(-98.985 -76.898)" fill="url(#linear-gradient-14)"/>
          <path id="Path_959" data-name="Path 959" d="M230.174,102.745l-1.809-3.911-7.515,5.336,4.456-6.53c-12.258.894-19.486,5.811-19.486,5.811l4.33-8.982s-12.3,4.463-13.661,10.4a18.648,18.648,0,0,0-13.459-7.4l4.819,7.061c-10.714-6.97-21.7-5.406-28.741-3.066a24.831,24.831,0,0,0-1.46,2.794c18.655-6.761,31.367,9.149,31.367,9.149,19.221-8.025,26.9-7.48,26.9-7.48l-4.728,4.833c8.751-4.463,20.988-5.525,20.988-5.525s-1.271-6.761,20.611-24.913c-.37-.014-.747-.014-1.1-.014C236.229,85.738,230.174,102.745,230.174,102.745Z" transform="translate(-157.649 -71.811)" fill="url(#linear-gradient-15)"/>
          <path id="Path_960" data-name="Path 960" d="M162.509,80.872c-.377.175-.754.349-1.145.566,6.223,1.564,7.627,8.255,7.913,10.281.5.37,1.7,1.25,4.652,3.429C173.887,86.648,167.838,82.709,162.509,80.872Z" transform="translate(-135.417 -68.454)" fill="url(#linear-gradient-16)"/>
        </g>
        <path id="Path_961" data-name="Path 961" d="M187.986,86.23c-8.807-5.909-22.133-5.965-29.641,2.053-.084.084-.119.468.056.3,8.2-7.794,19.961-6.579,29.215-1.46C187.9,87.278,188.279,86.412,187.986,86.23Z" transform="translate(-153.366 -61.124)" fill="#fff"/>
        <path id="Path_962" data-name="Path 962" d="M172.839,87.384c-2.221-3.674-6.209-6.887-10.7-6.565-.154.028-.328.475-.133.475,4.575.014,7.725,3.443,10.5,6.642C172.685,88.146,172.944,87.552,172.839,87.384Z" transform="translate(-131.556 -68.369)" fill="#fff"/>
        <path id="Path_963" data-name="Path 963" d="M171.848,79.415a21.387,21.387,0,0,0-7.627,18.941c.084.559.608-.251.587-.524a23.273,23.273,0,0,1,7.061-18.061C171.959,79.674,172.043,79.241,171.848,79.415Z" transform="translate(-118.894 -76.883)" fill="#fff"/>
        <path id="Path_964" data-name="Path 964" d="M186.855,79.568a34.6,34.6,0,0,0-14.178,6.293c-3.066,2.263-6.852,5.762-6.977,9.876-.014.405.342.112.384-.126.894-4.54,4.693-7.6,8.318-10.12a43.884,43.884,0,0,1,4.456-2.661c2.494-1.334,5.308-1.83,7.927-2.85C186.89,79.938,187.022,79.547,186.855,79.568Z" transform="translate(-108.939 -75.729)" fill="#fff"/>
      </g>
    </g>
  </g>
</svg>
