<svg xmlns="http://www.w3.org/2000/svg" xmlns:xlink="http://www.w3.org/1999/xlink" width="394.133" height="101" viewBox="0 0 394.133 101">
  <defs>
    <clipPath id="clip-path">
      <path id="Path_1093" data-name="Path 1093" d="M951.643,1085.719l10.288,2.9,0-.005.057.022.059.017,0,0,9.993,3.79s-6.221,10.543-13.931,8.13l0,.005-.057-.022c-.02-.006-.039-.01-.059-.016l0-.005C950.359,1097.889,951.643,1085.719,951.643,1085.719Z" transform="translate(-951.562 -1085.719)" fill="none"/>
    </clipPath>
  </defs>
  <g id="Group_2248" data-name="Group 2248" transform="translate(-768 -34)">
    <g id="Group_2237" data-name="Group 2237">
      <g id="Group_1982" data-name="Group 1982" transform="translate(39 9.639)">
        <g id="Group_1981" data-name="Group 1981" transform="translate(726 21.324)">
          <g id="Group_1900" data-name="Group 1900" transform="translate(3 3.037)">
            <ellipse id="Ellipse_24" data-name="Ellipse 24" cx="50.5" cy="50.5" rx="50.5" ry="50.5" transform="translate(0 0)" fill="#fd9493"/>
            <g id="Group_1899" data-name="Group 1899" transform="translate(15.576 14.667)">
              <path id="Path_1068" data-name="Path 1068" d="M695.274,707.379s.005.006.008.01a9.126,9.126,0,0,0,1.508,1.588,20.952,20.952,0,0,0,6.135,3.559c.816.322,1.708.63,2.685.914,7.648,2.825,11.923,1.267,11.923,1.267,12.9,1.6,29.341-7.506,28.755-33.2a36.01,36.01,0,0,0-1.922-11.3,23.822,23.822,0,0,0-19.209-15.93A24.167,24.167,0,0,0,708.5,652c-5.186,1.205-10.992,4.452-16.554,11.607C676.169,683.9,683.954,700.992,695.274,707.379Z" transform="translate(-682.268 -644.215)" fill="#fd9493"/>
              <path id="Path_1069" data-name="Path 1069" d="M683.041,905.514c.816.322,1.708.63,2.686.914,7.648,2.825,11.923,1.267,11.923,1.267,12.9,1.6,29.341-7.506,28.755-33.2a36.01,36.01,0,0,0-1.922-11.3c.631,2.7,3.047,15.334-3.379,27.971a24.009,24.009,0,0,1-21.832,13.345s-4.635,4.139-14.291.956A2.166,2.166,0,0,0,683.041,905.514Z" transform="translate(-662.385 -837.192)" fill="#ffc5c5"/>
              <path id="Path_1070" data-name="Path 1070" d="M1120.252,713.471c-14.719-12.644-9.391-33.023.19-37.3s8.877-14.783,8.877-14.783l4.215-3.19-.052-.106c-5.186,1.205-10.992,4.452-16.554,11.607C1101.147,690,1108.932,707.084,1120.252,713.471Z" transform="translate(-1107.247 -650.307)" fill="#bd4542" opacity="0.75"/>
              <path id="Path_1071" data-name="Path 1071" d="M705.731,642.674h0c-8.391,0-15.915,4.206-22.364,12.5-9.341,12.015-9.815,21.943-8.568,28.156a24.831,24.831,0,0,0,11.974,16.685c.593.785,3.463,4.133,10.65,6.223a25.455,25.455,0,0,0,8.743,1.727,12.7,12.7,0,0,0,3.469-.414,24.36,24.36,0,0,0,2.807.162,24.843,24.843,0,0,0,17.9-7.546c5.984-6.122,9.01-15.328,8.753-26.623-.55-24.1-18.88-27.575-21.659-27.963A25.256,25.256,0,0,0,705.731,642.674Zm.435,63.74a24.068,24.068,0,0,1-8.258-1.648c-7.46-2.171-9.936-5.736-9.96-5.772l-.1-.152-.161-.093a23.277,23.277,0,0,1-11.364-15.723c-1.184-5.895-.709-15.347,8.271-26.9,6.14-7.9,13.252-11.9,21.139-11.9a23.546,23.546,0,0,1,11.076,2.783l.132.074.15.019c3.324.42,19.932,3.668,20.453,26.478.248,10.868-2.626,19.687-8.311,25.5a23.3,23.3,0,0,1-16.788,7.079,22.778,22.778,0,0,1-2.785-.171l-.185-.023-.176.064A10.443,10.443,0,0,1,706.167,706.414Z" transform="translate(-674.297 -636.259)" fill="#300808"/>
              <g id="Group_1898" data-name="Group 1898" transform="translate(2.994 0)">
                <g id="Group_1883" data-name="Group 1883" transform="translate(21.01 14.339)">
                  <g id="Group_1882" data-name="Group 1882">
                    <path id="Path_1072" data-name="Path 1072" d="M1052.695,735.606a3.825,3.825,0,0,0-.373-1.236,5.731,5.731,0,0,0-.316-.556c-.125-.169-.251-.343-.392-.5a4.181,4.181,0,0,0-2.154-1.3,3.712,3.712,0,0,0-.631-.1l-.319-.028c-.106,0-.213.009-.319.019a5.99,5.99,0,0,0-.634.071c-.207.052-.412.111-.615.172a2.733,2.733,0,0,0-.589.243c-.191.1-.378.2-.562.3a7.482,7.482,0,0,0-1,.818c.417-.017.795-.1,1.171-.152.19-.014.376-.031.558-.053l.271-.036c.09-.013.181,0,.269-.007.178,0,.354-.009.528-.022.173,0,.343.023.513.031l.254.01.246.047a2.944,2.944,0,0,1,.488.091,5.9,5.9,0,0,1,1.845.791A11.607,11.607,0,0,1,1052.695,735.606Z" transform="translate(-1044.796 -731.89)" fill="#0c0b0b"/>
                    <path id="Path_1073" data-name="Path 1073" d="M789.761,816.373a3.838,3.838,0,0,1,1.036-.771,5.8,5.8,0,0,1,.585-.259c.2-.062.406-.126.614-.17a4.182,4.182,0,0,1,2.5.239,3.718,3.718,0,0,1,.566.3l.272.167c.084.066.166.134.246.205a5.913,5.913,0,0,1,.467.434c.136.165.266.334.392.5a2.73,2.73,0,0,1,.329.545c.1.19.187.382.273.574a7.494,7.494,0,0,1,.313,1.25c-.325-.262-.579-.554-.851-.819-.145-.124-.284-.248-.417-.374l-.2-.19c-.065-.064-.144-.108-.212-.166-.142-.108-.279-.218-.411-.331s-.29-.185-.43-.28l-.21-.143-.225-.108a2.932,2.932,0,0,0-.446-.217A5.906,5.906,0,0,0,792,816.3,11.628,11.628,0,0,0,789.761,816.373Z" transform="translate(-766.805 -807.693)" fill="#0c0b0b"/>
                  </g>
                </g>
                <g id="Group_1886" data-name="Group 1886" transform="translate(0)">
                  <g id="Group_1884" data-name="Group 1884" transform="translate(52.846 14.714)">
                    <path id="Path_1074" data-name="Path 1074" d="M573.789,748.01c1.3,1.674,2.277,3.055,2.277,3.055s-4.6,5.575-2.924,11.877c1.6,6,6.78,9.411,7.353,8.165a.646.646,0,0,0,.051-.222,1.271,1.271,0,0,1,.267-.66c1.16-1.657,5.857-3.752,7.821-9.026a7.824,7.824,0,0,0-2.46-9.249,6.212,6.212,0,0,0-4.125-6.863,9.778,9.778,0,0,0-4.378-.669,12.193,12.193,0,0,0-5.375,1.736C572.817,746.776,573.324,747.413,573.789,748.01Z" transform="translate(-571.206 -743.655)" fill="#fd9493"/>
                    <path id="Path_1075" data-name="Path 1075" d="M572.353,744.418l-.056.249a10.184,10.184,0,0,1,5.528,2.615,4.632,4.632,0,0,1,1.473,4.829s-2.067,3.229-.137,4.966a5.349,5.349,0,0,1,1.414-3.14s3.027,2.219,1.048,7.07-7.354,7.849-7.354,7.849l1.225,1.369c1.16-1.657,5.857-3.752,7.821-9.026a7.824,7.824,0,0,0-2.46-9.249,6.212,6.212,0,0,0-4.125-6.863A9.778,9.778,0,0,0,572.353,744.418Z" transform="translate(-565.887 -743.655)" fill="#ffc5c5"/>
                    <path id="Path_1076" data-name="Path 1076" d="M674,774.729s-4.6,5.575-2.924,11.877c1.6,6,6.78,9.411,7.353,8.165a3.8,3.8,0,0,0-1.286-2.434s.892,2.616-1.8.324-3.312-11.794.436-16.307,1.667-5.992,1.667-5.992c-1.289,2.389-5.695,1.3-5.695,1.3l-.029.009C673.024,773.348,674,774.729,674,774.729Z" transform="translate(-669.137 -767.319)" fill="#bd4542" opacity="0.75"/>
                    <path id="Path_1077" data-name="Path 1077" d="M571.253,736.108h0a12.787,12.787,0,0,0-6.526,1.886l-.683.456.527.63c1.454,1.739,2.822,3.6,3.417,4.424-1.086,1.5-4.213,6.471-2.718,12.081,1.459,5.475,5.8,8.968,7.586,8.968a1.2,1.2,0,0,0,1.265-1.176c.02-.373,1.007-1.159,1.878-1.853,1.885-1.5,4.734-3.77,6.165-7.614a8.591,8.591,0,0,0-2.371-9.823,6.947,6.947,0,0,0-4.628-7.23A10.437,10.437,0,0,0,571.253,736.108Zm-4.99,2.71a11.435,11.435,0,0,1,4.989-1.237h0a8.972,8.972,0,0,1,3.359.643,5.462,5.462,0,0,1,3.676,6.037l-.09.471.393.276a7.051,7.051,0,0,1,2.189,8.387c-1.288,3.461-3.839,5.492-5.7,6.976-1.268,1.01-2.213,1.762-2.4,2.681-1.221-.3-4.729-3.128-5.986-7.847-1.558-5.848,2.735-11.167,2.779-11.22l.356-.433-.322-.459C569.488,743.07,568.006,740.965,566.263,738.818Z" transform="translate(-564.043 -736.108)" fill="#300808"/>
                    <path id="Path_1078" data-name="Path 1078" d="M674.811,782.113a7.856,7.856,0,0,0,3.816-3.87l-1.381-.513a6.452,6.452,0,0,1-3.044,3.042Z" transform="translate(-669.648 -774.033)" fill="#300808"/>
                    <path id="Path_1079" data-name="Path 1079" d="M603.511,827.343a5.985,5.985,0,0,1,2-3.549l-.654-.832a7.019,7.019,0,0,0-2.392,4.237Z" transform="translate(-590.158 -815.247)" fill="#300808"/>
                    <path id="Path_1080" data-name="Path 1080" d="M668.056,1004.714a1.436,1.436,0,0,0,.6-1.13c.046-.985-.75-2.1-2.433-3.422l-.87,1.111c1.874,1.467,1.9,2.17,1.893,2.245Z" transform="translate(-658.896 -976.708)" fill="#300808"/>
                  </g>
                  <g id="Group_1885" data-name="Group 1885">
                    <path id="Path_1081" data-name="Path 1081" d="M1127.8,586.262c-2.046.569-3.65,1.1-3.65,1.1s.376,7.216-4.728,11.283c-4.859,3.872-11.056,3.532-10.775,2.19a.649.649,0,0,1,.092-.208,1.27,1.27,0,0,0,.179-.689c.055-2.022-2.471-6.5-.907-11.9a7.837,7.837,0,0,1,7.489-5.97,6.222,6.222,0,0,1,7.4-3.063,9.767,9.767,0,0,1,3.916,2.065,12.17,12.17,0,0,1,3.285,4.59C1129.313,585.848,1128.526,586.058,1127.8,586.262Z" transform="translate(-1106.763 -577.999)" fill="#fd9493"/>
                    <path id="Path_1082" data-name="Path 1082" d="M1163.8,581.067l-.1.234a10.187,10.187,0,0,0-6-1.186,4.64,4.64,0,0,0-4.061,3.005s-.263,3.824-2.849,4.072a5.349,5.349,0,0,0,.735-3.364s-3.755-.016-5.055,5.059,1.232,10.679,1.232,10.679l-1.8.372c.055-2.022-2.471-6.5-.907-11.9a7.837,7.837,0,0,1,7.488-5.97,6.223,6.223,0,0,1,7.4-3.063A9.769,9.769,0,0,1,1163.8,581.067Z" transform="translate(-1143.75 -577.999)" fill="#ffc5c5"/>
                    <path id="Path_1083" data-name="Path 1083" d="M1148.964,618.85s.376,7.216-4.728,11.283c-4.859,3.872-11.056,3.532-10.774,2.19a3.8,3.8,0,0,1,2.484-1.192s-2.276,1.572,1.253,1.33,9.689-7.508,9.367-13.363,2.23-5.806,2.23-5.806c-.388,2.686,3.8,4.433,3.8,4.433l.018.025C1150.568,618.319,1148.964,618.85,1148.964,618.85Z" transform="translate(-1131.58 -609.487)" fill="#bd4542" opacity="0.75"/>
                    <path id="Path_1084" data-name="Path 1084" d="M1110.744,570.45a6.836,6.836,0,0,0-5.876,3.348,8.534,8.534,0,0,0-7.751,6.483c-1.141,3.94-.2,7.457.417,9.784.287,1.075.612,2.294.405,2.6a1.184,1.184,0,0,0-.087,1.244c.458.853,1.853,1.033,2.943,1.033a15.026,15.026,0,0,0,8.9-3.275c4.544-3.62,4.992-9.471,5.014-11.324.97-.309,3.177-.991,5.383-1.524l.8-.193-.277-.772c-.083-.23-2.089-5.654-7.709-7.118A8.581,8.581,0,0,0,1110.744,570.45Zm-5.011,4.8.245-.422a5.417,5.417,0,0,1,4.766-2.907,7.112,7.112,0,0,1,1.786.243,10.315,10.315,0,0,1,6.356,5.439c-2.68.69-5.127,1.5-5.154,1.509l-.531.177.028.56c0,.068.284,6.895-4.453,10.668a13.483,13.483,0,0,1-7.981,2.954,4.255,4.255,0,0,1-1.505-.207c.4-.851.085-2.017-.332-3.58-.613-2.3-1.452-5.448-.425-8.995a7.088,7.088,0,0,1,6.734-5.439Z" transform="translate(-1096.58 -570.45)" fill="#300808"/>
                    <path id="Path_1085" data-name="Path 1085" d="M1168.258,624.728l1.288-.716a6.439,6.439,0,0,1-.633-4.253l-1.415-.411A7.842,7.842,0,0,0,1168.258,624.728Z" transform="translate(-1151.517 -615.005)" fill="#300808"/>
                    <path id="Path_1086" data-name="Path 1086" d="M1264.436,617.625a7.013,7.013,0,0,0,.6-4.827l-1.021.278a6.035,6.035,0,0,1-.509,4.041Z" transform="translate(-1255.742 -609.036)" fill="#300808"/>
                    <path id="Path_1087" data-name="Path 1087" d="M1304.172,807.064l1.319-.5a.233.233,0,0,1,.019.068c0-.107.51-.662,2.882-.727l-.038-1.41c-2.138.058-3.445.485-3.994,1.3A1.435,1.435,0,0,0,1304.172,807.064Z" transform="translate(-1302.516 -783.706)" fill="#300808"/>
                  </g>
                </g>
                <g id="Group_1894" data-name="Group 1894" transform="translate(15.353 34.563)">
                  <g id="Group_1890" data-name="Group 1890" transform="translate(0.808 10.508)">
                    <path id="Path_1088" data-name="Path 1088" d="M951.643,1085.719l10.288,2.9,0-.005.057.022.059.017,0,0,9.993,3.79s-6.221,10.543-13.931,8.13l0,.005-.057-.022c-.02-.006-.039-.01-.059-.016l0-.005C950.359,1097.889,951.643,1085.719,951.643,1085.719Z" transform="translate(-951.011 -1085.022)" fill="#560c0c"/>
                    <g id="Group_1889" data-name="Group 1889" transform="translate(0.55 0.696)">
                      <g id="Group_1888" data-name="Group 1888" clip-path="url(#clip-path)">
                        <path id="Path_1089" data-name="Path 1089" d="M1028.456,1191.591l5.928,4.964,7.718-.465s.947-2.483-.078-4.314a3.222,3.222,0,0,0-1.1-1.154c-2.629-1.668-4.322-.77-4.322-.77s-.828-1.729-3.935-1.951a3.226,3.226,0,0,0-1.574.271C1029.174,1189.032,1028.456,1191.591,1028.456,1191.591Z" transform="translate(-1028.852 -1178.815)" fill="#f85062"/>
                        <g id="Group_1887" data-name="Group 1887" transform="translate(9.685 11.202)">
                          <path id="Path_1090" data-name="Path 1090" d="M1054.662,1211.912c-.041.123.291.343.741.491s.848.169.888.046-.291-.343-.741-.491S1054.7,1211.789,1054.662,1211.912Z" transform="translate(-1054.659 -1211.832)" fill="#ffc5c5"/>
                          <path id="Path_1091" data-name="Path 1091" d="M1043.987,1219.883c-.055.067.09.273.325.46s.469.286.524.219-.09-.273-.325-.46S1044.042,1219.816,1043.987,1219.883Z" transform="translate(-1042.262 -1219.148)" fill="#ffc5c5"/>
                        </g>
                        <path id="Path_1092" data-name="Path 1092" d="M1028.456,1194.463l5.928,4.964,7.718-.466s.947-2.483-.078-4.314a7.287,7.287,0,0,1-10.934-3.6C1029.174,1191.9,1028.456,1194.463,1028.456,1194.463Z" transform="translate(-1028.852 -1181.688)" fill="#c4374c"/>
                      </g>
                    </g>
                    <path id="Path_1094" data-name="Path 1094" d="M942.777,1077.879l-.067.639c-.053.5-1.187,12.115,6.212,15.194l-.008.024.631.213.513.168.009-.028a8.261,8.261,0,0,0,1.972.24c6.83,0,11.864-8.4,12.075-8.755l.327-.554-10.107-3.833.015-.045-.545-.16-.529-.2-.022.045Zm7.038,15.012-.038-.013c-6.164-2.135-6.159-11.1-6.033-13.6l9.686,2.726.031.012,9.368,3.553c-1.225,1.837-5.532,7.676-10.791,7.676a7.226,7.226,0,0,1-2.161-.335Z" transform="translate(-942.618 -1077.879)" fill="#300808"/>
                  </g>
                  <g id="Group_1893" data-name="Group 1893">
                    <path id="Path_1095" data-name="Path 1095" d="M911.456,980.224c-.27,2.394.335,4.8,1.158,5.584a3.382,3.382,0,0,0,2.521,1.226s1.225,1.416,5.6,2.917l.389.128c4.413,1.394,6.237.984,6.237.984a3.393,3.393,0,0,0,2.76.515c1.127-.144,3.046-1.716,4.255-3.8a6.566,6.566,0,0,0,.88-5.184c-1.09-3.561-7.661-6.392-9.326-7.061l-.389-.128c-1.736-.452-8.7-2.082-11.7.13A6.584,6.584,0,0,0,911.456,980.224Z" transform="translate(-910.073 -973.086)" fill="#fd9493"/>
                    <g id="Group_1891" data-name="Group 1891" transform="translate(14.322 2.566)">
                      <ellipse id="Ellipse_25" data-name="Ellipse 25" cx="2.768" cy="0.63" rx="2.768" ry="0.63" transform="translate(5.085 3.345) rotate(-156.726)" fill="#ffc5c5"/>
                      <path id="Path_1096" data-name="Path 1096" d="M937.658,1023.133c-.163.226.377.88,1.205,1.46s1.633.867,1.8.641-.376-.88-1.205-1.46S937.821,1022.907,937.658,1023.133Z" transform="translate(-931.936 -1019.984)" fill="#ffc5c5"/>
                    </g>
                    <path id="Path_1097" data-name="Path 1097" d="M923.862,1039.941c-.27,2.394.335,4.8,1.158,5.584a3.382,3.382,0,0,0,2.521,1.226s1.225,1.416,5.6,2.917l.389.128c4.413,1.394,6.237.984,6.237.984a3.392,3.392,0,0,0,2.76.515c1.127-.144,3.046-1.716,4.255-3.8-1.4,1.674-3.772,3.388-6.948,1.728a15.43,15.43,0,0,1-11.414-3.762C924.878,1044.906,923.994,1042.121,923.862,1039.941Z" transform="translate(-922.479 -1032.803)" fill="#bd4542" opacity="0.75"/>
                    <path id="Path_1098" data-name="Path 1098" d="M915.863,978.122a2.91,2.91,0,0,1-1.992-.565s-1.826.411-6.236-.985l-.391-.129c-4.375-1.5-5.6-2.915-5.6-2.915a3.383,3.383,0,0,1-2.523-1.227c-1.442-1.379-2.217-7.734,1.224-10.271,3-2.212,9.967-.583,11.7-.13l.391.129c1.664.667,8.233,3.5,9.326,7.061,1.253,4.084-3.156,8.731-5.136,8.981a6.092,6.092,0,0,1-.767.051m0,1.317a7.426,7.426,0,0,0,.932-.061c1.524-.193,3.556-1.827,4.943-3.974a8.04,8.04,0,0,0,1.287-6.7c-1.216-3.963-7.465-6.843-10.095-7.9l-.469-.157a31.443,31.443,0,0,0-7.417-1.07,9.187,9.187,0,0,0-5.479,1.39,8.048,8.048,0,0,0-2.958,6.157c-.163,2.547.5,5.067,1.606,6.127a5.309,5.309,0,0,0,2.892,1.565,18.2,18.2,0,0,0,5.712,2.871l.406.134a18.135,18.135,0,0,0,6.323,1.095A4.85,4.85,0,0,0,915.863,979.439Z" transform="translate(-896.583 -959.579)" fill="#300808"/>
                    <g id="Group_1892" data-name="Group 1892" transform="translate(7.419 4.93)">
                      <path id="Path_1099" data-name="Path 1099" d="M971.521,1059.729a2.294,2.294,0,0,0,.075-1.9s1.46-3.4,3.209-3.222,0,3.078-1.077,4.206A2.594,2.594,0,0,1,971.521,1059.729Z" transform="translate(-962.901 -1051.088)" fill="#300808"/>
                      <path id="Path_1100" data-name="Path 1100" d="M1086.014,1021.309a2.3,2.3,0,0,1,1.074-1.574s.852-3.6-.659-4.5-1.83,2.477-1.641,4.02A2.591,2.591,0,0,0,1086.014,1021.309Z" transform="translate(-1084.739 -1015.089)" fill="#300808"/>
                    </g>
                  </g>
                </g>
                <g id="Group_1897" data-name="Group 1897" transform="translate(17.631 21.083)">
                  <g id="Group_1895" data-name="Group 1895" transform="translate(21.441 7.067)">
                    <ellipse id="Ellipse_26" data-name="Ellipse 26" cx="3.49" cy="4.877" rx="3.49" ry="4.877" transform="matrix(-0.949, -0.314, 0.314, -0.949, 6.625, 11.454)" fill="#0c0b0b"/>
                    <path id="Path_1101" data-name="Path 1101" d="M846.079,938.112c-.27.817-.1,1.609.385,1.768s1.093-.375,1.363-1.192.1-1.609-.385-1.768S846.349,937.295,846.079,938.112Z" transform="translate(-840.456 -932.495)" fill="#fff"/>
                  </g>
                  <g id="Group_1896" data-name="Group 1896" transform="translate(0 0)">
                    <ellipse id="Ellipse_27" data-name="Ellipse 27" cx="3.49" cy="4.877" rx="3.49" ry="4.877" transform="matrix(-0.949, -0.314, 0.314, -0.949, 6.626, 11.454)" fill="#0c0b0b"/>
                    <path id="Path_1102" data-name="Path 1102" d="M1087.469,858.544c-.27.817-.1,1.609.385,1.768s1.093-.375,1.363-1.192.1-1.609-.385-1.768S1087.739,857.727,1087.469,858.544Z" transform="translate(-1081.847 -852.927)" fill="#fff"/>
                  </g>
                </g>
              </g>
            </g>
          </g>
        </g>
      </g>
    </g>
    <g id="Group_2247" data-name="Group 2247" transform="translate(1035.178 -960.951)">
      <rect id="Rectangle_249" data-name="Rectangle 249" width="24.255" height="47.637" transform="translate(86.224 1012.951)" fill="#fff"/>
      <rect id="Rectangle_250" data-name="Rectangle 250" width="24.255" height="21.378" transform="translate(-60.285 1037.36)" fill="#fff"/>
      <g id="Group_2246" data-name="Group 2246" transform="translate(-146.61 1012.955)">
        <g id="Group_2239" data-name="Group 2239" transform="translate(0 0)">
          <path id="Path_1758" data-name="Path 1758" d="M-146.61,1081.476v-68.044h32.587a26.292,26.292,0,0,1,19.1,8.075,26.335,26.335,0,0,1,7.878,19.143,26.378,26.378,0,0,1-7.878,19.178,26.274,26.274,0,0,1-19.105,8.038h-2.913v13.609Z" transform="translate(146.61 -1013.212)" fill="#fff"/>
          <rect id="Rectangle_251" data-name="Rectangle 251" width="29.674" height="68.044" transform="translate(46.66 0.22)" fill="#fff"/>
          <path id="Path_1759" data-name="Path 1759" d="M25.729,1081.476a32.949,32.949,0,0,1-24.083-9.958,34.058,34.058,0,0,1,0-48.129,32.95,32.95,0,0,1,24.083-9.957h28.1V1040.5h.257v40.973Zm-3.15-37.161a4.065,4.065,0,0,0-1.252,3.12,4.5,4.5,0,0,0,3.083,4.2v-8.419A3.933,3.933,0,0,0,22.579,1044.315Z" transform="translate(72.669 -1013.212)" fill="#fff"/>
          <rect id="Rectangle_252" data-name="Rectangle 252" width="29.674" height="68.044" transform="translate(140.541 0.22)" fill="#fff"/>
          <path id="Path_1760" data-name="Path 1760" d="M235.023,1081.476l-8.333-11.744v11.744H197.016v-68.044h25.99l8.417,11.8v-11.8H261.1v68.044Z" transform="translate(-37.109 -1013.212)" fill="#fff"/>
          <path id="Path_1761" data-name="Path 1761" d="M342.106,1081.223a30.115,30.115,0,0,1-30.042-30.042v-38.222h29.675v38.222a.8.8,0,0,0,.013.172s.027.039.082.1a.779.779,0,0,0,.113.086h0a1.333,1.333,0,0,0,.159.009c.169,0,.2,0,.3-.086a.819.819,0,0,0,.1-.123,1.517,1.517,0,0,0,.008-.159v-38.222h29.674v38.222a30.114,30.114,0,0,1-30.078,30.042Z" transform="translate(-98.619 -1012.959)" fill="#fff"/>
        </g>
        <g id="Group_2240" data-name="Group 2240" transform="translate(1.436 2.438)">
          <path id="Path_1762" data-name="Path 1762" d="M-143.524,1083.842V1018.67h31.1a24.927,24.927,0,0,1,18.136,7.65,24.944,24.944,0,0,1,7.462,18.132,24.985,24.985,0,0,1-7.462,18.168,24.885,24.885,0,0,1-18.095,7.614h-4.339v13.609Z" transform="translate(143.524 -1018.45)" fill="#fff"/>
          <rect id="Rectangle_253" data-name="Rectangle 253" width="26.802" height="65.172" transform="translate(46.66 0.22)" fill="#fff"/>
          <path id="Path_1763" data-name="Path 1763" d="M27.379,1083.842a31.559,31.559,0,0,1-23.067-9.537,32.622,32.622,0,0,1,0-46.1,31.557,31.557,0,0,1,23.067-9.536H54.041v26.766H27.379a5.429,5.429,0,0,0-4.17,1.671,5.5,5.5,0,0,0-1.668,4.131,5.826,5.826,0,0,0,5.838,5.8H27.5v-11.3H54.3v38.1Z" transform="translate(69.583 -1018.45)" fill="#fff"/>
          <rect id="Rectangle_254" data-name="Rectangle 254" width="26.802" height="65.172" transform="translate(140.541 0.22)" fill="#fff"/>
          <path id="Path_1764" data-name="Path 1764" d="M237.414,1083.842,226.9,1069.029v14.813H200.1V1018.67h23.814l10.593,14.854V1018.67h26.8v65.172Z" transform="translate(-40.195 -1018.45)" fill="#fff"/>
          <path id="Path_1765" data-name="Path 1765" d="M343.756,1083.589a28.678,28.678,0,0,1-28.606-28.606V1018.2h26.8v36.786a1.759,1.759,0,0,0,1.8,1.8,1.738,1.738,0,0,0,1.326-.516,1.652,1.652,0,0,0,.514-1.288V1018.2h26.8v36.786a28.679,28.679,0,0,1-28.642,28.606Z" transform="translate(-101.705 -1018.197)" fill="#fff"/>
        </g>
        <g id="Group_2241" data-name="Group 2241" transform="translate(7.374 10.561)" opacity="0.53">
          <path id="Path_1766" data-name="Path 1766" d="M-130.763,1091.283v-55.156h26.092a20.059,20.059,0,0,1,14.578,6.166,20.1,20.1,0,0,1,6.012,14.608,20.136,20.136,0,0,1-6.012,14.643,20.036,20.036,0,0,1-14.571,6.13h-9.313v13.609Zm24.772-30.982a2.546,2.546,0,0,0,1.86-.771,2.546,2.546,0,0,0,.77-1.86,2.544,2.544,0,0,0-.771-1.859,2.543,2.543,0,0,0-1.859-.77h-7.986v5.26Z" transform="translate(130.763 -1035.907)" fill="#fff"/>
          <rect id="Rectangle_255" data-name="Rectangle 255" width="16.786" height="55.156" transform="translate(46.66 0.22)" fill="#fff"/>
          <path id="Path_1767" data-name="Path 1767" d="M35.133,1091.283a26.714,26.714,0,0,1-19.526-8.07,27.614,27.614,0,0,1,0-39.016,26.711,26.711,0,0,1,19.526-8.07H56.787v16.749H35.133a10.81,10.81,0,1,0,0,21.62h5.124v-11.3H57.043v28.084Z" transform="translate(56.821 -1035.907)" fill="#fff"/>
          <rect id="Rectangle_256" data-name="Rectangle 256" width="16.786" height="55.156" transform="translate(140.542 0.22)" fill="#fff"/>
          <path id="Path_1768" data-name="Path 1768" d="M247.755,1091.283l-18.106-25.517v25.517H212.863v-55.156H229.09l18.181,25.494v-25.494h16.786v55.156Z" transform="translate(-52.956 -1035.907)" fill="#fff"/>
          <path id="Path_1769" data-name="Path 1769" d="M351.51,1091.03a23.671,23.671,0,0,1-23.6-23.6v-31.778H344.7v31.778a6.762,6.762,0,0,0,6.812,6.812,6.765,6.765,0,0,0,4.876-1.989,6.624,6.624,0,0,0,1.973-4.823v-31.778h16.786v31.778a23.67,23.67,0,0,1-23.634,23.6Z" transform="translate(-114.467 -1035.654)" fill="#fff"/>
        </g>
        <g id="Group_2242" data-name="Group 2242" transform="translate(6.444 8.447)" opacity="0.07">
          <path id="Path_1770" data-name="Path 1770" d="M-132.763,1086.74v-55.156h26.092a20.059,20.059,0,0,1,14.578,6.166,20.1,20.1,0,0,1,6.012,14.608A20.136,20.136,0,0,1-92.093,1067a20.036,20.036,0,0,1-14.571,6.13h-9.313v13.609Zm24.772-30.982a2.546,2.546,0,0,0,1.86-.771,2.546,2.546,0,0,0,.77-1.859,2.545,2.545,0,0,0-.771-1.86,2.543,2.543,0,0,0-1.859-.77h-7.986v5.259Z" transform="translate(132.763 -1031.364)" fill="#fff"/>
          <rect id="Rectangle_257" data-name="Rectangle 257" width="16.786" height="55.156" transform="translate(46.66 0.22)" fill="#fff"/>
          <path id="Path_1771" data-name="Path 1771" d="M33.133,1086.74a26.714,26.714,0,0,1-19.526-8.07,27.614,27.614,0,0,1,0-39.016,26.71,26.71,0,0,1,19.526-8.07H54.787v16.749H33.133a10.81,10.81,0,1,0,0,21.62h5.124v-11.3H55.043v28.084Z" transform="translate(58.821 -1031.364)" fill="#fff"/>
          <rect id="Rectangle_258" data-name="Rectangle 258" width="16.786" height="55.156" transform="translate(140.542 0.22)" fill="#fff"/>
          <path id="Path_1772" data-name="Path 1772" d="M245.755,1086.74l-18.106-25.517v25.517H210.863v-55.156H227.09l18.181,25.494v-25.494h16.786v55.156Z" transform="translate(-50.956 -1031.364)" fill="#fff"/>
          <path id="Path_1773" data-name="Path 1773" d="M349.51,1086.487a23.67,23.67,0,0,1-23.6-23.6v-31.778H342.7v31.778a6.762,6.762,0,0,0,6.812,6.812,6.765,6.765,0,0,0,4.876-1.989,6.624,6.624,0,0,0,1.973-4.823v-31.778h16.786v31.778a23.669,23.669,0,0,1-23.634,23.6Z" transform="translate(-112.467 -1031.111)" fill="#fff"/>
        </g>
        <g id="Group_2243" data-name="Group 2243" transform="translate(6.944 6.945)">
          <path id="Path_1774" data-name="Path 1774" d="M-131.687,1082.51v-54.155H-106.1a19.576,19.576,0,0,1,14.222,6.017,19.613,19.613,0,0,1,5.867,14.256,19.655,19.655,0,0,1-5.867,14.291,19.555,19.555,0,0,1-14.219,5.981h-9.81v13.61Zm24.271-29.981a3.031,3.031,0,0,0,2.214-.917,3.033,3.033,0,0,0,.917-2.214,3.031,3.031,0,0,0-.917-2.214,3.03,3.03,0,0,0-2.213-.916H-115.9v6.261Z" transform="translate(131.687 -1028.135)" fill="#fff"/>
          <rect id="Rectangle_259" data-name="Rectangle 259" width="15.784" height="54.154" transform="translate(46.66 0.22)" fill="#fff"/>
          <path id="Path_1775" data-name="Path 1775" d="M33.708,1082.51a26.226,26.226,0,0,1-19.172-7.924,27.113,27.113,0,0,1,0-38.307,26.228,26.228,0,0,1,19.172-7.923H54.861V1044.1H33.708a10.9,10.9,0,0,0-8.083,3.3,11.368,11.368,0,0,0,.073,16.019,10.813,10.813,0,0,0,8.01,3.3h5.625v-11.3H55.118v27.083Z" transform="translate(57.745 -1028.135)" fill="#fff"/>
          <rect id="Rectangle_260" data-name="Rectangle 260" width="15.784" height="54.154" transform="translate(140.542 0.22)" fill="#fff"/>
          <path id="Path_1776" data-name="Path 1776" d="M246.589,1082.51l-18.865-26.588v26.588H211.939v-54.154h15.468l18.94,26.558v-26.558h15.785v54.154Z" transform="translate(-52.032 -1028.136)" fill="#fff"/>
          <path id="Path_1777" data-name="Path 1777" d="M350.085,1082.258a23.17,23.17,0,0,1-23.1-23.1v-31.277h15.785v31.277a7.264,7.264,0,0,0,7.313,7.313,7.25,7.25,0,0,0,5.226-2.132,7.108,7.108,0,0,0,2.123-5.181v-31.277h15.784v31.277a23.171,23.171,0,0,1-23.134,23.1Z" transform="translate(-113.543 -1027.883)" fill="#fff"/>
        </g>
        <g id="Group_2244" data-name="Group 2244" transform="translate(7.946 6.945)">
          <path id="Path_1778" data-name="Path 1778" d="M-129.534,1080.506v-52.151h24.59a18.6,18.6,0,0,1,13.51,5.721,18.642,18.642,0,0,1,5.578,13.55,18.683,18.683,0,0,1-5.578,13.586,18.582,18.582,0,0,1-13.513,5.685h-10.8v13.609Zm13.781-27.977h9.488a4.052,4.052,0,0,0,2.921-1.211,4.052,4.052,0,0,0,1.211-2.922,4.053,4.053,0,0,0-1.21-2.922,4.051,4.051,0,0,0-2.922-1.21h-9.488Z" transform="translate(129.534 -1028.135)"/>
          <rect id="Rectangle_261" data-name="Rectangle 261" width="13.781" height="52.151" transform="translate(46.66 0.22)"/>
          <path id="Path_1779" data-name="Path 1779" d="M34.859,1080.506a25.261,25.261,0,0,1-18.464-7.63,26.111,26.111,0,0,1,0-36.891,25.26,25.26,0,0,1,18.464-7.63H55.01V1042.1H34.859a11.855,11.855,0,0,0-8.79,3.594,12.35,12.35,0,0,0,8.79,21.031h6.627v-11.3H55.267v25.08Z" transform="translate(55.593 -1028.135)"/>
          <rect id="Rectangle_262" data-name="Rectangle 262" width="13.781" height="52.151" transform="translate(140.541 0.22)"/>
          <path id="Path_1780" data-name="Path 1780" d="M248.258,1080.507l-20.384-28.729v28.729H214.092v-52.151h13.951l20.457,28.685v-28.685h13.781v52.151Z" transform="translate(-54.185 -1028.136)"/>
          <path id="Path_1781" data-name="Path 1781" d="M351.236,1080.254a22.168,22.168,0,0,1-22.1-22.1v-30.275h13.781v30.275a8.332,8.332,0,1,0,16.665,0v-30.275h13.781v30.275a22.168,22.168,0,0,1-22.132,22.1Z" transform="translate(-115.696 -1027.883)"/>
        </g>
        <g id="Group_2245" data-name="Group 2245" transform="translate(7.446 6.444)">
          <path id="Path_1782" data-name="Path 1782" d="M-105.52,1027.279a19.02,19.02,0,0,1,13.866,5.869,19.025,19.025,0,0,1,5.722,13.9,19.107,19.107,0,0,1-5.722,13.939,18.986,18.986,0,0,1-13.866,5.833h-10.308v13.609H-130.61v-53.153Zm-1.32,24.174a3.545,3.545,0,0,0,2.567-1.064,3.545,3.545,0,0,0,1.064-2.568,3.547,3.547,0,0,0-1.064-2.568,3.545,3.545,0,0,0-2.567-1.063h-8.987v7.263Z" transform="translate(130.61 -1027.059)"/>
          <path id="Path_1783" data-name="Path 1783" d="M-30.342,1027.279h14.783v53.153H-30.342Z" transform="translate(77.002 -1027.059)"/>
          <path id="Path_1784" data-name="Path 1784" d="M40.409,1054.35H55.193v26.082H34.283a25.642,25.642,0,0,1-18.818-7.777,26.612,26.612,0,0,1,0-37.6,25.642,25.642,0,0,1,18.818-7.776H54.936v14.747H34.283a11.812,11.812,0,1,0,0,23.623h6.126Z" transform="translate(56.669 -1027.059)"/>
          <path id="Path_1785" data-name="Path 1785" d="M171.4,1027.279h14.783v53.153H171.4Z" transform="translate(-30.86 -1027.059)"/>
          <path id="Path_1786" data-name="Path 1786" d="M247.424,1027.279h14.783v53.153H247.424L227.8,1052.773v27.659H213.016v-53.153h14.709l19.7,27.622Z" transform="translate(-53.109 -1027.059)"/>
          <path id="Path_1787" data-name="Path 1787" d="M358.511,1026.807h14.783v30.776a22.615,22.615,0,0,1-45.229,0v-30.776h14.783v30.776a7.764,7.764,0,0,0,7.813,7.813,7.732,7.732,0,0,0,5.576-2.274,7.649,7.649,0,0,0,2.274-5.54Z" transform="translate(-114.62 -1026.807)"/>
        </g>
      </g>
    </g>
  </g>
</svg>
