<svg xmlns="http://www.w3.org/2000/svg" width="26.005" height="24.181" viewBox="0 0 26.005 24.181">
  <g id="MetaMask_Fox" transform="translate(0.5 0.5)">
    <path id="Path_994" data-name="Path 994" d="M184.357,35.5,174.6,42.747l1.8-4.275Z" transform="translate(-160.597 -35.5)" fill="#e2761b" stroke="#e2761b" stroke-linecap="round" stroke-linejoin="round" stroke-width="1"/>
    <g id="Group_1818" data-name="Group 1818" transform="translate(0.206 0)">
      <path id="Path_995" data-name="Path 995" d="M44.4,35.5l9.678,7.315-1.716-4.344Z" transform="translate(-43.37 -35.5)" fill="#e4761b" stroke="#e4761b" stroke-linecap="round" stroke-linejoin="round" stroke-width="1"/>
      <path id="Path_996" data-name="Path 996" d="M214.4,206.8l-2.6,3.981,5.56,1.53,1.6-5.423Z" transform="translate(-194.355 -190.003)" fill="#e4761b" stroke="#e4761b" stroke-linecap="round" stroke-linejoin="round" stroke-width="1"/>
      <path id="Path_997" data-name="Path 997" d="M33.9,206.888l1.589,5.423,5.56-1.53-2.6-3.981Z" transform="translate(-33.9 -190.003)" fill="#e4761b" stroke="#e4761b" stroke-linecap="round" stroke-linejoin="round" stroke-width="1"/>
      <path id="Path_998" data-name="Path 998" d="M89.349,107.444,87.8,109.787l5.521.245-.2-5.933Z" transform="translate(-82.515 -97.373)" fill="#e4761b" stroke="#e4761b" stroke-linecap="round" stroke-linejoin="round" stroke-width="1"/>
      <path id="Path_999" data-name="Path 999" d="M178.552,106.812l-3.824-3.412-.127,6,5.511-.245Z" transform="translate(-160.803 -96.742)" fill="#e4761b" stroke="#e4761b" stroke-linecap="round" stroke-linejoin="round" stroke-width="1"/>
      <path id="Path_1000" data-name="Path 1000" d="M106.8,211.954l3.314-1.618-2.863-2.236Z" transform="translate(-99.652 -191.175)" fill="#e4761b" stroke="#e4761b" stroke-linecap="round" stroke-linejoin="round" stroke-width="1"/>
      <path id="Path_1001" data-name="Path 1001" d="M177.9,210.336l3.324,1.618-.461-3.854Z" transform="translate(-163.78 -191.175)" fill="#e4761b" stroke="#e4761b" stroke-linecap="round" stroke-linejoin="round" stroke-width="1"/>
    </g>
    <g id="Group_1819" data-name="Group 1819" transform="translate(7.354 19.161)">
      <path id="Path_1002" data-name="Path 1002" d="M181.224,232.518,177.9,230.9l.265,2.167-.029.912Z" transform="translate(-170.928 -230.9)" fill="#d7c1b3" stroke="#d7c1b3" stroke-linecap="round" stroke-linejoin="round" stroke-width="1"/>
      <path id="Path_1003" data-name="Path 1003" d="M106.8,232.518l3.089,1.461-.02-.912.245-2.167Z" transform="translate(-106.8 -230.9)" fill="#d7c1b3" stroke="#d7c1b3" stroke-linecap="round" stroke-linejoin="round" stroke-width="1"/>
    </g>
    <path id="Path_1004" data-name="Path 1004" d="M113.365,177.806l-2.765-.814,1.951-.892Z" transform="translate(-102.873 -162.313)" fill="#233447" stroke="#233447" stroke-linecap="round" stroke-linejoin="round" stroke-width="1"/>
    <path id="Path_1005" data-name="Path 1005" d="M179.7,177.806l.814-1.706,1.961.892Z" transform="translate(-165.197 -162.313)" fill="#233447" stroke="#233447" stroke-linecap="round" stroke-linejoin="round" stroke-width="1"/>
    <g id="Group_1820" data-name="Group 1820" transform="translate(4.756 12.414)">
      <path id="Path_1006" data-name="Path 1006" d="M82.9,210.781l.471-3.981-3.069.088Z" transform="translate(-80.3 -202.417)" fill="#cd6116" stroke="#cd6116" stroke-linecap="round" stroke-linejoin="round" stroke-width="1"/>
      <path id="Path_1007" data-name="Path 1007" d="M207,206.8l.471,3.981,2.6-3.893Z" transform="translate(-194.576 -202.417)" fill="#cd6116" stroke="#cd6116" stroke-linecap="round" stroke-linejoin="round" stroke-width="1"/>
      <path id="Path_1008" data-name="Path 1008" d="M180.111,162.1l-5.511.245.51,2.834.814-1.706,1.961.892Z" transform="translate(-165.353 -162.1)" fill="#cd6116" stroke="#cd6116" stroke-linecap="round" stroke-linejoin="round" stroke-width="1"/>
      <path id="Path_1009" data-name="Path 1009" d="M90.036,164.365,92,163.473l.8,1.706.52-2.834L87.8,162.1Z" transform="translate(-87.065 -162.1)" fill="#cd6116" stroke="#cd6116" stroke-linecap="round" stroke-linejoin="round" stroke-width="1"/>
    </g>
    <g id="Group_1821" data-name="Group 1821" transform="translate(5.491 12.414)">
      <path id="Path_1010" data-name="Path 1010" d="M87.8,162.1l2.314,4.511-.078-2.246Z" transform="translate(-87.8 -162.1)" fill="#e4751f" stroke="#e4751f" stroke-linecap="round" stroke-linejoin="round" stroke-width="1"/>
      <path id="Path_1011" data-name="Path 1011" d="M207.2,164.365l-.1,2.246,2.324-4.511Z" transform="translate(-195.402 -162.1)" fill="#e4751f" stroke="#e4751f" stroke-linecap="round" stroke-linejoin="round" stroke-width="1"/>
      <path id="Path_1012" data-name="Path 1012" d="M139.32,164.6l-.52,2.834.647,3.344.147-4.4Z" transform="translate(-133.799 -164.355)" fill="#e4751f" stroke="#e4751f" stroke-linecap="round" stroke-linejoin="round" stroke-width="1"/>
      <path id="Path_1013" data-name="Path 1013" d="M172.165,164.6l-.265,1.765.118,4.413.657-3.344Z" transform="translate(-163.653 -164.355)" fill="#e4751f" stroke="#e4751f" stroke-linecap="round" stroke-linejoin="round" stroke-width="1"/>
    </g>
    <path id="Path_1014" data-name="Path 1014" d="M173.757,186.014l-.657,3.344.471.324,2.863-2.236.1-2.246Z" transform="translate(-159.244 -170.521)" fill="#f6851b" stroke="#f6851b" stroke-linecap="round" stroke-linejoin="round" stroke-width="1"/>
    <path id="Path_1015" data-name="Path 1015" d="M110.6,185.2l.078,2.246,2.863,2.236.471-.324-.647-3.344Z" transform="translate(-102.873 -170.521)" fill="#f6851b" stroke="#f6851b" stroke-linecap="round" stroke-linejoin="round" stroke-width="1"/>
    <path id="Path_1016" data-name="Path 1016" d="M114.007,248.861l.029-.912-.245-.216h-3.7l-.226.216.02.912L106.8,247.4l1.079.883,2.187,1.52h3.756l2.2-1.52,1.079-.883Z" transform="translate(-99.446 -226.621)" fill="#c0ad9e" stroke="#c0ad9e" stroke-linecap="round" stroke-linejoin="round" stroke-width="1"/>
    <path id="Path_1017" data-name="Path 1017" d="M142,227.924l-.471-.324h-2.716l-.471.324-.245,2.167.226-.216h3.7l.245.216Z" transform="translate(-127.676 -208.763)" fill="#161616" stroke="#161616" stroke-linecap="round" stroke-linejoin="round" stroke-width="1"/>
    <g id="Group_1822" data-name="Group 1822" transform="translate(0 0)">
      <path id="Path_1018" data-name="Path 1018" d="M187.745,43.217l.833-4L187.333,35.5l-9.433,7,3.628,3.069,5.128,1.5,1.137-1.324-.49-.353.784-.716-.608-.471.784-.6Z" transform="translate(-163.574 -35.5)" fill="#763d16" stroke="#763d16" stroke-linecap="round" stroke-linejoin="round" stroke-width="1"/>
      <path id="Path_1019" data-name="Path 1019" d="M31.8,39.216l.833,4-.53.392.784.6-.6.471.784.716-.49.353,1.128,1.324,5.128-1.5L42.469,42.5l-9.433-7Z" transform="translate(-31.8 -35.5)" fill="#763d16" stroke="#763d16" stroke-linecap="round" stroke-linejoin="round" stroke-width="1"/>
    </g>
    <path id="Path_1020" data-name="Path 1020" d="M212.993,139.7l-5.128-1.5,1.559,2.344-2.324,4.511,3.059-.039h4.56Z" transform="translate(-189.91 -128.129)" fill="#f6851b" stroke="#f6851b" stroke-linecap="round" stroke-linejoin="round" stroke-width="1"/>
    <path id="Path_1021" data-name="Path 1021" d="M40.735,138.2l-5.128,1.5L33.9,145.015h4.55l3.05.039-2.314-4.511Z" transform="translate(-33.694 -128.129)" fill="#f6851b" stroke="#f6851b" stroke-linecap="round" stroke-linejoin="round" stroke-width="1"/>
    <path id="Path_1022" data-name="Path 1022" d="M130.4,75.488l.324-5.658,1.49-4.03H125.6l1.471,4.03.343,5.658.118,1.785.01,4.393h2.716l.02-4.393Z" transform="translate(-116.402 -62.829)" fill="#f6851b" stroke="#f6851b" stroke-linecap="round" stroke-linejoin="round" stroke-width="1"/>
  </g>
</svg>
