<svg xmlns="http://www.w3.org/2000/svg" xmlns:xlink="http://www.w3.org/1999/xlink" width="401.072" height="479.582" viewBox="0 0 401.072 479.582">
  <defs>
    <clipPath id="clip-path">
      <path id="Path_1715" data-name="Path 1715" d="M805.588,789.6l-39.641,11.156-.007-.02-.22.083-.227.064.006.02L727,815.5s23.967,40.622,53.675,31.323l.007.021c.076-.025.144-.058.22-.084s.151-.038.227-.063l-.007-.021C810.533,836.488,805.588,789.6,805.588,789.6Z" transform="translate(-726.998 -789.596)" fill="none"/>
    </clipPath>
  </defs>
  <g id="Group_2224" data-name="Group 2224" transform="translate(-296.429 -274.338)">
    <g id="Group_2223" data-name="Group 2223" transform="translate(296.429 274.338)">
      <g id="Group_2138" data-name="Group 2138" transform="translate(0 360.681)">
        <g id="Group_2125" data-name="Group 2125">
          <g id="Group_2119" data-name="Group 2119" transform="translate(22.495)">
            <g id="Group_2114" data-name="Group 2114" transform="translate(3.294 3.107)">
              <path id="Path_1648" data-name="Path 1648" d="M519.532,1407.965c-47.3,36.937-123.77,33.7-123.77,33.7L385.2,1409.106l-12.131-37.364-1.283-3.953c14.9-9.72,44.065-11.016,44.065-11.016l36.263-19.09.674-.35c34.941,16.887,52.048,39.244,60.1,54.239C518.119,1401.329,519.532,1407.965,519.532,1407.965Z" transform="translate(-371.785 -1337.332)" fill="#fd9493"/>
            </g>
            <g id="Group_2115" data-name="Group 2115" transform="translate(3.294 3.457)">
              <path id="Path_1649" data-name="Path 1649" d="M429.678,1358.093l6.908,3.46s-32.828,4.743-49.677,14.256c-3.732,2.1-8.567.454-13.841-3.4l-1.283-3.953c14.9-9.72,44.065-11.016,44.065-11.016l36.263-19.09,2.19,2.463Z" transform="translate(-371.785 -1338.355)" fill="#ffc5c5"/>
            </g>
            <g id="Group_2116" data-name="Group 2116" transform="translate(16.708 55.433)" opacity="0.75">
              <path id="Path_1650" data-name="Path 1650" d="M545.314,1510.265c-47.3,36.937-123.77,33.7-123.77,33.7l-10.562-32.556,6.895-8.269s24.624,26.348,61.12,23.108,12.312-35.848,12.312-35.848,24.844-1.322,47.357,3.473C543.9,1503.63,545.314,1510.265,545.314,1510.265Z" transform="translate(-410.981 -1490.23)" fill="#bd4542"/>
            </g>
            <g id="Group_2117" data-name="Group 2117">
              <path id="Path_1651" data-name="Path 1651" d="M394.338,1438.543c-3.02,0-4.795-.07-5.026-.08l-1.926-.082-25.227-77.726,1.779-1.16c14.308-9.332,40.334-11.179,44.828-11.432l37.635-19.808,1.26.609c30.354,14.666,47.261,33.5,56.1,46.722,9.663,14.453,12.055,25.376,12.153,25.834l.359,1.7-1.366,1.066c-11.026,8.61-24.51,15.768-40.077,21.276a223.745,223.745,0,0,1-40.837,9.979A270.67,270.67,0,0,1,394.338,1438.543Zm-2.876-5.577a263.278,263.278,0,0,0,41.811-3.032c22.022-3.359,53.013-11.119,76.77-29.014a84.813,84.813,0,0,0-11.066-22.508c-8.334-12.386-24.176-29.983-52.474-43.941l-36.24,19.074-.62.028c-.272.013-26.311,1.271-40.872,9.478Z" transform="translate(-362.159 -1328.254)" fill="#300808"/>
            </g>
            <g id="Group_2118" data-name="Group 2118" transform="translate(46.788 19.833)">
              <path id="Path_1652" data-name="Path 1652" d="M500.016,1386.205l11.741,5.307-12.884.122Z" transform="translate(-498.873 -1386.205)" fill="#300808"/>
            </g>
          </g>
          <g id="Group_2124" data-name="Group 2124" transform="translate(0 17.966)">
            <g id="Group_2120" data-name="Group 2120" transform="translate(2.598 1.497)">
              <path id="Path_1653" data-name="Path 1653" d="M353.936,1481.678a32.048,32.048,0,0,1-3.668.285c-17.9.544-34.643-12.986-42.989-40.462-6.027-19.868-2.4-35.9.57-43.326a79.641,79.641,0,0,1,3.966-8.022l6.169,7.452v-12.481c35.472,1.788,55.081,32.4,58.477,52.826C379.857,1458.349,373.376,1479.086,353.936,1481.678Z" transform="translate(-304.021 -1385.124)" fill="#a45f4e"/>
            </g>
            <g id="Group_2121" data-name="Group 2121" transform="translate(17.857 4.089)" opacity="0.46">
              <path id="Path_1654" data-name="Path 1654" d="M383.264,1485.364a32.1,32.1,0,0,1-3.668.285c7.737-6.908,16.5-20.114,14.036-43.7-3.72-35.926-37.183-44.959-45.024-46.54V1392.7c35.472,1.788,52.489,29.809,55.885,50.234C407.888,1463.332,402.7,1482.772,383.264,1485.364Z" transform="translate(-348.608 -1392.698)" fill="#0c0b0b"/>
            </g>
            <g id="Group_2122" data-name="Group 2122" transform="translate(7.722 9.118)" opacity="0.46">
              <path id="Path_1655" data-name="Path 1655" d="M330.256,1429.269l-11.262-16.447a32.465,32.465,0,0,1,2.67-5.43l7.465,10.044v-8.126Z" transform="translate(-318.994 -1407.392)" fill="#0c0b0b"/>
            </g>
            <g id="Group_2123" data-name="Group 2123">
              <path id="Path_1656" data-name="Path 1656" d="M314.286,1384.839c35.472,1.788,52.489,29.808,55.885,50.234,3.4,20.4-1.788,39.84-21.229,42.432a32.043,32.043,0,0,1-3.668.285c-.248.005-.5.008-.746.008-25.3,0-39.089-27.457-43.052-49.107-2.027-11.073-1.53-22.86,2.675-33.393a32.467,32.467,0,0,1,2.67-5.43l7.465,10.044v-15.073m-3.888-4.089v7.412l-.456-.614-3.3-4.438-3.06,4.605a35.747,35.747,0,0,0-3.043,6.141c-4.213,10.553-5.211,22.84-2.888,35.534,2.335,12.758,7.52,25.256,14.227,34.29,8.745,11.779,20.035,18.005,32.65,18.005.273,0,.552,0,.828-.009a36.146,36.146,0,0,0,4.113-.32c7.963-1.062,14.263-4.652,18.712-10.669,6.243-8.443,8.311-21.318,5.825-36.254a67.66,67.66,0,0,0-16.9-34.118,60.025,60.025,0,0,0-17.909-13.249,64.006,64.006,0,0,0-24.711-6.111l-4.084-.206Z" transform="translate(-296.429 -1380.75)" fill="#0c0b0b"/>
            </g>
          </g>
        </g>
        <g id="Group_2137" data-name="Group 2137" transform="translate(224.463)">
          <g id="Group_2131" data-name="Group 2131">
            <g id="Group_2126" data-name="Group 2126" transform="translate(3.074 3.107)">
              <path id="Path_1657" data-name="Path 1657" d="M961.3,1407.965c47.3,36.937,123.77,33.7,123.77,33.7l10.563-32.556,12.131-37.364,1.283-3.953c-14.9-9.72-44.065-11.016-44.065-11.016l-36.263-19.09-.674-.35c-34.94,16.887-52.048,39.244-60.1,54.239C962.708,1401.329,961.3,1407.965,961.3,1407.965Z" transform="translate(-961.295 -1337.332)" fill="#fd9493"/>
            </g>
            <g id="Group_2127" data-name="Group 2127" transform="translate(68.302 3.457)">
              <path id="Path_1658" data-name="Path 1658" d="M1176.519,1358.093l-6.908,3.46s32.828,4.743,49.676,14.256c3.733,2.1,8.567.454,13.841-3.4l1.283-3.953c-14.9-9.72-44.065-11.016-44.065-11.016l-36.263-19.09-2.19,2.463Z" transform="translate(-1151.895 -1338.355)" fill="#ffc5c5"/>
            </g>
            <g id="Group_2128" data-name="Group 2128" transform="translate(3.074 55.433)" opacity="0.75">
              <path id="Path_1659" data-name="Path 1659" d="M961.3,1510.265c47.3,36.937,123.77,33.7,123.77,33.7l10.563-32.556-6.895-8.269s-24.624,26.348-61.121,23.108S1015.3,1490.4,1015.3,1490.4s-24.845-1.322-47.357,3.473C962.708,1503.63,961.3,1510.265,961.3,1510.265Z" transform="translate(-961.295 -1490.23)" fill="#bd4542"/>
            </g>
            <g id="Group_2129" data-name="Group 2129">
              <path id="Path_1660" data-name="Path 1660" d="M1074.249,1438.543a270.666,270.666,0,0,1-39.655-3.107,223.729,223.729,0,0,1-40.837-9.979c-15.567-5.508-29.051-12.667-40.077-21.276l-1.367-1.066.36-1.7c.1-.458,2.49-11.381,12.153-25.834,8.838-13.219,25.745-32.057,56.1-46.722l1.26-.609,37.636,19.808c4.493.253,30.52,2.1,44.828,11.432l1.779,1.16-25.227,77.726-1.926.082C1079.044,1438.472,1077.269,1438.543,1074.249,1438.543Zm-115.707-37.625c23.757,17.9,54.75,25.657,76.773,29.016a263.309,263.309,0,0,0,41.811,3.032l22.692-69.915c-14.56-8.207-40.6-9.465-40.871-9.478l-.62-.028-36.241-19.074c-28.441,14.029-44.313,31.733-52.647,44.2A84.071,84.071,0,0,0,958.542,1400.917Z" transform="translate(-952.314 -1328.254)" fill="#300808"/>
            </g>
            <g id="Group_2130" data-name="Group 2130" transform="translate(94.443 19.833)">
              <path id="Path_1661" data-name="Path 1661" d="M1241.161,1391.634l-12.884-.122,11.741-5.307Z" transform="translate(-1228.278 -1386.205)" fill="#300808"/>
            </g>
          </g>
          <g id="Group_2136" data-name="Group 2136" transform="translate(98.006 17.966)">
            <g id="Group_2132" data-name="Group 2132" transform="translate(2.704 1.497)">
              <path id="Path_1662" data-name="Path 1662" d="M1269.977,1481.678a32.048,32.048,0,0,0,3.668.285c17.9.544,34.643-12.986,42.989-40.462,6.027-19.868,2.4-35.9-.57-43.326a79.589,79.589,0,0,0-3.966-8.022l-6.169,7.452v-12.481c-35.472,1.788-55.081,32.4-58.477,52.826C1244.056,1458.349,1250.537,1479.086,1269.977,1481.678Z" transform="translate(-1246.591 -1385.124)" fill="#a45f4e"/>
            </g>
            <g id="Group_2133" data-name="Group 2133" transform="translate(3.893 4.089)" opacity="0.46">
              <path id="Path_1663" data-name="Path 1663" d="M1272.262,1485.364a32.1,32.1,0,0,0,3.668.285c-7.737-6.908-16.5-20.114-14.036-43.7,3.72-35.926,37.183-44.959,45.024-46.54V1392.7c-35.472,1.788-52.489,29.809-55.884,50.234C1247.638,1463.332,1252.822,1482.772,1272.262,1485.364Z" transform="translate(-1250.066 -1392.698)" fill="#0c0b0b"/>
            </g>
            <g id="Group_2134" data-name="Group 2134" transform="translate(59.618 9.118)" opacity="0.46">
              <path id="Path_1664" data-name="Path 1664" d="M1412.894,1429.269l11.262-16.447a32.458,32.458,0,0,0-2.67-5.43l-7.465,10.044v-8.126Z" transform="translate(-1412.894 -1407.392)" fill="#0c0b0b"/>
            </g>
            <g id="Group_2135" data-name="Group 2135">
              <path id="Path_1665" data-name="Path 1665" d="M1299.435,1384.839v15.073l7.465-10.044a32.435,32.435,0,0,1,2.67,5.43c4.2,10.532,4.7,22.319,2.674,33.393-3.962,21.65-17.751,49.107-43.052,49.107-.246,0-.5,0-.746-.008a32.05,32.05,0,0,1-3.668-.285c-19.44-2.592-24.624-22.032-21.229-42.432,3.4-20.425,20.413-48.445,55.885-50.234m3.888-4.089-4.084.206a64.008,64.008,0,0,0-24.711,6.111,60.024,60.024,0,0,0-17.909,13.249,67.66,67.66,0,0,0-16.9,34.118c-2.486,14.935-.417,27.81,5.825,36.253,4.448,6.017,10.749,9.607,18.725,10.67a36.065,36.065,0,0,0,4.1.318c.276.006.554.009.828.009,12.615,0,23.905-6.226,32.65-18.005,6.706-9.033,11.891-21.531,14.227-34.29,2.323-12.694,1.325-24.982-2.888-35.534a35.777,35.777,0,0,0-3.042-6.141l-3.061-4.605-3.3,4.438-.456.614v-7.412Z" transform="translate(-1238.689 -1380.75)" fill="#0c0b0b"/>
            </g>
          </g>
        </g>
      </g>
      <g id="Group_2139" data-name="Group 2139" transform="translate(78.276 193.361)">
        <path id="Path_1666" data-name="Path 1666" d="M769.672,966.676a132.183,132.183,0,0,1-3.2,29.044c-12.61,56.325-61.12,98.291-119.053,98.291-63.985,0-116.487-51.18-121.8-116.37q-.466-5.423-.466-10.964c0-70.322,54.731-127.334,122.267-127.334S769.672,896.354,769.672,966.676Z" transform="translate(-525.152 -839.342)" fill="#fd9493"/>
      </g>
      <g id="Group_2140" data-name="Group 2140" transform="translate(78.742 331.659)" opacity="0.75">
        <path id="Path_1667" data-name="Path 1667" d="M767.367,1261.532c-12.61,56.325-61.12,98.29-119.053,98.29-63.985,0-116.487-51.18-121.8-116.37,24.145,14.334,58.347,27.216,87.987,10.744,0,0,22.68,50.545-22.033,54.433s24.625,55.081,78.41,38.881S722.071,1284,722.071,1284l37.585-25.272Z" transform="translate(-526.514 -1243.452)" fill="#bd4542"/>
      </g>
      <g id="Group_2141" data-name="Group 2141" transform="translate(75.499 190.587)">
        <path id="Path_1668" data-name="Path 1668" d="M642.076,1091.453a120.1,120.1,0,0,1-48.708-10.242,124.464,124.464,0,0,1-39.745-27.906,130.086,130.086,0,0,1-26.772-41.352,135.422,135.422,0,0,1,0-101.216,130.085,130.085,0,0,1,26.772-41.352,124.465,124.465,0,0,1,39.745-27.906,120.945,120.945,0,0,1,97.417,0,124.471,124.471,0,0,1,39.745,27.906A130.085,130.085,0,0,1,757.3,910.736a135.421,135.421,0,0,1,0,101.216A130.086,130.086,0,0,1,730.53,1053.3a124.47,124.47,0,0,1-39.745,27.906A120.1,120.1,0,0,1,642.076,1091.453Zm0-254.669c-65.886,0-119.488,55.878-119.488,124.56s53.6,124.56,119.488,124.56,119.489-55.878,119.489-124.56S707.962,836.784,642.076,836.784Z" transform="translate(-517.039 -831.236)" fill="#300808"/>
      </g>
      <g id="Group_2154" data-name="Group 2154" transform="translate(70.146 243.096)">
        <g id="Group_2142" data-name="Group 2142" transform="translate(2.816)">
          <path id="Path_1669" data-name="Path 1669" d="M608.645,1118.686c-4.685,5.215-11.918,8.839-21.606,9.754-12.874,1.208-26.013-1.977-37.718-8.666-22.482-12.834-39.7-38.514-39.7-70.512a77.973,77.973,0,0,1,8.666-36.138A79.226,79.226,0,0,1,542.8,984.67l29.2,36.271q-.06,1.712,0,3.344a58.68,58.68,0,0,0,6.516,26.132,46.58,46.58,0,0,0,14.984,16.629c.266.186.544.371.81.557a53.38,53.38,0,0,1,12.834,11.931C617.312,1092.966,617.63,1108.719,608.645,1118.686Z" transform="translate(-509.626 -984.67)" fill="#fd9493"/>
        </g>
        <g id="Group_2143" data-name="Group 2143" transform="translate(59.038 39.615)" opacity="0.75">
          <path id="Path_1670" data-name="Path 1670" d="M715.205,1155.677c-8.8,7.485-19.5,11.042-29.4-.637-22.11-26.105-6.636-54.413-6.636-54.413l.889-.2a58.681,58.681,0,0,0,6.516,26.132,46.582,46.582,0,0,0,14.984,16.629c.266.186.544.371.81.557A53.381,53.381,0,0,1,715.205,1155.677Z" transform="translate(-673.908 -1100.427)" fill="#bd4542"/>
        </g>
        <g id="Group_2145" data-name="Group 2145" transform="translate(2.816 28.202)" opacity="0.75">
          <g id="Group_2144" data-name="Group 2144">
            <path id="Path_1671" data-name="Path 1671" d="M608.645,1172.891c-4.685,5.215-11.918,8.839-21.606,9.754-12.874,1.208-26.013-1.977-37.718-8.666-22.482-12.834-39.7-38.514-39.7-70.512a77.973,77.973,0,0,1,8.666-36.138l.956-.252s-12.94,75.648,40.478,98.873C578.412,1174.072,594.989,1175.054,608.645,1172.891Z" transform="translate(-509.626 -1067.077)" fill="#ffc5c5"/>
          </g>
        </g>
        <g id="Group_2146" data-name="Group 2146">
          <path id="Path_1672" data-name="Path 1672" d="M566.589,1020.941a94.858,94.858,0,0,0,1.772,10.368c.4,1.686.84,3.352,1.361,4.987.5,1.64,1.079,3.25,1.708,4.831.611,1.588,1.322,3.131,2.057,4.653.367.762.769,1.505,1.157,2.254l.614,1.107c.207.365.422.714.632,1.071a39.872,39.872,0,0,0,2.8,4.08,47.409,47.409,0,0,0,3.236,3.754,53.275,53.275,0,0,0,7.541,6.514c.334.246.7.489,1.048.74l1.109.808,1.108.809.553.4c.181.14.358.291.537.436l2.14,1.757,2.04,1.88c.168.159.342.31.506.474l.484.5.966,1c.316.339.656.654.952,1.013l.906,1.059.908,1.057c.288.365.567.739.85,1.108.564.741,1.141,1.471,1.639,2.263a42.983,42.983,0,0,1,5.119,10,35.306,35.306,0,0,1,2.037,11.2c0,.481.033.961,0,1.443l-.094,1.445-.049.723c-.016.24-.065.479-.1.719l-.217,1.438a13.64,13.64,0,0,1-.3,1.425l-.343,1.418c-.143.465-.3.926-.458,1.389l-.234.693-.118.346-.145.336a27.935,27.935,0,0,1-6.537,9.639,30.969,30.969,0,0,1-9.687,6.251,41.451,41.451,0,0,1-10.948,2.768,58.4,58.4,0,0,1-11.071.292,67.179,67.179,0,0,1-21.354-5.116,76.627,76.627,0,0,1-18.751-11.254A82.152,82.152,0,0,1,517.04,1099.1a83.649,83.649,0,0,1-10.258-19.252,84.766,84.766,0,0,1-4.957-21.228,86.828,86.828,0,0,1-.4-10.895c.029-.91.047-1.819.087-2.728l.209-2.724c.04-.454.061-.909.116-1.361l.173-1.356c.125-.9.216-1.809.371-2.707a85.6,85.6,0,0,1,2.438-10.646,80.39,80.39,0,0,1,9.134-19.723,67.432,67.432,0,0,1,6.53-8.654,62.41,62.41,0,0,1,7.834-7.425,52.608,52.608,0,0,1,4.369-3.142,35.511,35.511,0,0,1,4.7-2.588c-1.291,1.232-2.52,2.494-3.724,3.772s-2.371,2.575-3.518,3.881c-2.283,2.623-4.458,5.307-6.491,8.081s-3.95,5.615-5.713,8.544a73.618,73.618,0,0,0-4.655,9.113,75.68,75.68,0,0,0-5.475,19.6,84.972,84.972,0,0,0-.273,20.364,81.557,81.557,0,0,0,4.654,19.8,77.89,77.89,0,0,0,9.5,17.953,75.925,75.925,0,0,0,13.862,14.827,70.9,70.9,0,0,0,17.341,10.43,61.479,61.479,0,0,0,19.549,4.683c1.674.1,3.35.151,5.024.111.837-.024,1.674-.035,2.508-.109l1.252-.087c.414-.038.82-.1,1.231-.149a35.855,35.855,0,0,0,9.483-2.337,25.571,25.571,0,0,0,8-5.085,22.4,22.4,0,0,0,5.277-7.676l.12-.268.094-.279.19-.557c.125-.372.26-.741.38-1.115l.281-1.148a9.8,9.8,0,0,0,.252-1.155l.184-1.173c.027-.2.072-.389.085-.588l.041-.595.087-1.189c.032-.4,0-.8,0-1.2a29.908,29.908,0,0,0-1.676-9.493,36.727,36.727,0,0,0-4.443-8.766c-.44-.7-.96-1.348-1.464-2.007-.254-.328-.5-.661-.759-.986l-.823-.938-.825-.936c-.268-.318-.583-.6-.871-.9l-.884-.885-.441-.443c-.149-.146-.311-.279-.466-.419l-1.88-1.659-1.977-1.551c-.166-.128-.327-.261-.5-.386l-.522-.362-1.042-.725-1.041-.725c-.372-.254-.742-.5-1.12-.767a48.865,48.865,0,0,1-8.384-7.31,42.73,42.73,0,0,1-6.392-9.182c-.2-.419-.419-.839-.614-1.257l-.57-1.253c-.364-.843-.717-1.691-1.034-2.552a51.25,51.25,0,0,1-1.668-5.227c-.121-.44-.225-.884-.326-1.329s-.212-.886-.3-1.333c-.176-.894-.347-1.786-.476-2.685-.154-.894-.236-1.8-.342-2.7-.054-.449-.075-.9-.11-1.352s-.074-.9-.083-1.351A49.241,49.241,0,0,1,566.589,1020.941Z" transform="translate(-501.397 -984.67)" fill="#300808"/>
        </g>
        <g id="Group_2147" data-name="Group 2147" transform="translate(61.156 71.998)">
          <path id="Path_1673" data-name="Path 1673" d="M696.622,1201.031a1.052,1.052,0,0,0-.15-.118c-.06-.045-.125-.09-.2-.135-.139-.091-.274-.185-.423-.272-.289-.182-.59-.353-.9-.524s-.622-.324-.935-.49l-.966-.451a23.79,23.79,0,0,0-4.089-1.366c-.707-.184-1.425-.286-2.155-.406-.364-.047-.729-.07-1.1-.106l-.555-.049-.555-.006c-.371,0-.747-.014-1.122-.006l-1.124.083c-.188.016-.38.022-.567.048l-.56.093-1.134.189,1.04-.5.527-.252c.178-.079.361-.139.543-.21l1.1-.41c.374-.117.754-.215,1.135-.324l.575-.159.583-.116c.39-.074.783-.161,1.179-.222.79-.1,1.594-.21,2.4-.234a27.06,27.06,0,0,1,4.883.191l1.223.188c.405.081.816.15,1.223.245s.817.189,1.228.3c.2.052.414.119.622.182.1.03.21.065.321.1s.212.071.362.133Z" transform="translate(-680.096 -1195.051)" fill="#300808"/>
        </g>
        <g id="Group_2153" data-name="Group 2153" transform="translate(39.855 79.575)">
          <g id="Group_2148" data-name="Group 2148" transform="translate(1.621 1.833)">
            <path id="Path_1674" data-name="Path 1674" d="M687.462,1270.481c-4.207,8.162-12.926,14.174-25.959,15.395-13.285,1.247-26.835-2.044-38.912-8.945,0-.425,0-.85.013-1.3a66.913,66.913,0,0,1,1.38-12.873c2.442-11.639,8.826-25.362,24.605-33.763a64.6,64.6,0,0,1,19.576-6.45c.266.186.558.385.836.571C688.816,1236.44,694.682,1256.585,687.462,1270.481Z" transform="translate(-622.591 -1222.544)" fill="#a45f4e"/>
          </g>
          <g id="Group_2149" data-name="Group 2149" transform="translate(27.62 1.833)" opacity="0.46">
            <path id="Path_1675" data-name="Path 1675" d="M737.432,1270.481c-7.22-21.9-32.25-37.651-38.872-41.487a64.6,64.6,0,0,1,19.576-6.45c.266.186.558.385.836.571C738.786,1236.44,744.652,1256.585,737.432,1270.481Z" transform="translate(-698.56 -1222.544)" fill="#814c3d"/>
          </g>
          <g id="Group_2150" data-name="Group 2150" transform="translate(1.634 42.046)" opacity="0.46">
            <path id="Path_1676" data-name="Path 1676" d="M682.976,1352.443c-4.685,5.216-11.918,8.839-21.606,9.755-12.873,1.208-26.013-1.978-37.718-8.666-.345-.2-.69-.4-1.022-.611a66.915,66.915,0,0,1,1.38-12.873,65.13,65.13,0,0,0,10.047,5.454C652.743,1353.624,669.319,1354.606,682.976,1352.443Z" transform="translate(-622.63 -1340.047)" fill="#814c3d"/>
          </g>
          <g id="Group_2151" data-name="Group 2151">
            <path id="Path_1677" data-name="Path 1677" d="M664.691,1219.99c.266.186.544.371.81.557,30.471,20.478,26.915,57.625-7.273,60.837q-2.692.253-5.4.251a65.41,65.41,0,0,1-32.322-8.918c-.106-14.174,4.273-45.813,44.181-52.728m.625-2.8-1.078.187c-9.675,1.676-18.022,4.9-24.81,9.594a47.013,47.013,0,0,0-14.133,15.339c-6.255,10.868-7.5,22.547-7.439,30.43l.011,1.527,1.326.758a68.145,68.145,0,0,0,33.639,9.268c1.885,0,3.784-.089,5.644-.263,7.9-.742,14.548-3.193,19.758-7.285a27.565,27.565,0,0,0,9.791-15c1.831-7.2.927-15.039-2.615-22.666-3.684-7.934-10.049-15.1-18.408-20.72-.133-.093-.27-.187-.407-.28s-.257-.175-.382-.263l-.9-.627Z" transform="translate(-617.854 -1217.188)" fill="#0c0b0b"/>
          </g>
          <g id="Group_2152" data-name="Group 2152" transform="translate(42.424 40.865)">
            <path id="Path_1678" data-name="Path 1678" d="M758.13,1354.258,741.819,1336.6l20.518,12.53Z" transform="translate(-741.819 -1336.596)" fill="#0c0b0b"/>
          </g>
        </g>
      </g>
      <g id="Group_2166" data-name="Group 2166" transform="translate(235.652 225.113)">
        <g id="Group_2155" data-name="Group 2155" transform="translate(2.864)">
          <path id="Path_1679" data-name="Path 1679" d="M1062.872,1063.764c-9.4,9.661-21.142,16.364-33.842,18.766-9.569,1.792-17.519.318-23.464-3.4-12.741-7.936-16.3-26.039-6.808-43.624a55.742,55.742,0,0,1,6.45-9.436c.2-.252.411-.5.624-.757a46.749,46.749,0,0,0,9.794-20.133,58.481,58.481,0,0,0-.358-24.46c-.411-1.845-.916-3.729-1.539-5.667l18.023-42.934a79.275,79.275,0,0,1,31.427,20.571,77.738,77.738,0,0,1,18.328,32.33C1090.358,1015.76,1080.922,1045.21,1062.872,1063.764Z" transform="translate(-993.378 -932.123)" fill="#fd9493"/>
        </g>
        <g id="Group_2156" data-name="Group 2156" transform="translate(8.243 48.508)">
          <path id="Path_1680" data-name="Path 1680" d="M1035.082,1103.5c-.876,18.58-19.018,30.087-19.018,30.087l-6.968-4.844a55.738,55.738,0,0,1,6.45-9.436c.2-.252.411-.5.624-.757a46.746,46.746,0,0,0,9.794-20.133,58.477,58.477,0,0,0-.358-24.459l.637-.093S1035.971,1084.918,1035.082,1103.5Z" transform="translate(-1009.096 -1073.863)" fill="#ffc5c5"/>
        </g>
        <g id="Group_2157" data-name="Group 2157" transform="translate(15.049 20.566)" opacity="0.75">
          <path id="Path_1681" data-name="Path 1681" d="M1028.982,1118.656c5.945,3.716,13.9,5.2,23.461,3.4,12.705-2.4,24.45-9.1,33.848-18.764,18.053-18.553,27.489-47.994,18.636-78.742a77.975,77.975,0,0,0-18.327-32.33l-.988.022s33.365,69.115-11.542,106.213C1058.361,1111.426,1042.7,1116.956,1028.982,1118.656Z" transform="translate(-1028.982 -992.216)" fill="#bd4542"/>
        </g>
        <g id="Group_2158" data-name="Group 2158" transform="translate(0 0.004)">
          <path id="Path_1682" data-name="Path 1682" d="M1026.248,932.136a38.539,38.539,0,0,1,5.2,1.258l1.277.411,1.271.437c.425.145.838.316,1.258.473s.839.32,1.251.5a67.817,67.817,0,0,1,9.623,4.889,70.524,70.524,0,0,1,16.567,14.032,71.7,71.7,0,0,1,6.494,8.8c.487.771.929,1.571,1.394,2.356.225.4.468.783.679,1.187l.635,1.212.634,1.211.317.606.291.618,1.153,2.477c.381.827.705,1.678,1.06,2.516l.52,1.261c.173.421.313.854.47,1.28l.932,2.563c.283.863.545,1.733.819,2.6a90.321,90.321,0,0,1,2.6,10.565,85.854,85.854,0,0,1,1.155,21.725,83.294,83.294,0,0,1-4.439,21.332,81.277,81.277,0,0,1-9.889,19.448,76.605,76.605,0,0,1-14.9,16,67.2,67.2,0,0,1-19.1,10.829,59.378,59.378,0,0,1-10.717,2.8,41.678,41.678,0,0,1-11.3.4,31.139,31.139,0,0,1-11.078-3.295,28.054,28.054,0,0,1-9.016-7.452l-.235-.284-.211-.3-.422-.6c-.279-.4-.564-.8-.834-1.212l-.731-1.272a13.829,13.829,0,0,1-.691-1.291l-.615-1.326c-.1-.223-.211-.44-.294-.668l-.25-.684-.494-1.37c-.166-.456-.267-.929-.4-1.394a35.484,35.484,0,0,1-1.162-11.386,42.4,42.4,0,0,1,2.19-11.064,50.8,50.8,0,0,1,4.712-10.1l1.487-2.342,1.614-2.247c.135-.186.267-.376.406-.558l.43-.533.861-1.065.862-1.064c.274-.332.562-.663.821-.989a49.554,49.554,0,0,0,5.568-8.325,41.135,41.135,0,0,0,3.562-9.29c.093-.406.193-.8.28-1.216l.257-1.242c.155-.831.312-1.662.431-2.5q.4-2.507.6-5.051c.043-.424.068-.848.089-1.273s.066-.851.079-1.276c.031-.852.068-1.706.074-2.562.026-.857,0-1.713,0-2.574,0-.431-.029-.86-.043-1.291s-.016-.864-.05-1.295c-.185-3.454-.577-6.93-1.076-10.467a46.9,46.9,0,0,1,5.018,20.879,48.728,48.728,0,0,1-.241,5.474c-.088.911-.216,1.817-.344,2.724l-.228,1.354c-.082.452-.182.911-.272,1.366a45.975,45.975,0,0,1-3.674,10.5,51.732,51.732,0,0,1-5.91,9.365c-.282.369-.566.707-.845,1.06l-.78,1-.78,1-.39.5c-.125.17-.239.345-.359.517l-1.427,2.071-1.3,2.144a48.027,48.027,0,0,0-4.075,9.059,37.307,37.307,0,0,0-1.808,9.611,29.728,29.728,0,0,0,1,9.529c.114.379.192.772.331,1.141l.408,1.112.2.557c.067.186.163.358.242.538l.492,1.071a9.73,9.73,0,0,0,.553,1.036l.578,1.022c.215.325.444.641.664.963l.332.482.165.241.188.224a22.265,22.265,0,0,0,7.126,5.917,25.4,25.4,0,0,0,9.051,2.706,35.629,35.629,0,0,0,9.75-.346,53.71,53.71,0,0,0,9.691-2.526,61.478,61.478,0,0,0,17.491-9.905,70.925,70.925,0,0,0,13.782-14.818,76.776,76.776,0,0,0,9.267-18.068,78.238,78.238,0,0,0,4.257-19.889,80.923,80.923,0,0,0-3.359-30.3c-.259-.811-.507-1.627-.775-2.436l-.889-2.395c-.154-.4-.291-.8-.458-1.191l-.507-1.171c-.346-.777-.656-1.57-1.029-2.334a81.545,81.545,0,0,0-4.939-8.9,91.289,91.289,0,0,0-6-8.209,85.742,85.742,0,0,0-6.9-7.514,99.214,99.214,0,0,0-7.717-6.781c-2.691-2.147-5.511-4.155-8.433-6.049A94.518,94.518,0,0,0,1026.248,932.136Z" transform="translate(-985.01 -932.136)" fill="#300808"/>
        </g>
        <g id="Group_2159" data-name="Group 2159" transform="translate(19.156 78.087)">
          <path id="Path_1683" data-name="Path 1683" d="M1040.984,1164.933c.126-.1.217-.162.31-.228s.189-.131.28-.189c.183-.118.366-.241.548-.347.363-.225.73-.431,1.1-.633s.74-.383,1.107-.573l1.124-.518a26.993,26.993,0,0,1,4.64-1.535c.782-.2,1.584-.314,2.372-.439.4-.05.8-.075,1.194-.113l.592-.05.6-.006c.4,0,.789-.012,1.181,0l1.173.089c.194.018.387.024.58.051l.576.1,1.137.193-1.142.132-.564.066c-.187.027-.373.075-.558.11l-1.1.232c-.362.1-.72.213-1.076.316l-.532.16-.52.2c-.345.137-.69.26-1.026.406-.667.317-1.329.614-1.958.987a23.794,23.794,0,0,0-3.552,2.445l-.8.7c-.255.246-.519.48-.763.73s-.49.5-.716.751c-.119.125-.223.253-.331.378-.056.063-.106.125-.151.184a1.028,1.028,0,0,0-.112.155Z" transform="translate(-1040.984 -1160.295)" fill="#300808"/>
        </g>
        <g id="Group_2165" data-name="Group 2165" transform="translate(0.202 90.091)">
          <g id="Group_2160" data-name="Group 2160" transform="translate(1.654 1.8)">
            <path id="Path_1684" data-name="Path 1684" d="M1062.116,1240.751c-9.688,9.98-21.8,16.882-34.917,19.363-10.9,2.058-19.761-.04-26.052-4.791-13.815-10.379-15.249-33.524,1.486-53.445.212-.252.438-.531.651-.783a69.386,69.386,0,0,1,13.909-.212c21.7,1.938,33.431,14.864,39.668,26.636a67.064,67.064,0,0,1,4.884,11.984C1061.891,1239.942,1062,1240.34,1062.116,1240.751Z" transform="translate(-990.434 -1200.63)" fill="#a45f4e"/>
          </g>
          <g id="Group_2161" data-name="Group 2161" transform="translate(1.654 1.8)" opacity="0.46">
            <path id="Path_1685" data-name="Path 1685" d="M998.811,1241.534a48.508,48.508,0,0,0,2.336,13.789c-13.815-10.379-15.249-33.524,1.486-53.445.212-.252.438-.531.651-.783a69.386,69.386,0,0,1,13.909-.212C1012.1,1205.3,998.267,1219.344,998.811,1241.534Z" transform="translate(-990.434 -1200.63)" fill="#814c3d"/>
          </g>
          <g id="Group_2162" data-name="Group 2162" transform="translate(14.847 28.688)" opacity="0.46">
            <path id="Path_1686" data-name="Path 1686" d="M1028.982,1307.423c5.945,3.716,13.9,5.2,23.461,3.4,12.705-2.4,24.45-9.1,33.848-18.764.276-.287.553-.574.813-.87a66.943,66.943,0,0,0-4.888-11.989,65.136,65.136,0,0,1-8.146,8.022C1058.361,1300.194,1042.7,1305.724,1028.982,1307.423Z" transform="translate(-1028.982 -1279.197)" fill="#814c3d"/>
          </g>
          <g id="Group_2163" data-name="Group 2163">
            <path id="Path_1687" data-name="Path 1687" d="M1008.653,1198.025c34.06,0,45.546,26.183,49.1,38.892-9.4,9.666-21.142,16.362-33.848,18.764a42.2,42.2,0,0,1-7.832.765c-27.891,0-37.683-31.394-15.989-57.215.2-.252.42-.508.624-.759a73.126,73.126,0,0,1,7.943-.447m0-2.654a76.117,76.117,0,0,0-8.231.462l-1.088.119-.688.851c-.1.118-.194.238-.293.357s-.212.256-.315.383a52.568,52.568,0,0,0-11.689,23.478,35.125,35.125,0,0,0,2.232,21.626c4.872,10.457,14.894,16.455,27.494,16.455a45.036,45.036,0,0,0,8.325-.812c13.047-2.466,25.239-9.216,35.258-19.522l1.064-1.095-.411-1.47c-1.928-6.89-5.874-16.872-13.726-25.305-9.592-10.3-22.354-15.526-37.933-15.526Z" transform="translate(-985.6 -1195.371)" fill="#0c0b0b"/>
          </g>
          <g id="Group_2164" data-name="Group 2164" transform="translate(13.632 38.457)">
            <path id="Path_1688" data-name="Path 1688" d="M1030.9,1329.228l10.787-21.486-16.25,17.718Z" transform="translate(-1025.434 -1307.742)" fill="#0c0b0b"/>
          </g>
        </g>
      </g>
      <g id="Group_2167" data-name="Group 2167" transform="translate(100.2 206.321)" opacity="0.75">
        <path id="Path_1689" data-name="Path 1689" d="M589.215,914.8s35.424,52.273,91.586,45.793,68.581-49.195,68.581-49.195,13.5-9.126,8.748-34.183" transform="translate(-589.215 -877.212)" fill="#bd4542"/>
      </g>
      <g id="Group_2222" data-name="Group 2222" transform="translate(14.731)">
        <g id="Group_2168" data-name="Group 2168" transform="translate(40.727 27.701)">
          <path id="Path_1690" data-name="Path 1690" d="M655.092,570.953c-.013,0-.021.021-.03.037a35.162,35.162,0,0,1-5.811,6.118c-4.553,3.957-12.1,9.187-23.636,13.713-3.143,1.241-6.582,2.429-10.348,3.52-29.466,10.886-45.939,4.881-45.939,4.881-49.715,6.153-113.05-28.92-110.792-127.917.391-17.146,3.126-31.516,7.4-43.543,18.435-52.064,65.447-60.3,74.014-61.378,5.722-3.21,31.808-16.325,64.164-8.814,19.982,4.644,42.352,17.153,63.782,44.724C728.7,480.5,698.709,546.341,655.092,570.953Z" transform="translate(-458.477 -355.283)" fill="#fd9493"/>
        </g>
        <g id="Group_2169" data-name="Group 2169" transform="translate(40.727 100.182)">
          <path id="Path_1691" data-name="Path 1691" d="M625.615,730.13c-3.143,1.241-6.582,2.429-10.348,3.52-29.466,10.886-45.939,4.881-45.939,4.881-49.715,6.153-113.05-28.92-110.792-127.917.391-17.146,3.126-31.516,7.4-43.543-2.431,10.422-11.738,59.082,13.019,107.771,27.938,54.929,84.12,51.42,84.12,51.42s17.856,15.948,55.063,3.684C621.5,728.84,623.934,728.978,625.615,730.13Z" transform="translate(-458.477 -567.071)" fill="#ffc5c5"/>
        </g>
        <g id="Group_2170" data-name="Group 2170" transform="translate(186.167 29.989)" opacity="0.75">
          <path id="Path_1692" data-name="Path 1692" d="M934.63,575.35c56.715-48.716,36.185-127.238-.73-143.727s-34.2-56.957-34.2-56.957l-16.242-12.291.2-.408c19.982,4.644,42.352,17.153,63.782,44.724C1008.243,484.9,978.246,550.739,934.63,575.35Z" transform="translate(-883.455 -361.968)" fill="#bd4542"/>
        </g>
        <g id="Group_2171" data-name="Group 2171" transform="translate(37.733 24.713)">
          <path id="Path_1693" data-name="Path 1693" d="M576.653,598.128a48.413,48.413,0,0,1-13.371-1.6,96.256,96.256,0,0,1-75.408-24.256c-18.112-16.38-39.422-48.2-38.086-106.775.489-21.435,4.67-40.285,12.427-56.025a92.769,92.769,0,0,1,26.266-32.506,97.126,97.126,0,0,1,44.761-19.21,97.185,97.185,0,0,1,47.415-11.174,92.936,92.936,0,0,1,40.474,10.505c15.613,8.037,30.2,20.7,43.369,37.632h0c35.991,46.294,37.817,84.546,33.012,108.484a96.085,96.085,0,0,1-46.138,64.287c-2.28,3.021-13.314,15.894-40.933,23.946C596.11,596.718,584.723,598.128,576.653,598.128Zm-12.735-7.7.676.246c.143.05,16,5.419,43.878-4.882l.2-.066c28.541-8.3,38.082-22.035,38.175-22.173l.394-.584.622-.359a89.689,89.689,0,0,0,43.787-60.582c4.56-22.713,2.731-59.131-31.87-103.638h0c-23.065-29.668-49.736-45.087-79.273-45.829a90.6,90.6,0,0,0-44.85,10.694l-.509.286-.579.073a90.6,90.6,0,0,0-42.412,18.07c-23.292,18.155-35.536,46.4-36.392,83.952-1.284,56.314,18.933,86.662,36.119,102.2A89.855,89.855,0,0,0,563.2,590.514Z" transform="translate(-449.729 -346.552)" fill="#300808"/>
        </g>
        <g id="Group_2221" data-name="Group 2221">
          <g id="Group_2175" data-name="Group 2175" transform="translate(77.249 55.246)">
            <g id="Group_2174" data-name="Group 2174">
              <g id="Group_2172" data-name="Group 2172" transform="translate(87.28)">
                <path id="Path_1694" data-name="Path 1694" d="M820.231,450.086a14.744,14.744,0,0,1,1.437-4.762,22.265,22.265,0,0,1,1.217-2.142c.482-.652.968-1.32,1.51-1.932a16.1,16.1,0,0,1,8.3-4.994,14.326,14.326,0,0,1,2.431-.382l1.227-.106c.41.013.82.035,1.231.072a22.9,22.9,0,0,1,2.442.275c.8.2,1.589.426,2.37.664a10.56,10.56,0,0,1,2.269.935c.735.367,1.457.754,2.163,1.153a28.83,28.83,0,0,1,3.839,3.153c-1.609-.066-3.063-.388-4.514-.585-.732-.053-1.448-.118-2.151-.2l-1.046-.138c-.346-.05-.7-.005-1.037-.029-.687-.012-1.364-.034-2.034-.084-.668.012-1.321.09-1.974.118l-.977.038-.946.182a11.329,11.329,0,0,0-1.88.351,22.739,22.739,0,0,0-7.11,3.049A44.731,44.731,0,0,0,820.231,450.086Z" transform="translate(-820.231 -435.767)" fill="#0c0b0b"/>
              </g>
              <g id="Group_2173" data-name="Group 2173" transform="translate(0 28.471)">
                <path id="Path_1695" data-name="Path 1695" d="M594.46,523.932a14.771,14.771,0,0,0-3.992-2.972,22.268,22.268,0,0,0-2.254-1c-.775-.237-1.564-.485-2.364-.655a16.114,16.114,0,0,0-9.646.921,14.31,14.31,0,0,0-2.181,1.138l-1.05.644c-.322.254-.639.516-.946.79a22.822,22.822,0,0,0-1.8,1.672c-.523.635-1.023,1.287-1.51,1.942a10.519,10.519,0,0,0-1.266,2.1c-.372.732-.722,1.472-1.051,2.213a28.787,28.787,0,0,0-1.206,4.816c1.253-1.009,2.23-2.133,3.278-3.154.557-.478,1.093-.956,1.608-1.443l.758-.732c.249-.246.556-.417.816-.64.545-.418,1.076-.838,1.585-1.276.544-.387,1.115-.713,1.657-1.079l.808-.55.869-.417a11.342,11.342,0,0,1,1.72-.836,22.755,22.755,0,0,1,7.53-1.776A44.777,44.777,0,0,1,594.46,523.932Z" transform="translate(-565.197 -518.96)" fill="#0c0b0b"/>
              </g>
            </g>
          </g>
          <g id="Group_2192" data-name="Group 2192">
            <g id="Group_2183" data-name="Group 2183" transform="translate(0 56.668)">
              <g id="Group_2176" data-name="Group 2176" transform="translate(2.826 2.856)">
                <path id="Path_1696" data-name="Path 1696" d="M407.25,462.213c-5.027,6.449-8.774,11.77-8.774,11.77s17.731,21.48,11.266,45.763c-6.154,23.119-26.123,36.261-28.331,31.462a2.482,2.482,0,0,1-.2-.855,4.9,4.9,0,0,0-1.029-2.545c-4.472-6.386-22.568-14.458-30.136-34.778-8.6-23.078,9.479-35.637,9.479-35.637s-3.727-18.561,15.893-26.443a37.674,37.674,0,0,1,16.867-2.577A46.974,46.974,0,0,1,413,455.059C411,457.458,409.04,459.912,407.25,462.213Z" transform="translate(-347.732 -448.268)" fill="#fd9493"/>
              </g>
              <g id="Group_2177" data-name="Group 2177" transform="translate(2.826 2.856)">
                <path id="Path_1697" data-name="Path 1697" d="M392.289,448.372l.216.961a39.239,39.239,0,0,0-21.3,10.075c-9.349,8.976-5.674,18.608-5.674,18.608s7.965,12.443.527,19.136c0,0-.718-8-5.447-12.1,0,0-11.663,8.551-4.038,27.242s28.333,30.241,28.333,30.241l-4.719,5.273c-4.472-6.386-22.568-14.458-30.136-34.778-8.6-23.078,9.479-35.637,9.479-35.637s-3.727-18.561,15.893-26.443A37.674,37.674,0,0,1,392.289,448.372Z" transform="translate(-347.732 -448.268)" fill="#ffc5c5"/>
              </g>
              <g id="Group_2178" data-name="Group 2178" transform="translate(36.505 11.744)" opacity="0.75">
                <path id="Path_1698" data-name="Path 1698" d="M463.207,491.065s17.731,21.48,11.266,45.763c-6.154,23.119-26.123,36.261-28.331,31.461,1.056-6.582,4.956-9.38,4.956-9.38s-3.435,10.081,6.932,1.249,12.76-45.441-1.679-62.832-6.425-23.087-6.425-23.087c4.968,9.2,21.943,5.023,21.943,5.023l.113.034C466.954,485.745,463.207,491.065,463.207,491.065Z" transform="translate(-446.141 -474.239)" fill="#bd4542"/>
              </g>
              <g id="Group_2179" data-name="Group 2179">
                <path id="Path_1699" data-name="Path 1699" d="M377.823,549.541a6.171,6.171,0,0,1-.645-.033,4.565,4.565,0,0,1-4.231-4.5c-.076-1.436-3.88-4.466-7.236-7.139-7.263-5.784-18.24-14.526-23.753-29.338-4.822-12.953-1.731-22.851,1.711-28.873a34.579,34.579,0,0,1,7.408-8.982,28.632,28.632,0,0,1,.869-9.78c1.557-5.756,5.768-13.563,16.983-18.068,20.761-8.341,39.425,3.855,40.21,4.378l2.632,1.756-2.029,2.427c-5.607,6.7-10.878,13.876-13.17,17.053a69.139,69.139,0,0,1,7.138,12.7c4.995,11.591,6.149,23.292,3.339,33.841a59.4,59.4,0,0,1-14.158,25.284C388.538,544.835,382.4,549.541,377.823,549.541Zm6.1-103.9a34.333,34.333,0,0,0-12.882,2.455c-17.1,6.87-14.294,22.6-14.166,23.262l.348,1.813-1.514,1.065c-.655.461-16.123,11.659-8.435,32.314,4.963,13.334,14.792,21.162,21.97,26.877,4.892,3.9,8.536,6.8,9.25,10.343,1.789-.465,5.742-2.677,10.22-7.355a53.66,53.66,0,0,0,12.843-22.892c6-22.533-10.538-43.026-10.706-43.231l-1.37-1.668,1.239-1.768c.063-.089,5.775-8.2,12.486-16.468A44.31,44.31,0,0,0,383.927,445.644Z" transform="translate(-339.473 -439.922)" fill="#300808"/>
              </g>
              <g id="Group_2180" data-name="Group 2180" transform="translate(40.363 15.254)">
                <path id="Path_1700" data-name="Path 1700" d="M469.455,500.4c-.136-.079-.233-.143-.329-.207s-.2-.13-.288-.194c-.182-.13-.372-.256-.547-.389q-.535-.391-1.043-.8c-.681-.54-1.331-1.107-1.963-1.688a33.447,33.447,0,0,1-3.476-3.753,25.266,25.266,0,0,1-2.727-4.244L458.547,488c-.168-.378-.3-.776-.445-1.158l-.213-.575c-.063-.195-.109-.4-.164-.593l-.311-1.175.635,1.029c.107.168.2.341.318.5l.362.477c.245.314.468.636.725.934l.791.872a23.142,23.142,0,0,0,3.528,3.007,29.906,29.906,0,0,0,3.946,2.308c.683.328,1.371.637,2.067.91q.52.21,1.04.389c.173.065.343.114.513.171.087.03.167.052.248.075a1.5,1.5,0,0,0,.21.053Z" transform="translate(-457.414 -484.495)" fill="#300808"/>
              </g>
              <g id="Group_2181" data-name="Group 2181" transform="translate(13.15 29.746)">
                <path id="Path_1701" data-name="Path 1701" d="M380.419,526.84c.106.1.175.172.25.249s.148.154.215.23c.138.152.277.3.4.456.265.3.512.613.757.923s.474.629.706.944l.66.968a27.086,27.086,0,0,1,2.2,4.076c.323.693.566,1.425.831,2.134l.325,1.093c.051.182.112.36.155.545l.123.554a22.837,22.837,0,0,1,.57,4.432,22.28,22.28,0,0,0-1.531-4.093l-.234-.485c-.079-.161-.176-.315-.263-.472l-.533-.931c-.4-.6-.769-1.2-1.21-1.759a24.539,24.539,0,0,0-2.794-3.151l-.769-.7c-.265-.223-.526-.45-.794-.664s-.537-.424-.811-.618c-.136-.1-.272-.193-.407-.286-.068-.048-.135-.092-.2-.131a1.817,1.817,0,0,0-.172-.1Z" transform="translate(-377.898 -526.84)" fill="#300808"/>
              </g>
              <g id="Group_2182" data-name="Group 2182" transform="translate(35.09 92.529)">
                <path id="Path_1702" data-name="Path 1702" d="M443.919,725.691l-.094-.066-.047-.036-.083-.068-.127-.114c-.08-.075-.143-.142-.213-.215a5.057,5.057,0,0,1-.344-.421,5.148,5.148,0,0,1-.515-.879,5.316,5.316,0,0,1-.476-1.829A6.255,6.255,0,0,1,442.6,719a12.2,12.2,0,0,1,2.952-3.841,27.527,27.527,0,0,1,3.46-2.673c1.192-.791,2.411-1.509,3.639-2.192-.949,1.039-1.866,2.1-2.716,3.19a25.445,25.445,0,0,0-2.26,3.372,13.112,13.112,0,0,0-.8,1.724,6,6,0,0,0-.376,1.614,1.542,1.542,0,0,0,.212,1.046.29.29,0,0,0,.216.123.111.111,0,0,0,.081-.028.057.057,0,0,0,.015-.044.113.113,0,0,0-.017-.043.26.26,0,0,0-.025-.033l-.031-.029-.02-.017-.067-.048Z" transform="translate(-442.006 -710.292)" fill="#300808"/>
              </g>
            </g>
            <g id="Group_2191" data-name="Group 2191" transform="translate(182.252)">
              <g id="Group_2184" data-name="Group 2184" transform="translate(3.736 2.831)">
                <path id="Path_1703" data-name="Path 1703" d="M891.816,311.614c7.882,2.194,14.064,4.242,14.064,4.242s-1.448,27.8,18.216,43.471c18.722,14.92,42.6,13.608,41.514,8.439a2.483,2.483,0,0,0-.352-.8,4.9,4.9,0,0,1-.69-2.656c-.212-7.79,9.52-25.035,3.494-45.864-6.845-23.655-28.853-23-28.853-23s-8.065-17.132-28.528-11.8a37.642,37.642,0,0,0-15.089,7.957,46.876,46.876,0,0,0-12.658,17.686C885.972,310.02,889.007,310.829,891.816,311.614Z" transform="translate(-882.933 -282.612)" fill="#fd9493"/>
              </g>
              <g id="Group_2185" data-name="Group 2185" transform="translate(16.394 2.831)">
                <path id="Path_1704" data-name="Path 1704" d="M919.919,291.6l.4.9a39.252,39.252,0,0,1,23.12-4.568c12.861,1.655,15.648,11.579,15.648,11.579s1.014,14.734,10.979,15.69c0,0-4.193-6.859-2.834-12.962,0,0,14.468-.062,19.479,19.491s-4.748,41.146-4.748,41.146l6.935,1.432c-.212-7.79,9.52-25.035,3.493-45.864-6.845-23.655-28.853-23-28.853-23s-8.065-17.132-28.528-11.8A37.643,37.643,0,0,0,919.919,291.6Z" transform="translate(-919.919 -282.612)" fill="#ffc5c5"/>
              </g>
              <g id="Group_2186" data-name="Group 2186" transform="translate(12.619 14.658)" opacity="0.75">
                <path id="Path_1705" data-name="Path 1705" d="M922.953,338.587s-1.448,27.8,18.216,43.471c18.722,14.92,42.6,13.608,41.514,8.439-4.771-4.661-9.572-4.591-9.572-4.591s8.767,6.058-4.826,5.125-37.331-28.93-36.092-51.489S923.6,317.17,923.6,317.17c1.493,10.35-14.639,17.081-14.639,17.081l-.07.094C916.771,336.539,922.953,338.587,922.953,338.587Z" transform="translate(-908.889 -317.17)" fill="#bd4542"/>
              </g>
              <g id="Group_2187" data-name="Group 2187">
                <path id="Path_1706" data-name="Path 1706" d="M949.519,368.722a47.33,47.33,0,0,1-7.925-.718,59.509,59.509,0,0,1-26.444-11.9c-8.543-6.806-14.587-16.9-17.48-29.178a69.081,69.081,0,0,1-1.833-14.451c-3.733-1.19-12.245-3.82-20.748-5.875l-3.074-.743,1.069-2.976c.318-.887,8.05-21.785,29.7-27.426,11.7-3.047,19.73.723,24.41,4.422a28.666,28.666,0,0,1,6.526,7.344,34.623,34.623,0,0,1,11.305,2.813c6.354,2.793,14.734,8.908,18.578,22.183,4.4,15.181.784,28.732-1.606,37.7-1.1,4.143-2.356,8.838-1.561,10.037a4.562,4.562,0,0,1-.718,6.13C957.619,368.011,953.722,368.722,949.519,368.722ZM879.73,301.907c10.326,2.657,19.755,5.78,19.859,5.814l2.052.682-.112,2.159c-.013.261-1.092,26.561,17.159,41.1a53.768,53.768,0,0,0,23.961,10.761c6.385,1.1,10.88.526,12.6-.164-1.535-3.28-.337-7.775,1.271-13.808,2.361-8.859,5.6-20.993,1.638-34.658-6.131-21.173-25.234-20.976-26.047-20.955l-1.846.043-.8-1.67c-.289-.6-7.4-14.911-25.245-10.263C889.939,284.669,882.5,296.408,879.73,301.907Z" transform="translate(-872.015 -274.338)" fill="#300808"/>
              </g>
              <g id="Group_2188" data-name="Group 2188" transform="translate(24.199 17.522)">
                <path id="Path_1707" data-name="Path 1707" d="M942.724,342.711a1.553,1.553,0,0,0,.138-.168c.051-.066.1-.132.154-.207.1-.148.21-.287.311-.443q.31-.454.6-.931c.4-.633.765-1.291,1.118-1.961a29.827,29.827,0,0,0,1.795-4.2,23.08,23.08,0,0,0,1.043-4.514l.116-1.171c.029-.393.016-.784.026-1.182l.007-.6c-.006-.2-.03-.395-.045-.594l-.1-1.2.45,1.128c.073.191.156.38.221.574l.172.589c.109.395.242.792.332,1.195l.242,1.222a25.2,25.2,0,0,1,.337,5.031,33.353,33.353,0,0,1-.558,5.083c-.161.843-.347,1.685-.572,2.524q-.165.63-.363,1.263c-.061.21-.139.425-.208.638-.034.105-.075.216-.116.327s-.079.218-.142.363Z" transform="translate(-942.724 -325.538)" fill="#300808"/>
              </g>
              <g id="Group_2189" data-name="Group 2189" transform="translate(57.633 14.489)">
                <path id="Path_1708" data-name="Path 1708" d="M1044.56,317.749a1.747,1.747,0,0,0-.077.185c-.028.07-.055.145-.081.224-.054.155-.109.309-.157.472-.1.319-.193.649-.283.979s-.162.668-.242,1.005l-.2,1.023a24.5,24.5,0,0,0-.367,4.194c-.022.711.042,1.416.076,2.133l.127,1.065c.024.178.038.359.07.536l.1.529a22.291,22.291,0,0,0,1.208,4.2,22.851,22.851,0,0,1-2.182-3.9l-.231-.518c-.076-.174-.133-.353-.2-.53l-.39-1.072c-.209-.728-.45-1.459-.6-2.209a27.068,27.068,0,0,1-.662-4.583l-.046-1.17c0-.391,0-.784.005-1.179s.026-.791.059-1.192c.011-.2.033-.4.053-.607.01-.1.021-.2.036-.313s.025-.206.052-.349Z" transform="translate(-1040.419 -316.675)" fill="#300808"/>
              </g>
              <g id="Group_2190" data-name="Group 2190" transform="translate(71.094 82.362)">
                <path id="Path_1709" data-name="Path 1709" d="M1090.857,520.708l-.026.079-.006.026-.007.042a.3.3,0,0,0,0,.041.114.114,0,0,0,.012.045.059.059,0,0,0,.038.027.108.108,0,0,0,.082-.026.287.287,0,0,0,.1-.227,1.548,1.548,0,0,0-.454-.968,6.013,6.013,0,0,0-1.265-1.074,13.2,13.2,0,0,0-1.671-.909,25.566,25.566,0,0,0-3.824-1.367c-1.333-.372-2.7-.677-4.083-.949,1.395-.181,2.8-.329,4.232-.4a27.614,27.614,0,0,1,4.373.09,12.236,12.236,0,0,1,4.659,1.33,6.269,6.269,0,0,1,2.286,2.118,5.32,5.32,0,0,1,.708,1.754,5.119,5.119,0,0,1,.11,1.014,5.015,5.015,0,0,1-.025.543c-.012.1-.023.191-.042.3l-.034.167-.027.1-.015.057-.036.109Z" transform="translate(-1079.753 -515.002)" fill="#300808"/>
              </g>
            </g>
          </g>
          <g id="Group_2213" data-name="Group 2213" transform="translate(113.807 133.167)">
            <g id="Group_2202" data-name="Group 2202" transform="translate(15.755 40.485)">
              <g id="Group_2193" data-name="Group 2193" transform="translate(3.061 2.683)">
                <path id="Path_1710" data-name="Path 1710" d="M805.588,789.6l-39.641,11.156-.007-.02-.22.083-.227.064.006.02L727,815.5s23.967,40.622,53.675,31.323l.007.021c.076-.025.144-.058.22-.084s.151-.038.227-.063l-.007-.021C810.533,836.488,805.588,789.6,805.588,789.6Z" transform="translate(-726.998 -789.596)" fill="#560c0c"/>
              </g>
              <g id="Group_2200" data-name="Group 2200" transform="translate(3.061 2.683)">
                <g id="Group_2199" data-name="Group 2199" clip-path="url(#clip-path)">
                  <g id="Group_2194" data-name="Group 2194" transform="translate(26.315 34.966)">
                    <path id="Path_1711" data-name="Path 1711" d="M858.008,906.025l-22.841,19.124-29.738-1.793s-3.651-9.566.3-16.623a12.428,12.428,0,0,1,4.251-4.445c10.132-6.427,16.653-2.967,16.653-2.967s3.192-6.661,15.163-7.52a12.446,12.446,0,0,1,6.064,1.045C855.241,896.168,858.008,906.025,858.008,906.025Z" transform="translate(-803.892 -891.767)" fill="#f85062"/>
                  </g>
                  <g id="Group_2197" data-name="Group 2197" transform="translate(31.626 43.16)">
                    <g id="Group_2195" data-name="Group 2195" transform="translate(3.656)">
                      <path id="Path_1712" data-name="Path 1712" d="M836.387,916.018c.156.474-1.122,1.321-2.856,1.893s-3.267.651-3.423.177,1.122-1.321,2.857-1.893S836.23,915.544,836.387,916.018Z" transform="translate(-830.094 -915.709)" fill="#ffc5c5"/>
                    </g>
                    <g id="Group_2196" data-name="Group 2196" transform="translate(0 2.748)">
                      <path id="Path_1713" data-name="Path 1713" d="M822.728,923.82c.212.257-.348,1.051-1.251,1.773s-1.809,1.1-2.022.842.348-1.051,1.251-1.773S822.515,923.563,822.728,923.82Z" transform="translate(-819.41 -923.739)" fill="#ffc5c5"/>
                    </g>
                  </g>
                  <g id="Group_2198" data-name="Group 2198" transform="translate(26.315 36.045)">
                    <path id="Path_1714" data-name="Path 1714" d="M858.008,908.1l-22.841,19.124-29.738-1.793s-3.651-9.566.3-16.623a28.078,28.078,0,0,0,42.131-13.887C855.241,898.241,858.008,908.1,858.008,908.1Z" transform="translate(-803.892 -894.92)" fill="#c4374c"/>
                  </g>
                </g>
              </g>
              <g id="Group_2201" data-name="Group 2201">
                <path id="Path_1716" data-name="Path 1716" d="M765.911,845.123c-10.061,0-20.45-4.768-30.519-14.1a97.108,97.108,0,0,1-16.076-19.62l-1.26-2.137,38.964-14.777-.056-.174,2.355-.7,2.056-.778.063.2,40.087-11.282.26,2.464a96.963,96.963,0,0,1-1.228,25.325c-3.169,16.879-11,28.314-22.716,33.218l.03.092-1.972.672c-.078.025-.154.047-.231.067s-.14.055-.216.081l-1.992.655-.036-.111A31.546,31.546,0,0,1,765.911,845.123Zm-41.652-33.736A95.481,95.481,0,0,0,738.3,828.021c12.268,11.34,24.336,15.26,35.865,11.65l.387-.127c23.751-8.228,23.728-42.783,23.245-52.4l-37.321,10.5-.119.047Z" transform="translate(-718.055 -781.755)" fill="#300808"/>
              </g>
            </g>
            <g id="Group_2212" data-name="Group 2212">
              <g id="Group_2203" data-name="Group 2203" transform="translate(5.068 5.073)">
                <path id="Path_1717" data-name="Path 1717" d="M779.378,700.709c1.042,9.223-1.291,18.485-4.463,21.517-5.555,5.309-9.714,4.724-9.714,4.724s-4.719,5.454-21.569,11.241l-1.5.495c-17,5.372-24.031,3.791-24.031,3.791s-3.007,2.948-10.634,1.983c-4.343-.554-11.736-6.611-16.395-14.641-3.513-6.046-5.478-13.21-3.389-19.972,4.2-13.719,29.519-24.63,35.932-27.208l1.5-.494c6.689-1.741,33.522-8.021,45.087.5C775.9,686.841,778.6,693.762,779.378,700.709Z" transform="translate(-686.826 -678.28)" fill="#fd9493"/>
              </g>
              <g id="Group_2206" data-name="Group 2206" transform="translate(14.047 9.887)">
                <g id="Group_2204" data-name="Group 2204" transform="translate(12.211 0)">
                  <ellipse id="Ellipse_33" data-name="Ellipse 33" cx="10.664" cy="2.427" rx="10.664" ry="2.427" transform="translate(0 8.428) rotate(-23.274)" fill="#ffc5c5"/>
                </g>
                <g id="Group_2205" data-name="Group 2205" transform="translate(0 11.837)">
                  <path id="Path_1718" data-name="Path 1718" d="M724.739,727.23c.628.871-1.451,3.389-4.644,5.625s-6.291,3.342-6.919,2.471,1.451-3.389,4.644-5.624S724.111,726.36,724.739,727.23Z" transform="translate(-713.064 -726.933)" fill="#ffc5c5"/>
                </g>
              </g>
              <g id="Group_2207" data-name="Group 2207" transform="translate(9.313 27.502)" opacity="0.75">
                <path id="Path_1719" data-name="Path 1719" d="M787.538,743.818c1.042,9.223-1.291,18.485-4.463,21.517-5.555,5.309-9.714,4.724-9.714,4.724s-4.719,5.455-21.569,11.241l-1.5.495c-17,5.372-24.031,3.791-24.031,3.791s-3.007,2.948-10.634,1.983c-4.343-.554-11.736-6.611-16.394-14.641,5.413,6.448,14.533,13.052,26.769,6.656,0,0,9.51,1.808,23.469-2.793s20.511-11.7,20.511-11.7C783.624,762.95,787.031,752.218,787.538,743.818Z" transform="translate(-699.232 -743.818)" fill="#bd4542"/>
              </g>
              <g id="Group_2208" data-name="Group 2208">
                <path id="Path_1720" data-name="Path 1720" d="M742.364,668.532c6.948,0,13.654,1.09,18.1,4.367,13.258,9.775,10.274,34.261,4.717,39.574-4.552,4.353-8.17,4.746-9.328,4.746a3.122,3.122,0,0,1-.391-.019s-4.71,5.455-21.569,11.234l-1.507.5c-10.695,3.386-17.445,4.013-20.98,4.013a15.6,15.6,0,0,1-3.047-.217s-2.211,2.175-7.674,2.175a23.5,23.5,0,0,1-2.954-.195c-7.632-.966-24.62-18.869-19.79-34.606,4.211-13.723,29.521-24.636,35.932-27.206l1.507-.5c4.114-1.075,15.863-3.867,26.987-3.866m0-5.076h0c-11.593,0-23.633,2.819-28.271,4.031l-.154.04-.151.05-1.507.5-.152.05-.148.06a132.7,132.7,0,0,0-19.584,9.822c-10.653,6.631-17.15,13.564-19.311,20.606-2.434,7.931-.673,17.1,4.959,25.818,5.344,8.272,13.176,14.569,19.047,15.312a28.762,28.762,0,0,0,3.591.235,18.681,18.681,0,0,0,8.927-2.008c.514.031,1.111.051,1.794.051,4.146,0,11.417-.737,22.511-4.25l.029-.009.028-.009,1.507-.5.028-.009.028-.01c12.786-4.382,19.218-8.741,22.01-11.063,2.644-.372,6.65-1.736,11.142-6.03,4.27-4.083,6.814-13.789,6.186-23.6-.663-10.368-4.711-18.793-11.4-23.724-4.821-3.554-11.924-5.357-21.11-5.357Z" transform="translate(-672.019 -663.456)" fill="#300808"/>
              </g>
              <g id="Group_2211" data-name="Group 2211" transform="translate(25.646 18.997)">
                <g id="Group_2209" data-name="Group 2209" transform="translate(0 13.521)">
                  <path id="Path_1721" data-name="Path 1721" d="M762.465,778.247a8.839,8.839,0,0,1-.287-7.333s-5.626-13.093-12.364-12.412.019,11.861,4.148,16.207S762.465,778.247,762.465,778.247Z" transform="translate(-746.957 -758.476)" fill="#300808"/>
                </g>
                <g id="Group_2210" data-name="Group 2210" transform="translate(38.746)">
                  <path id="Path_1722" data-name="Path 1722" d="M865.235,742.93a8.847,8.847,0,0,0-4.139-6.064s-3.281-13.866,2.539-17.324,7.052,9.543,6.324,15.49S865.235,742.93,865.235,742.93Z" transform="translate(-860.175 -718.966)" fill="#300808"/>
                </g>
              </g>
            </g>
          </g>
          <g id="Group_2220" data-name="Group 2220" transform="translate(88.027 81.229)">
            <g id="Group_2216" data-name="Group 2216" transform="translate(0 27.23)">
              <g id="Group_2214" data-name="Group 2214" transform="translate(0 0)">
                <ellipse id="Ellipse_34" data-name="Ellipse 34" cx="13.446" cy="18.792" rx="13.446" ry="18.792" transform="translate(0 8.455) rotate(-18.324)" fill="#0c0b0b"/>
              </g>
              <g id="Group_2215" data-name="Group 2215" transform="translate(8.452 16.944)">
                <path id="Path_1723" data-name="Path 1723" d="M628.615,645.47c1.041,3.15.377,6.2-1.483,6.813s-4.212-1.443-5.252-4.592-.376-6.2,1.484-6.813S627.574,642.321,628.615,645.47Z" transform="translate(-621.387 -640.769)" fill="#fff"/>
              </g>
            </g>
            <g id="Group_2219" data-name="Group 2219" transform="translate(82.611 0)">
              <g id="Group_2217" data-name="Group 2217" transform="translate(0)">
                <ellipse id="Ellipse_35" data-name="Ellipse 35" cx="13.446" cy="18.792" rx="13.446" ry="18.792" transform="matrix(0.949, -0.314, 0.314, 0.949, 0, 8.454)" fill="#0c0b0b"/>
              </g>
              <g id="Group_2218" data-name="Group 2218" transform="translate(8.452 16.944)">
                <path id="Path_1724" data-name="Path 1724" d="M870,565.9c1.041,3.15.376,6.2-1.484,6.813s-4.211-1.443-5.252-4.592-.376-6.2,1.484-6.813S868.964,562.753,870,565.9Z" transform="translate(-862.777 -561.201)" fill="#fff"/>
              </g>
            </g>
          </g>
        </g>
      </g>
    </g>
  </g>
</svg>
