<svg xmlns="http://www.w3.org/2000/svg" xmlns:xlink="http://www.w3.org/1999/xlink" width="98.043" height="57.574" viewBox="0 0 98.043 57.574">
  <defs>
    <linearGradient id="linear-gradient" x1="3.456" y1="10.49" x2="3.558" y2="12.799" gradientUnits="objectBoundingBox">
      <stop offset="0.389" stop-color="#72d81c"/>
      <stop offset="0.625" stop-color="#3aa023"/>
      <stop offset="1" stop-color="#50cc2c"/>
    </linearGradient>
    <linearGradient id="linear-gradient-2" x1="70.161" y1="20.915" x2="72.023" y2="23.283" xlink:href="#linear-gradient"/>
    <linearGradient id="linear-gradient-3" x1="22.703" y1="20.228" x2="23.303" y2="22.547" xlink:href="#linear-gradient"/>
    <linearGradient id="linear-gradient-4" x1="3.435" y1="12.999" x2="3.514" y2="14.494" xlink:href="#linear-gradient"/>
    <linearGradient id="linear-gradient-5" x1="22.854" y1="30.006" x2="23.457" y2="33.478" xlink:href="#linear-gradient"/>
  </defs>
  <g id="Group_1756" data-name="Group 1756" transform="translate(7.781) rotate(11)">
    <g id="Group_1754" data-name="Group 1754" transform="translate(0 0)">
      <path id="Path_684" data-name="Path 684" d="M29.982,39.753S17.827,24.549,0,31.009c8.637-19.65,32.431-8.2,32.431-8.2s-.6-8.637-7.636-10.405c9.291-5.36,15.992,8.31,15.992,8.31S42.136,6.04,52.314,0c-1.815,12.188-.18,18.061-.18,18.061A32.35,32.35,0,0,1,77.484,2.45c-11.327,10.886-10.1,17.36-10.1,17.36S73.272,7.355,90.919,8.136c-20.911,17.347-19.7,23.808-19.7,23.808s-11.694,1.014-20.057,5.279L55.685,32.6S48.35,32.084,29.982,39.753Z" transform="translate(0.513 0.511)" fill="url(#linear-gradient)"/>
      <path id="Path_685" data-name="Path 685" d="M30.494,40.778a.537.537,0,0,1-.414-.187C30.007,40.485,21.817,30.44,9.33,30.44A25.137,25.137,0,0,0,.693,32.015a.5.5,0,0,1-.547-.154.48.48,0,0,1-.1-.547c3.4-7.742,9.718-11.82,18.295-11.82A37.712,37.712,0,0,1,32.3,22.477c-.374-2.169-1.835-7.722-7.108-9.057A.5.5,0,0,1,24.8,13a.513.513,0,0,1,.254-.521,9.128,9.128,0,0,1,4.605-1.315c5.607,0,9.711,5.733,11.333,8.457.661-4,3.144-14.544,11.567-19.563a.583.583,0,0,1,.554.027.514.514,0,0,1,.227.5c-1.308,8.77-.808,14.27-.454,16.593A33.169,33.169,0,0,1,77.963,2.447a.5.5,0,0,1,.514.3.525.525,0,0,1-.12.581c-7.409,7.135-9.351,12.328-9.825,14.951a22.768,22.768,0,0,1,3.851-4.2c3.4-2.9,9.531-6.354,19.069-5.954a.554.554,0,0,1,.474.36.544.544,0,0,1-.16.567c-20.2,16.753-19.523,23.254-19.516,23.32a.584.584,0,0,1-.1.4.527.527,0,0,1-.367.194c-.113.013-11.694,1.055-19.856,5.226a.518.518,0,0,1-.654-.14.5.5,0,0,1,.053-.674l3.631-3.724c-2.723.18-10.292,1.262-24.268,7.082A.53.53,0,0,1,30.494,40.778ZM9.33,29.405c11.74,0,19.8,8.523,21.312,10.239C46.419,33.1,53.962,32.582,55.9,32.582a3.268,3.268,0,0,1,.34.013.566.566,0,0,1,.447.334.5.5,0,0,1-.12.541l-2.57,2.65A68.218,68.218,0,0,1,71.222,32c.154-1.916,2-8.7,18.835-22.867h-.194c-15.925,0-21.445,11.286-21.5,11.4a.51.51,0,0,1-.541.287.5.5,0,0,1-.427-.414c-.06-.26-1.075-6.454,9.211-16.806a32.264,32.264,0,0,0-23.521,15.2.483.483,0,0,1-.507.274.528.528,0,0,1-.441-.38c-.06-.22-1.535-5.753.02-17.153-9,6.167-10.332,19.589-10.339,19.736a.526.526,0,0,1-.988.18c-.04-.1-4.625-9.264-11.173-9.264a7.645,7.645,0,0,0-2.99.634C32.817,15.3,33.451,23.2,33.464,23.3a.545.545,0,0,1-.227.454.479.479,0,0,1-.514.027A38.01,38.01,0,0,0,18.34,20.521c-7.842,0-13.5,3.411-16.846,10.118A26.013,26.013,0,0,1,9.33,29.405Z" transform="translate(0 0)" fill="#009345"/>
    </g>
    <g id="Group_1755" data-name="Group 1755" transform="translate(0.513 0.511)" opacity="0.9" style="mix-blend-mode: multiply;isolation: isolate">
      <path id="Path_686" data-name="Path 686" d="M1.88,19.983C2.941,18.542,3.4,17.941,3.6,17.661,3.288,16.192,2.334,10.392,3.882,0c-.32.194-.621.374-.9.581C.525,5.159-1.717,12.308,1.88,19.983Z" transform="translate(48.432 0)" fill="url(#linear-gradient-2)"/>
      <path id="Path_687" data-name="Path 687" d="M.559,20.4c.621-1.5,1.055-2.556,1.362-3.31C1.84,15.792,2.034,9.631,12.052,0c-.327.027-.647.067-.974.093C5.071,2.636-2.064,8.276.559,20.4Z" transform="translate(65.431 2.449)" fill="url(#linear-gradient-3)"/>
      <path id="Path_688" data-name="Path 688" d="M69.307,21.438,67.579,17.7,60.4,22.8l4.258-6.241c-11.714.854-18.622,5.553-18.622,5.553l4.138-8.583s-11.754,4.265-13.055,9.938A17.821,17.821,0,0,0,24.255,16.4l4.605,6.748c-10.239-6.661-20.738-5.166-27.465-2.93A23.743,23.743,0,0,0,0,22.887c17.827-6.461,29.982,8.744,29.982,8.744,18.368-7.669,25.7-7.148,25.7-7.148L51.166,29.1c8.363-4.265,20.057-5.279,20.057-5.279S70.008,17.36,90.919.013C90.566,0,90.205,0,89.865,0,75.094,5.186,69.307,21.438,69.307,21.438Z" transform="translate(0 8.123)" fill="url(#linear-gradient-4)"/>
      <path id="Path_689" data-name="Path 689" d="M1.095,0C.741.167.374.334,0,.541c5.947,1.5,7.288,7.889,7.562,9.825.474.354,1.622,1.195,4.445,3.277C11.967,5.52,6.187,1.755,1.095,0Z" transform="translate(24.796 11.867)" fill="url(#linear-gradient-5)"/>
    </g>
    <path id="Path_690" data-name="Path 690" d="M28.39,4.035C19.98-1.611,7.239-1.665.064,6c-.08.08-.107.447.053.287C7.953-1.164,19.193,0,28.043,4.89,28.317,5.037,28.67,4.209,28.39,4.035Z" transform="translate(4.694 19.957)" fill="#fff"/>
    <path id="Path_691" data-name="Path 691" d="M10.433,6.3C8.31,2.784,4.5-.286.208.021.061.048-.106.475.088.475,4.453.488,7.463,3.766,10.119,6.822,10.286,7.023,10.533,6.455,10.433,6.3Z" transform="translate(29.018 11.877)" fill="#fff"/>
    <path id="Path_692" data-name="Path 692" d="M7.465.039A20.438,20.438,0,0,0,.177,18.14c.08.534.581-.24.561-.5A22.239,22.239,0,0,1,7.485.38C7.572.286,7.659-.128,7.465.039Z" transform="translate(43.139 2.381)" fill="#fff"/>
    <path id="Path_693" data-name="Path 693" d="M20.217,0A33.065,33.065,0,0,0,6.668,6.014C3.738,8.177.121,11.521,0,15.452c-.013.387.327.107.367-.12.854-4.338,4.485-7.262,7.949-9.671a41.944,41.944,0,0,1,4.258-2.543c2.383-1.275,5.073-1.749,7.575-2.723C20.251.355,20.377-.019,20.217,0Z" transform="translate(54.241 3.668)" fill="#fff"/>
  </g>
</svg>
