<?xml version="1.0" standalone="no"?>
<!DOCTYPE svg PUBLIC "-//W3C//DTD SVG 20010904//EN"
 "http://www.w3.org/TR/2001/REC-SVG-20010904/DTD/svg10.dtd">
<svg version="1.0" xmlns="http://www.w3.org/2000/svg"
 width="1024.000000pt" height="1024.000000pt" viewBox="0 0 1024.000000 1024.000000"
 preserveAspectRatio="xMidYMid meet">
<metadata>
Created by potrace 1.14, written by Peter Selinger 2001-2017
</metadata>
<g transform="translate(0.000000,1024.000000) scale(0.100000,-0.100000)"
fill="#000000" stroke="none">
<path d="M4908 10235 c-2 -2 -52 -6 -113 -9 -60 -4 -126 -8 -145 -11 -19 -2
-64 -6 -100 -10 -36 -3 -92 -10 -125 -15 -33 -5 -78 -12 -100 -15 -82 -12
-213 -36 -295 -55 -47 -11 -96 -21 -110 -24 -14 -2 -25 -5 -25 -6 0 -1 -7 -3
-15 -5 -9 -1 -51 -13 -95 -25 -44 -12 -88 -23 -98 -25 -74 -15 -476 -162 -605
-221 -29 -13 -55 -24 -57 -24 -8 0 -258 -125 -340 -169 -223 -122 -485 -291
-650 -418 -5 -5 -30 -24 -55 -42 -50 -39 -201 -165 -270 -226 -56 -50 -363
-356 -410 -410 -158 -179 -282 -340 -412 -531 -95 -138 -218 -337 -218 -350 0
-4 -6 -15 -14 -23 -14 -15 -206 -394 -206 -405 0 -3 -12 -31 -26 -63 -89 -196
-179 -456 -255 -734 -27 -100 -93 -412 -103 -489 -40 -299 -46 -353 -53 -480
-13 -206 -6 -692 11 -815 3 -16 8 -59 11 -95 4 -36 9 -74 11 -85 2 -11 5 -40
8 -65 6 -50 8 -61 36 -210 22 -123 33 -173 55 -265 3 -11 7 -29 9 -40 12 -55
72 -264 108 -370 213 -635 550 -1229 988 -1736 164 -190 441 -463 579 -569 11
-9 35 -29 53 -46 18 -16 83 -66 143 -111 61 -46 116 -87 122 -93 19 -16 326
-216 343 -223 8 -4 33 -18 55 -32 157 -98 467 -248 699 -339 238 -94 579 -200
736 -230 14 -2 61 -12 105 -21 159 -34 164 -35 280 -49 28 -4 61 -9 75 -12 38
-7 205 -24 305 -32 197 -14 768 -6 900 13 17 2 54 7 84 10 128 13 289 40 471
80 63 13 124 26 135 28 11 3 80 21 153 41 556 155 1064 393 1547 725 80 55
310 228 339 256 6 5 27 23 46 39 126 102 378 346 498 481 30 33 66 74 81 90
103 114 306 385 416 554 146 226 314 539 410 766 25 61 50 119 55 130 69 160
191 554 234 755 26 122 44 213 50 253 4 27 9 58 12 70 2 12 6 39 9 62 3 22 8
51 10 65 2 14 7 52 11 85 3 33 8 74 10 90 26 215 25 910 -1 1030 -3 11 -7 43
-9 70 -3 28 -10 86 -16 130 -6 44 -13 96 -16 115 -3 19 -6 44 -9 55 -2 11 -11
58 -20 105 -16 83 -87 375 -105 435 -5 17 -19 62 -32 100 -12 39 -23 75 -24
80 -8 34 -94 262 -150 394 -305 719 -759 1341 -1369 1876 -43 38 -213 175
-260 209 -22 17 -42 32 -45 35 -16 18 -324 222 -425 282 -115 67 -245 139
-267 146 -10 3 -18 9 -18 14 0 5 -5 9 -10 9 -6 0 -63 25 -127 56 -119 57 -327
143 -443 183 -36 13 -79 29 -95 37 -17 7 -42 15 -55 18 -14 2 -45 12 -70 21
-25 9 -79 25 -120 36 -41 11 -100 27 -130 35 -53 15 -173 42 -215 50 -11 2
-49 10 -85 17 -36 8 -87 18 -113 21 -27 4 -58 9 -70 12 -18 3 -60 9 -217 29
-33 5 -73 8 -225 21 -61 5 -563 13 -567 9z"/>
</g>
</svg>
